<?xml version="1.0" encoding="utf-8"?>
<!-- Generator: Adobe Illustrator 16.0.0, SVG Export Plug-In . SVG Version: 6.00 Build 0)  -->
<!DOCTYPE svg PUBLIC "-//W3C//DTD SVG 1.1//EN" "http://www.w3.org/Graphics/SVG/1.1/DTD/svg11.dtd">
<svg version="1.1" xmlns="http://www.w3.org/2000/svg" xmlns:xlink="http://www.w3.org/1999/xlink" x="0px" y="0px" width="32px"
	 height="32px" viewBox="0 0 32 32" enable-background="new 0 0 32 32" xml:space="preserve">
<g id="grids" display="none">
	<g display="inline">
		<rect x="0" y="0" fill="#DADADA" width="2" height="2"/>
		<rect x="2" y="0" fill="#FFFFFF" width="2" height="2"/>
		<rect x="4" y="0" fill="#DADADA" width="2" height="2"/>
		<rect x="6" y="0" fill="#FFFFFF" width="2" height="2"/>
		<rect x="8" y="0" fill="#DADADA" width="2" height="2"/>
		<rect x="10" y="0" fill="#FFFFFF" width="2" height="2"/>
		<rect x="12" y="0" fill="#DADADA" width="2" height="2"/>
		<rect x="14" y="0" fill="#FFFFFF" width="2" height="2"/>
		<rect x="16" y="0" fill="#DADADA" width="2" height="2"/>
		<rect x="18" y="0" fill="#FFFFFF" width="2" height="2"/>
		<rect x="20" y="0" fill="#DADADA" width="2" height="2"/>
		<rect x="22" y="0" fill="#FFFFFF" width="2" height="2"/>
		<rect x="24" y="0" fill="#DADADA" width="2" height="2"/>
		<rect x="26" y="0" fill="#FFFFFF" width="2" height="2"/>
		<rect x="28" y="0" fill="#DADADA" width="2" height="2"/>
		<rect x="30" y="0" fill="#FFFFFF" width="2" height="2"/>
		<rect x="0" y="2" fill="#FFFFFF" width="2" height="2"/>
		<rect x="2" y="2" fill="#DADADA" width="2" height="2"/>
		<rect x="4" y="2" fill="#FFFFFF" width="2" height="2"/>
		<rect x="6" y="2" fill="#DADADA" width="2" height="2"/>
		<rect x="8" y="2" fill="#FFFFFF" width="2" height="2"/>
		<rect x="10" y="2" fill="#DADADA" width="2" height="2"/>
		<rect x="12" y="2" fill="#FFFFFF" width="2" height="2"/>
		<rect x="14" y="2" fill="#DADADA" width="2" height="2"/>
		<rect x="16" y="2" fill="#FFFFFF" width="2" height="2"/>
		<rect x="18" y="2" fill="#DADADA" width="2" height="2"/>
		<rect x="20" y="2" fill="#FFFFFF" width="2" height="2"/>
		<rect x="22" y="2" fill="#DADADA" width="2" height="2"/>
		<rect x="24" y="2" fill="#FFFFFF" width="2" height="2"/>
		<rect x="26" y="2" fill="#DADADA" width="2" height="2"/>
		<rect x="28" y="2" fill="#FFFFFF" width="2" height="2"/>
		<rect x="30" y="2" fill="#DADADA" width="2" height="2"/>
		<rect x="0" y="4" fill="#DADADA" width="2" height="2"/>
		<rect x="2" y="4" fill="#FFFFFF" width="2" height="2"/>
		<rect x="4" y="4" fill="#DADADA" width="2" height="2"/>
		<rect x="6" y="4" fill="#FFFFFF" width="2" height="2"/>
		<rect x="8" y="4" fill="#DADADA" width="2" height="2"/>
		<rect x="10" y="4" fill="#FFFFFF" width="2" height="2"/>
		<rect x="12" y="4" fill="#DADADA" width="2" height="2"/>
		<rect x="14" y="4" fill="#FFFFFF" width="2" height="2"/>
		<rect x="16" y="4" fill="#DADADA" width="2" height="2"/>
		<rect x="18" y="4" fill="#FFFFFF" width="2" height="2"/>
		<rect x="20" y="4" fill="#DADADA" width="2" height="2"/>
		<rect x="22" y="4" fill="#FFFFFF" width="2" height="2"/>
		<rect x="24" y="4" fill="#DADADA" width="2" height="2"/>
		<rect x="26" y="4" fill="#FFFFFF" width="2" height="2"/>
		<rect x="28" y="4" fill="#DADADA" width="2" height="2"/>
		<rect x="30" y="4" fill="#FFFFFF" width="2" height="2"/>
		<rect x="0" y="6" fill="#FFFFFF" width="2" height="2"/>
		<rect x="2" y="6" fill="#DADADA" width="2" height="2"/>
		<rect x="4" y="6" fill="#FFFFFF" width="2" height="2"/>
		<rect x="6" y="6" fill="#DADADA" width="2" height="2"/>
		<rect x="8" y="6" fill="#FFFFFF" width="2" height="2"/>
		<rect x="10" y="6" fill="#DADADA" width="2" height="2"/>
		<rect x="12" y="6" fill="#FFFFFF" width="2" height="2"/>
		<rect x="14" y="6" fill="#DADADA" width="2" height="2"/>
		<rect x="16" y="6" fill="#FFFFFF" width="2" height="2"/>
		<rect x="18" y="6" fill="#DADADA" width="2" height="2"/>
		<rect x="20" y="6" fill="#FFFFFF" width="2" height="2"/>
		<rect x="22" y="6" fill="#DADADA" width="2" height="2"/>
		<rect x="24" y="6" fill="#FFFFFF" width="2" height="2"/>
		<rect x="26" y="6" fill="#DADADA" width="2" height="2"/>
		<rect x="28" y="6" fill="#FFFFFF" width="2" height="2"/>
		<rect x="30" y="6" fill="#DADADA" width="2" height="2"/>
		<rect x="0" y="8" fill="#DADADA" width="2" height="2"/>
		<rect x="2" y="8" fill="#FFFFFF" width="2" height="2"/>
		<rect x="4" y="8" fill="#DADADA" width="2" height="2"/>
		<rect x="6" y="8" fill="#FFFFFF" width="2" height="2"/>
		<rect x="8" y="8" fill="#DADADA" width="2" height="2"/>
		<rect x="10" y="8" fill="#FFFFFF" width="2" height="2"/>
		<rect x="12" y="8" fill="#DADADA" width="2" height="2"/>
		<rect x="14" y="8" fill="#FFFFFF" width="2" height="2"/>
		<rect x="16" y="8" fill="#DADADA" width="2" height="2"/>
		<rect x="18" y="8" fill="#FFFFFF" width="2" height="2"/>
		<rect x="20" y="8" fill="#DADADA" width="2" height="2"/>
		<rect x="22" y="8" fill="#FFFFFF" width="2" height="2"/>
		<rect x="24" y="8" fill="#DADADA" width="2" height="2"/>
		<rect x="26" y="8" fill="#FFFFFF" width="2" height="2"/>
		<rect x="28" y="8" fill="#DADADA" width="2" height="2"/>
		<rect x="30" y="8" fill="#FFFFFF" width="2" height="2"/>
		<rect x="0" y="10" fill="#FFFFFF" width="2" height="2"/>
		<rect x="2" y="10" fill="#DADADA" width="2" height="2"/>
		<rect x="4" y="10" fill="#FFFFFF" width="2" height="2"/>
		<rect x="6" y="10" fill="#DADADA" width="2" height="2"/>
		<rect x="8" y="10" fill="#FFFFFF" width="2" height="2"/>
		<rect x="10" y="10" fill="#DADADA" width="2" height="2"/>
		<rect x="12" y="10" fill="#FFFFFF" width="2" height="2"/>
		<rect x="14" y="10" fill="#DADADA" width="2" height="2"/>
		<rect x="16" y="10" fill="#FFFFFF" width="2" height="2"/>
		<rect x="18" y="10" fill="#DADADA" width="2" height="2"/>
		<rect x="20" y="10" fill="#FFFFFF" width="2" height="2"/>
		<rect x="22" y="10" fill="#DADADA" width="2" height="2"/>
		<rect x="24" y="10" fill="#FFFFFF" width="2" height="2"/>
		<rect x="26" y="10" fill="#DADADA" width="2" height="2"/>
		<rect x="28" y="10" fill="#FFFFFF" width="2" height="2"/>
		<rect x="30" y="10" fill="#DADADA" width="2" height="2"/>
		<rect x="0" y="12" fill="#DADADA" width="2" height="2"/>
		<rect x="2" y="12" fill="#FFFFFF" width="2" height="2"/>
		<rect x="4" y="12" fill="#DADADA" width="2" height="2"/>
		<rect x="6" y="12" fill="#FFFFFF" width="2" height="2"/>
		<rect x="8" y="12" fill="#DADADA" width="2" height="2"/>
		<rect x="10" y="12" fill="#FFFFFF" width="2" height="2"/>
		<rect x="12" y="12" fill="#DADADA" width="2" height="2"/>
		<rect x="14" y="12" fill="#FFFFFF" width="2" height="2"/>
		<rect x="16" y="12" fill="#DADADA" width="2" height="2"/>
		<rect x="18" y="12" fill="#FFFFFF" width="2" height="2"/>
		<rect x="20" y="12" fill="#DADADA" width="2" height="2"/>
		<rect x="22" y="12" fill="#FFFFFF" width="2" height="2"/>
		<rect x="24" y="12" fill="#DADADA" width="2" height="2"/>
		<rect x="26" y="12" fill="#FFFFFF" width="2" height="2"/>
		<rect x="28" y="12" fill="#DADADA" width="2" height="2"/>
		<rect x="30" y="12" fill="#FFFFFF" width="2" height="2"/>
		<rect x="0" y="14" fill="#FFFFFF" width="2" height="2"/>
		<rect x="2" y="14" fill="#DADADA" width="2" height="2"/>
		<rect x="4" y="14" fill="#FFFFFF" width="2" height="2"/>
		<rect x="6" y="14" fill="#DADADA" width="2" height="2"/>
		<rect x="8" y="14" fill="#FFFFFF" width="2" height="2"/>
		<rect x="10" y="14" fill="#DADADA" width="2" height="2"/>
		<rect x="12" y="14" fill="#FFFFFF" width="2" height="2"/>
		<rect x="14" y="14" fill="#DADADA" width="2" height="2"/>
		<rect x="16" y="14" fill="#FFFFFF" width="2" height="2"/>
		<rect x="18" y="14" fill="#DADADA" width="2" height="2"/>
		<rect x="20" y="14" fill="#FFFFFF" width="2" height="2"/>
		<rect x="22" y="14" fill="#DADADA" width="2" height="2"/>
		<rect x="24" y="14" fill="#FFFFFF" width="2" height="2"/>
		<rect x="26" y="14" fill="#DADADA" width="2" height="2"/>
		<rect x="28" y="14" fill="#FFFFFF" width="2" height="2"/>
		<rect x="30" y="14" fill="#DADADA" width="2" height="2"/>
		<rect x="0" y="16" fill="#DADADA" width="2" height="2"/>
		<rect x="2" y="16" fill="#FFFFFF" width="2" height="2"/>
		<rect x="4" y="16" fill="#DADADA" width="2" height="2"/>
		<rect x="6" y="16" fill="#FFFFFF" width="2" height="2"/>
		<rect x="8" y="16" fill="#DADADA" width="2" height="2"/>
		<rect x="10" y="16" fill="#FFFFFF" width="2" height="2"/>
		<rect x="12" y="16" fill="#DADADA" width="2" height="2"/>
		<rect x="14" y="16" fill="#FFFFFF" width="2" height="2"/>
		<rect x="16" y="16" fill="#DADADA" width="2" height="2"/>
		<rect x="18" y="16" fill="#FFFFFF" width="2" height="2"/>
		<rect x="20" y="16" fill="#DADADA" width="2" height="2"/>
		<rect x="22" y="16" fill="#FFFFFF" width="2" height="2"/>
		<rect x="24" y="16" fill="#DADADA" width="2" height="2"/>
		<rect x="26" y="16" fill="#FFFFFF" width="2" height="2"/>
		<rect x="28" y="16" fill="#DADADA" width="2" height="2"/>
		<rect x="30" y="16" fill="#FFFFFF" width="2" height="2"/>
		<rect x="0" y="18" fill="#FFFFFF" width="2" height="2"/>
		<rect x="2" y="18" fill="#DADADA" width="2" height="2"/>
		<rect x="4" y="18" fill="#FFFFFF" width="2" height="2"/>
		<rect x="6" y="18" fill="#DADADA" width="2" height="2"/>
		<rect x="8" y="18" fill="#FFFFFF" width="2" height="2"/>
		<rect x="10" y="18" fill="#DADADA" width="2" height="2"/>
		<rect x="12" y="18" fill="#FFFFFF" width="2" height="2"/>
		<rect x="14" y="18" fill="#DADADA" width="2" height="2"/>
		<rect x="16" y="18" fill="#FFFFFF" width="2" height="2"/>
		<rect x="18" y="18" fill="#DADADA" width="2" height="2"/>
		<rect x="20" y="18" fill="#FFFFFF" width="2" height="2"/>
		<rect x="22" y="18" fill="#DADADA" width="2" height="2"/>
		<rect x="24" y="18" fill="#FFFFFF" width="2" height="2"/>
		<rect x="26" y="18" fill="#DADADA" width="2" height="2"/>
		<rect x="28" y="18" fill="#FFFFFF" width="2" height="2"/>
		<rect x="30" y="18" fill="#DADADA" width="2" height="2"/>
		<rect x="0" y="20" fill="#DADADA" width="2" height="2"/>
		<rect x="2" y="20" fill="#FFFFFF" width="2" height="2"/>
		<rect x="4" y="20" fill="#DADADA" width="2" height="2"/>
		<rect x="6" y="20" fill="#FFFFFF" width="2" height="2"/>
		<rect x="8" y="20" fill="#DADADA" width="2" height="2"/>
		<rect x="10" y="20" fill="#FFFFFF" width="2" height="2"/>
		<rect x="12" y="20" fill="#DADADA" width="2" height="2"/>
		<rect x="14" y="20" fill="#FFFFFF" width="2" height="2"/>
		<rect x="16" y="20" fill="#DADADA" width="2" height="2"/>
		<rect x="18" y="20" fill="#FFFFFF" width="2" height="2"/>
		<rect x="20" y="20" fill="#DADADA" width="2" height="2"/>
		<rect x="22" y="20" fill="#FFFFFF" width="2" height="2"/>
		<rect x="24" y="20" fill="#DADADA" width="2" height="2"/>
		<rect x="26" y="20" fill="#FFFFFF" width="2" height="2"/>
		<rect x="28" y="20" fill="#DADADA" width="2" height="2"/>
		<rect x="30" y="20" fill="#FFFFFF" width="2" height="2"/>
		<rect x="0" y="22" fill="#FFFFFF" width="2" height="2"/>
		<rect x="2" y="22" fill="#DADADA" width="2" height="2"/>
		<rect x="4" y="22" fill="#FFFFFF" width="2" height="2"/>
		<rect x="6" y="22" fill="#DADADA" width="2" height="2"/>
		<rect x="8" y="22" fill="#FFFFFF" width="2" height="2"/>
		<rect x="10" y="22" fill="#DADADA" width="2" height="2"/>
		<rect x="12" y="22" fill="#FFFFFF" width="2" height="2"/>
		<rect x="14" y="22" fill="#DADADA" width="2" height="2"/>
		<rect x="16" y="22" fill="#FFFFFF" width="2" height="2"/>
		<rect x="18" y="22" fill="#DADADA" width="2" height="2"/>
		<rect x="20" y="22" fill="#FFFFFF" width="2" height="2"/>
		<rect x="22" y="22" fill="#DADADA" width="2" height="2"/>
		<rect x="24" y="22" fill="#FFFFFF" width="2" height="2"/>
		<rect x="26" y="22" fill="#DADADA" width="2" height="2"/>
		<rect x="28" y="22" fill="#FFFFFF" width="2" height="2"/>
		<rect x="30" y="22" fill="#DADADA" width="2" height="2"/>
		<rect x="0" y="24" fill="#DADADA" width="2" height="2"/>
		<rect x="2" y="24" fill="#FFFFFF" width="2" height="2"/>
		<rect x="4" y="24" fill="#DADADA" width="2" height="2"/>
		<rect x="6" y="24" fill="#FFFFFF" width="2" height="2"/>
		<rect x="8" y="24" fill="#DADADA" width="2" height="2"/>
		<rect x="10" y="24" fill="#FFFFFF" width="2" height="2"/>
		<rect x="12" y="24" fill="#DADADA" width="2" height="2"/>
		<rect x="14" y="24" fill="#FFFFFF" width="2" height="2"/>
		<rect x="16" y="24" fill="#DADADA" width="2" height="2"/>
		<rect x="18" y="24" fill="#FFFFFF" width="2" height="2"/>
		<rect x="20" y="24" fill="#DADADA" width="2" height="2"/>
		<rect x="22" y="24" fill="#FFFFFF" width="2" height="2"/>
		<rect x="24" y="24" fill="#DADADA" width="2" height="2"/>
		<rect x="26" y="24" fill="#FFFFFF" width="2" height="2"/>
		<rect x="28" y="24" fill="#DADADA" width="2" height="2"/>
		<rect x="30" y="24" fill="#FFFFFF" width="2" height="2"/>
		<rect x="0" y="26" fill="#FFFFFF" width="2" height="2"/>
		<rect x="2" y="26" fill="#DADADA" width="2" height="2"/>
		<rect x="4" y="26" fill="#FFFFFF" width="2" height="2"/>
		<rect x="6" y="26" fill="#DADADA" width="2" height="2"/>
		<rect x="8" y="26" fill="#FFFFFF" width="2" height="2"/>
		<rect x="10" y="26" fill="#DADADA" width="2" height="2"/>
		<rect x="12" y="26" fill="#FFFFFF" width="2" height="2"/>
		<rect x="14" y="26" fill="#DADADA" width="2" height="2"/>
		<rect x="16" y="26" fill="#FFFFFF" width="2" height="2"/>
		<rect x="18" y="26" fill="#DADADA" width="2" height="2"/>
		<rect x="20" y="26" fill="#FFFFFF" width="2" height="2"/>
		<rect x="22" y="26" fill="#DADADA" width="2" height="2"/>
		<rect x="24" y="26" fill="#FFFFFF" width="2" height="2"/>
		<rect x="26" y="26" fill="#DADADA" width="2" height="2"/>
		<rect x="28" y="26" fill="#FFFFFF" width="2" height="2"/>
		<rect x="30" y="26" fill="#DADADA" width="2" height="2"/>
		<rect x="0" y="28" fill="#DADADA" width="2" height="2"/>
		<rect x="2" y="28" fill="#FFFFFF" width="2" height="2"/>
		<rect x="4" y="28" fill="#DADADA" width="2" height="2"/>
		<rect x="6" y="28" fill="#FFFFFF" width="2" height="2"/>
		<rect x="8" y="28" fill="#DADADA" width="2" height="2"/>
		<rect x="10" y="28" fill="#FFFFFF" width="2" height="2"/>
		<rect x="12" y="28" fill="#DADADA" width="2" height="2"/>
		<rect x="14" y="28" fill="#FFFFFF" width="2" height="2"/>
		<rect x="16" y="28" fill="#DADADA" width="2" height="2"/>
		<rect x="18" y="28" fill="#FFFFFF" width="2" height="2"/>
		<rect x="20" y="28" fill="#DADADA" width="2" height="2"/>
		<rect x="22" y="28" fill="#FFFFFF" width="2" height="2"/>
		<rect x="24" y="28" fill="#DADADA" width="2" height="2"/>
		<rect x="26" y="28" fill="#FFFFFF" width="2" height="2"/>
		<rect x="28" y="28" fill="#DADADA" width="2" height="2"/>
		<rect x="30" y="28" fill="#FFFFFF" width="2" height="2"/>
		<rect x="0" y="30" fill="#FFFFFF" width="2" height="2"/>
		<rect x="2" y="30" fill="#DADADA" width="2" height="2"/>
		<rect x="4" y="30" fill="#FFFFFF" width="2" height="2"/>
		<rect x="6" y="30" fill="#DADADA" width="2" height="2"/>
		<rect x="8" y="30" fill="#FFFFFF" width="2" height="2"/>
		<rect x="10" y="30" fill="#DADADA" width="2" height="2"/>
		<rect x="12" y="30" fill="#FFFFFF" width="2" height="2"/>
		<rect x="14" y="30" fill="#DADADA" width="2" height="2"/>
		<rect x="16" y="30" fill="#FFFFFF" width="2" height="2"/>
		<rect x="18" y="30" fill="#DADADA" width="2" height="2"/>
		<rect x="20" y="30" fill="#FFFFFF" width="2" height="2"/>
		<rect x="22" y="30" fill="#DADADA" width="2" height="2"/>
		<rect x="24" y="30" fill="#FFFFFF" width="2" height="2"/>
		<rect x="26" y="30" fill="#DADADA" width="2" height="2"/>
		<rect x="28" y="30" fill="#FFFFFF" width="2" height="2"/>
		<rect x="30" y="30" fill="#DADADA" width="2" height="2"/>
	</g>
</g>
<g id="BG" display="none">
	<rect x="-181" y="-227.7" display="inline" width="314" height="521.3"/>
</g>
<g id="ICONS">
	<g>
		<path fill="#FFFFFF" d="M25.4,11.8c-0.5-0.2-1-0.3-1.3-0.4c1.2-0.7,2-2,2-3.4c0-2.2-1.8-4-4-4s-4,1.8-4,4c0,1.5,0.8,2.7,2,3.4
			c-0.4,0.1-0.8,0.2-1.4,0.4c-1.3,0.3-2.3,1.5-2.6,2.7V13c0-1.4-1.1-2.8-2.6-3.2c-0.5-0.2-1-0.3-1.4-0.4C13.2,8.7,14,7.5,14,6
			c0-2.2-1.8-4-4-4S6,3.8,6,6c0,1.5,0.8,2.7,2,3.4C7.6,9.5,7.2,9.6,6.6,9.8C5.1,10.2,4,11.5,4,13v6c0,1.3,0.8,2.6,2,3.2l0.3,4.9
			C6.4,28.7,7.8,30,9.5,30h1.2c1.7,0,3.1-1.3,3.2-2.9l0.3-5c1-0.6,1.6-1.6,1.8-2.6V20c0,1.2,0.8,2.5,1.9,3.2l0.2,4
			c0.1,1.6,1.5,2.9,3.2,2.9h1.2c1.7,0,3.1-1.3,3.2-2.9l0.3-3.9c1.2-0.6,2-2,2-3.2v-5C28,13.6,26.9,12.2,25.4,11.8z M10,4
			c1.1,0,2,0.9,2,2s-0.9,2-2,2S8,7.1,8,6S8.9,4,10,4z M10.7,28H9.5c-0.6,0-1.2-0.4-1.2-1l-0.3-5.5h4.3L11.9,27
			C11.9,27.6,11.3,28,10.7,28z M14,19c0,0.5-0.5,1.2-1,1.5c0,0,0,0,0,0H7.1c0,0,0,0-0.1,0l0,0c-0.6-0.3-1-1-1-1.5v-6
			c0-0.5,0.5-1.1,1.1-1.3c0,0,1.5-0.4,2.4-0.6L9,18c0,0.3,0.7,1,1,1s1-0.7,1-1l-0.5-6.9c0.8,0.2,2.4,0.6,2.4,0.6
			c0.6,0.2,1.1,0.7,1.1,1.3V19z M23.9,13.4L22,15.3l-1.8-1.8c0.8-0.2,1.8-0.4,1.9-0.4C22.2,13,23.1,13.2,23.9,13.4z M22,6
			c1.1,0,2,0.9,2,2s-0.9,2-2,2s-2-0.9-2-2S20.9,6,22,6z M22.5,28h-1.2c-0.6,0-1.2-0.4-1.2-1l-0.3-4.5h4.2L23.7,27
			C23.7,27.6,23.1,28,22.5,28z M26,20c0,0.5-0.5,1.2-1,1.5l0,0c0,0,0,0-0.1,0H19c0,0,0,0,0,0c-0.6-0.3-1-1-1-1.5v-5
			c0-0.5,0.5-1.1,1.1-1.3l2.6,2.6c0.1,0.1,0.2,0.1,0.4,0.1s0.3,0,0.4-0.1l2.6-2.6c0.6,0.2,1,0.7,1,1.2V20z"/>
	</g>
</g>
<g id="txt" display="none">
	<g display="inline">
		<g>
		</g>
	</g>
</g>
</svg>
