<?xml version="1.0" encoding="UTF-8" standalone="no"?>
<svg width="8px" height="12px" viewBox="0 0 8 12" version="1.1" xmlns="http://www.w3.org/2000/svg" xmlns:xlink="http://www.w3.org/1999/xlink" xmlns:sketch="http://www.bohemiancoding.com/sketch/ns">
    <!-- Generator: Sketch 3.3 (11970) - http://www.bohemiancoding.com/sketch -->
    <title>Imported Layers</title>
    <desc>Created with Sketch.</desc>
    <defs></defs>
    <g id="Page-1" stroke="none" stroke-width="1" fill="none" fill-rule="evenodd" sketch:type="MSPage">
        <g id="1" sketch:type="MSArtboardGroup" transform="translate(-774.000000, -617.000000)" fill="#FFFFFF">
            <g id="Rectangle-2-Copy-+-Comenzar-el-recorrid-+-Imported-Layers-Copy" sketch:type="MSLayerGroup" transform="translate(553.000000, 602.500000)">
                <path d="M227.632095,23.7368325 L222.547095,19.4278325 L227.620095,15.2728325 C228.047095,14.9238325 228.110095,14.2938325 227.759095,13.8658325 C227.411095,13.4398325 226.779095,13.3758325 226.352095,13.7268325 L220.352095,18.6408325 C220.328095,18.6608325 220.316095,18.6898325 220.295095,18.7108325 C220.272095,18.7328325 220.244095,18.7428325 220.223095,18.7678325 C220.199095,18.7958325 220.191095,18.8318325 220.171095,18.8618325 C220.132095,18.9188325 220.099095,18.9758325 220.074095,19.0378325 C220.050095,19.0978325 220.033095,19.1558325 220.020095,19.2178325 C220.008095,19.2808325 220.000095,19.3408325 220.000095,19.4048325 C219.999095,19.4698325 220.006095,19.5308325 220.017095,19.5948325 C220.028095,19.6558325 220.045095,19.7148325 220.068095,19.7738325 C220.092095,19.8368325 220.124095,19.8938325 220.162095,19.9508325 C220.181095,19.9818325 220.188095,20.0188325 220.213095,20.0478325 C220.231095,20.0698325 220.258095,20.0778325 220.277095,20.0988325 C220.301095,20.1228325 220.313095,20.1538325 220.340095,20.1768325 L226.340095,25.2628325 C226.527095,25.4218325 226.756095,25.4998325 226.985095,25.4998325 C227.269095,25.4998325 227.551095,25.3798325 227.749095,25.1468325 C228.106095,24.7258325 228.054095,24.0948325 227.632095,23.7368325" id="Imported-Layers" sketch:type="MSShapeGroup" transform="translate(224.500000, 20.000000) rotate(-180.000000) translate(-224.500000, -20.000000) "></path>
            </g>
        </g>
    </g>
</svg>