<?xml version="1.0" encoding="utf-8"?>
<!-- Generator: Adobe Illustrator 16.0.0, SVG Export Plug-In . SVG Version: 6.00 Build 0)  -->
<!DOCTYPE svg PUBLIC "-//W3C//DTD SVG 1.1//EN" "http://www.w3.org/Graphics/SVG/1.1/DTD/svg11.dtd">
<svg version="1.1" xmlns="http://www.w3.org/2000/svg" xmlns:xlink="http://www.w3.org/1999/xlink" x="0px" y="0px" width="32px"
	 height="32px" viewBox="0 0 32 32" enable-background="new 0 0 32 32" xml:space="preserve">
<g id="grids" display="none">
	<g display="inline">
		<rect x="0" y="-0.1" fill="#DADADA" width="2" height="2"/>
		<rect x="2" y="-0.1" fill="#FFFFFF" width="2" height="2"/>
		<rect x="4" y="-0.1" fill="#DADADA" width="2" height="2"/>
		<rect x="6" y="-0.1" fill="#FFFFFF" width="2" height="2"/>
		<rect x="8" y="-0.1" fill="#DADADA" width="2" height="2"/>
		<rect x="10" y="-0.1" fill="#FFFFFF" width="2" height="2"/>
		<rect x="12" y="-0.1" fill="#DADADA" width="2" height="2"/>
		<rect x="14" y="-0.1" fill="#FFFFFF" width="2" height="2"/>
		<rect x="16" y="-0.1" fill="#DADADA" width="2" height="2"/>
		<rect x="18" y="-0.1" fill="#FFFFFF" width="2" height="2"/>
		<rect x="20" y="-0.1" fill="#DADADA" width="2" height="2"/>
		<rect x="22" y="-0.1" fill="#FFFFFF" width="2" height="2"/>
		<rect x="24" y="-0.1" fill="#DADADA" width="2" height="2"/>
		<rect x="26" y="-0.1" fill="#FFFFFF" width="2" height="2"/>
		<rect x="28" y="-0.1" fill="#DADADA" width="2" height="2"/>
		<rect x="30" y="-0.1" fill="#FFFFFF" width="2" height="2"/>
		<rect x="0" y="1.9" fill="#FFFFFF" width="2" height="2"/>
		<rect x="2" y="1.9" fill="#DADADA" width="2" height="2"/>
		<rect x="4" y="1.9" fill="#FFFFFF" width="2" height="2"/>
		<rect x="6" y="1.9" fill="#DADADA" width="2" height="2"/>
		<rect x="8" y="1.9" fill="#FFFFFF" width="2" height="2"/>
		<rect x="10" y="1.9" fill="#DADADA" width="2" height="2"/>
		<rect x="12" y="1.9" fill="#FFFFFF" width="2" height="2"/>
		<rect x="14" y="1.9" fill="#DADADA" width="2" height="2"/>
		<rect x="16" y="1.9" fill="#FFFFFF" width="2" height="2"/>
		<rect x="18" y="1.9" fill="#DADADA" width="2" height="2"/>
		<rect x="20" y="1.9" fill="#FFFFFF" width="2" height="2"/>
		<rect x="22" y="1.9" fill="#DADADA" width="2" height="2"/>
		<rect x="24" y="1.9" fill="#FFFFFF" width="2" height="2"/>
		<rect x="26" y="1.9" fill="#DADADA" width="2" height="2"/>
		<rect x="28" y="1.9" fill="#FFFFFF" width="2" height="2"/>
		<rect x="30" y="1.9" fill="#DADADA" width="2" height="2"/>
		<rect x="0" y="3.9" fill="#DADADA" width="2" height="2"/>
		<rect x="2" y="3.9" fill="#FFFFFF" width="2" height="2"/>
		<rect x="4" y="3.9" fill="#DADADA" width="2" height="2"/>
		<rect x="6" y="3.9" fill="#FFFFFF" width="2" height="2"/>
		<rect x="8" y="3.9" fill="#DADADA" width="2" height="2"/>
		<rect x="10" y="3.9" fill="#FFFFFF" width="2" height="2"/>
		<rect x="12" y="3.9" fill="#DADADA" width="2" height="2"/>
		<rect x="14" y="3.9" fill="#FFFFFF" width="2" height="2"/>
		<rect x="16" y="3.9" fill="#DADADA" width="2" height="2"/>
		<rect x="18" y="3.9" fill="#FFFFFF" width="2" height="2"/>
		<rect x="20" y="3.9" fill="#DADADA" width="2" height="2"/>
		<rect x="22" y="3.9" fill="#FFFFFF" width="2" height="2"/>
		<rect x="24" y="3.9" fill="#DADADA" width="2" height="2"/>
		<rect x="26" y="3.9" fill="#FFFFFF" width="2" height="2"/>
		<rect x="28" y="3.9" fill="#DADADA" width="2" height="2"/>
		<rect x="30" y="3.9" fill="#FFFFFF" width="2" height="2"/>
		<rect x="0" y="5.9" fill="#FFFFFF" width="2" height="2"/>
		<rect x="2" y="5.9" fill="#DADADA" width="2" height="2"/>
		<rect x="4" y="5.9" fill="#FFFFFF" width="2" height="2"/>
		<rect x="6" y="5.9" fill="#DADADA" width="2" height="2"/>
		<rect x="8" y="5.9" fill="#FFFFFF" width="2" height="2"/>
		<rect x="10" y="5.9" fill="#DADADA" width="2" height="2"/>
		<rect x="12" y="5.9" fill="#FFFFFF" width="2" height="2"/>
		<rect x="14" y="5.9" fill="#DADADA" width="2" height="2"/>
		<rect x="16" y="5.9" fill="#FFFFFF" width="2" height="2"/>
		<rect x="18" y="5.9" fill="#DADADA" width="2" height="2"/>
		<rect x="20" y="5.9" fill="#FFFFFF" width="2" height="2"/>
		<rect x="22" y="5.9" fill="#DADADA" width="2" height="2"/>
		<rect x="24" y="5.9" fill="#FFFFFF" width="2" height="2"/>
		<rect x="26" y="5.9" fill="#DADADA" width="2" height="2"/>
		<rect x="28" y="5.9" fill="#FFFFFF" width="2" height="2"/>
		<rect x="30" y="5.9" fill="#DADADA" width="2" height="2"/>
		<rect x="0" y="7.9" fill="#DADADA" width="2" height="2"/>
		<rect x="2" y="7.9" fill="#FFFFFF" width="2" height="2"/>
		<rect x="4" y="7.9" fill="#DADADA" width="2" height="2"/>
		<rect x="6" y="7.9" fill="#FFFFFF" width="2" height="2"/>
		<rect x="8" y="7.9" fill="#DADADA" width="2" height="2"/>
		<rect x="10" y="7.9" fill="#FFFFFF" width="2" height="2"/>
		<rect x="12" y="7.9" fill="#DADADA" width="2" height="2"/>
		<rect x="14" y="7.9" fill="#FFFFFF" width="2" height="2"/>
		<rect x="16" y="7.9" fill="#DADADA" width="2" height="2"/>
		<rect x="18" y="7.9" fill="#FFFFFF" width="2" height="2"/>
		<rect x="20" y="7.9" fill="#DADADA" width="2" height="2"/>
		<rect x="22" y="7.9" fill="#FFFFFF" width="2" height="2"/>
		<rect x="24" y="7.9" fill="#DADADA" width="2" height="2"/>
		<rect x="26" y="7.9" fill="#FFFFFF" width="2" height="2"/>
		<rect x="28" y="7.9" fill="#DADADA" width="2" height="2"/>
		<rect x="30" y="7.9" fill="#FFFFFF" width="2" height="2"/>
		<rect x="0" y="9.9" fill="#FFFFFF" width="2" height="2"/>
		<rect x="2" y="9.9" fill="#DADADA" width="2" height="2"/>
		<rect x="4" y="9.9" fill="#FFFFFF" width="2" height="2"/>
		<rect x="6" y="9.9" fill="#DADADA" width="2" height="2"/>
		<rect x="8" y="9.9" fill="#FFFFFF" width="2" height="2"/>
		<rect x="10" y="9.9" fill="#DADADA" width="2" height="2"/>
		<rect x="12" y="9.9" fill="#FFFFFF" width="2" height="2"/>
		<rect x="14" y="9.9" fill="#DADADA" width="2" height="2"/>
		<rect x="16" y="9.9" fill="#FFFFFF" width="2" height="2"/>
		<rect x="18" y="9.9" fill="#DADADA" width="2" height="2"/>
		<rect x="20" y="9.9" fill="#FFFFFF" width="2" height="2"/>
		<rect x="22" y="9.9" fill="#DADADA" width="2" height="2"/>
		<rect x="24" y="9.9" fill="#FFFFFF" width="2" height="2"/>
		<rect x="26" y="9.9" fill="#DADADA" width="2" height="2"/>
		<rect x="28" y="9.9" fill="#FFFFFF" width="2" height="2"/>
		<rect x="30" y="9.9" fill="#DADADA" width="2" height="2"/>
		<rect x="0" y="11.9" fill="#DADADA" width="2" height="2"/>
		<rect x="2" y="11.9" fill="#FFFFFF" width="2" height="2"/>
		<rect x="4" y="11.9" fill="#DADADA" width="2" height="2"/>
		<rect x="6" y="11.9" fill="#FFFFFF" width="2" height="2"/>
		<rect x="8" y="11.9" fill="#DADADA" width="2" height="2"/>
		<rect x="10" y="11.9" fill="#FFFFFF" width="2" height="2"/>
		<rect x="12" y="11.9" fill="#DADADA" width="2" height="2"/>
		<rect x="14" y="11.9" fill="#FFFFFF" width="2" height="2"/>
		<rect x="16" y="11.9" fill="#DADADA" width="2" height="2"/>
		<rect x="18" y="11.9" fill="#FFFFFF" width="2" height="2"/>
		<rect x="20" y="11.9" fill="#DADADA" width="2" height="2"/>
		<rect x="22" y="11.9" fill="#FFFFFF" width="2" height="2"/>
		<rect x="24" y="11.9" fill="#DADADA" width="2" height="2"/>
		<rect x="26" y="11.9" fill="#FFFFFF" width="2" height="2"/>
		<rect x="28" y="11.9" fill="#DADADA" width="2" height="2"/>
		<rect x="30" y="11.9" fill="#FFFFFF" width="2" height="2"/>
		<rect x="0" y="13.9" fill="#FFFFFF" width="2" height="2"/>
		<rect x="2" y="13.9" fill="#DADADA" width="2" height="2"/>
		<rect x="4" y="13.9" fill="#FFFFFF" width="2" height="2"/>
		<rect x="6" y="13.9" fill="#DADADA" width="2" height="2"/>
		<rect x="8" y="13.9" fill="#FFFFFF" width="2" height="2"/>
		<rect x="10" y="13.9" fill="#DADADA" width="2" height="2"/>
		<rect x="12" y="13.9" fill="#FFFFFF" width="2" height="2"/>
		<rect x="14" y="13.9" fill="#DADADA" width="2" height="2"/>
		<rect x="16" y="13.9" fill="#FFFFFF" width="2" height="2"/>
		<rect x="18" y="13.9" fill="#DADADA" width="2" height="2"/>
		<rect x="20" y="13.9" fill="#FFFFFF" width="2" height="2"/>
		<rect x="22" y="13.9" fill="#DADADA" width="2" height="2"/>
		<rect x="24" y="13.9" fill="#FFFFFF" width="2" height="2"/>
		<rect x="26" y="13.9" fill="#DADADA" width="2" height="2"/>
		<rect x="28" y="13.9" fill="#FFFFFF" width="2" height="2"/>
		<rect x="30" y="13.9" fill="#DADADA" width="2" height="2"/>
		<rect x="0" y="15.9" fill="#DADADA" width="2" height="2"/>
		<rect x="2" y="15.9" fill="#FFFFFF" width="2" height="2"/>
		<rect x="4" y="15.9" fill="#DADADA" width="2" height="2"/>
		<rect x="6" y="15.9" fill="#FFFFFF" width="2" height="2"/>
		<rect x="8" y="15.9" fill="#DADADA" width="2" height="2"/>
		<rect x="10" y="15.9" fill="#FFFFFF" width="2" height="2"/>
		<rect x="12" y="15.9" fill="#DADADA" width="2" height="2"/>
		<rect x="14" y="15.9" fill="#FFFFFF" width="2" height="2"/>
		<rect x="16" y="15.9" fill="#DADADA" width="2" height="2"/>
		<rect x="18" y="15.9" fill="#FFFFFF" width="2" height="2"/>
		<rect x="20" y="15.9" fill="#DADADA" width="2" height="2"/>
		<rect x="22" y="15.9" fill="#FFFFFF" width="2" height="2"/>
		<rect x="24" y="15.9" fill="#DADADA" width="2" height="2"/>
		<rect x="26" y="15.9" fill="#FFFFFF" width="2" height="2"/>
		<rect x="28" y="15.9" fill="#DADADA" width="2" height="2"/>
		<rect x="30" y="15.9" fill="#FFFFFF" width="2" height="2"/>
		<rect x="0" y="17.9" fill="#FFFFFF" width="2" height="2"/>
		<rect x="2" y="17.9" fill="#DADADA" width="2" height="2"/>
		<rect x="4" y="17.9" fill="#FFFFFF" width="2" height="2"/>
		<rect x="6" y="17.9" fill="#DADADA" width="2" height="2"/>
		<rect x="8" y="17.9" fill="#FFFFFF" width="2" height="2"/>
		<rect x="10" y="17.9" fill="#DADADA" width="2" height="2"/>
		<rect x="12" y="17.9" fill="#FFFFFF" width="2" height="2"/>
		<rect x="14" y="17.9" fill="#DADADA" width="2" height="2"/>
		<rect x="16" y="17.9" fill="#FFFFFF" width="2" height="2"/>
		<rect x="18" y="17.9" fill="#DADADA" width="2" height="2"/>
		<rect x="20" y="17.9" fill="#FFFFFF" width="2" height="2"/>
		<rect x="22" y="17.9" fill="#DADADA" width="2" height="2"/>
		<rect x="24" y="17.9" fill="#FFFFFF" width="2" height="2"/>
		<rect x="26" y="17.9" fill="#DADADA" width="2" height="2"/>
		<rect x="28" y="17.9" fill="#FFFFFF" width="2" height="2"/>
		<rect x="30" y="17.9" fill="#DADADA" width="2" height="2"/>
		<rect x="0" y="19.9" fill="#DADADA" width="2" height="2"/>
		<rect x="2" y="19.9" fill="#FFFFFF" width="2" height="2"/>
		<rect x="4" y="19.9" fill="#DADADA" width="2" height="2"/>
		<rect x="6" y="19.9" fill="#FFFFFF" width="2" height="2"/>
		<rect x="8" y="19.9" fill="#DADADA" width="2" height="2"/>
		<rect x="10" y="19.9" fill="#FFFFFF" width="2" height="2"/>
		<rect x="12" y="19.9" fill="#DADADA" width="2" height="2"/>
		<rect x="14" y="19.9" fill="#FFFFFF" width="2" height="2"/>
		<rect x="16" y="19.9" fill="#DADADA" width="2" height="2"/>
		<rect x="18" y="19.9" fill="#FFFFFF" width="2" height="2"/>
		<rect x="20" y="19.9" fill="#DADADA" width="2" height="2"/>
		<rect x="22" y="19.9" fill="#FFFFFF" width="2" height="2"/>
		<rect x="24" y="19.9" fill="#DADADA" width="2" height="2"/>
		<rect x="26" y="19.9" fill="#FFFFFF" width="2" height="2"/>
		<rect x="28" y="19.9" fill="#DADADA" width="2" height="2"/>
		<rect x="30" y="19.9" fill="#FFFFFF" width="2" height="2"/>
		<rect x="0" y="21.9" fill="#FFFFFF" width="2" height="2"/>
		<rect x="2" y="21.9" fill="#DADADA" width="2" height="2"/>
		<rect x="4" y="21.9" fill="#FFFFFF" width="2" height="2"/>
		<rect x="6" y="21.9" fill="#DADADA" width="2" height="2"/>
		<rect x="8" y="21.9" fill="#FFFFFF" width="2" height="2"/>
		<rect x="10" y="21.9" fill="#DADADA" width="2" height="2"/>
		<rect x="12" y="21.9" fill="#FFFFFF" width="2" height="2"/>
		<rect x="14" y="21.9" fill="#DADADA" width="2" height="2"/>
		<rect x="16" y="21.9" fill="#FFFFFF" width="2" height="2"/>
		<rect x="18" y="21.9" fill="#DADADA" width="2" height="2"/>
		<rect x="20" y="21.9" fill="#FFFFFF" width="2" height="2"/>
		<rect x="22" y="21.9" fill="#DADADA" width="2" height="2"/>
		<rect x="24" y="21.9" fill="#FFFFFF" width="2" height="2"/>
		<rect x="26" y="21.9" fill="#DADADA" width="2" height="2"/>
		<rect x="28" y="21.9" fill="#FFFFFF" width="2" height="2"/>
		<rect x="30" y="21.9" fill="#DADADA" width="2" height="2"/>
		<rect x="0" y="23.9" fill="#DADADA" width="2" height="2"/>
		<rect x="2" y="23.9" fill="#FFFFFF" width="2" height="2"/>
		<rect x="4" y="23.9" fill="#DADADA" width="2" height="2"/>
		<rect x="6" y="23.9" fill="#FFFFFF" width="2" height="2"/>
		<rect x="8" y="23.9" fill="#DADADA" width="2" height="2"/>
		<rect x="10" y="23.9" fill="#FFFFFF" width="2" height="2"/>
		<rect x="12" y="23.9" fill="#DADADA" width="2" height="2"/>
		<rect x="14" y="23.9" fill="#FFFFFF" width="2" height="2"/>
		<rect x="16" y="23.9" fill="#DADADA" width="2" height="2"/>
		<rect x="18" y="23.9" fill="#FFFFFF" width="2" height="2"/>
		<rect x="20" y="23.9" fill="#DADADA" width="2" height="2"/>
		<rect x="22" y="23.9" fill="#FFFFFF" width="2" height="2"/>
		<rect x="24" y="23.9" fill="#DADADA" width="2" height="2"/>
		<rect x="26" y="23.9" fill="#FFFFFF" width="2" height="2"/>
		<rect x="28" y="23.9" fill="#DADADA" width="2" height="2"/>
		<rect x="30" y="23.9" fill="#FFFFFF" width="2" height="2"/>
		<rect x="0" y="25.9" fill="#FFFFFF" width="2" height="2"/>
		<rect x="2" y="25.9" fill="#DADADA" width="2" height="2"/>
		<rect x="4" y="25.9" fill="#FFFFFF" width="2" height="2"/>
		<rect x="6" y="25.9" fill="#DADADA" width="2" height="2"/>
		<rect x="8" y="25.9" fill="#FFFFFF" width="2" height="2"/>
		<rect x="10" y="25.9" fill="#DADADA" width="2" height="2"/>
		<rect x="12" y="25.9" fill="#FFFFFF" width="2" height="2"/>
		<rect x="14" y="25.9" fill="#DADADA" width="2" height="2"/>
		<rect x="16" y="25.9" fill="#FFFFFF" width="2" height="2"/>
		<rect x="18" y="25.9" fill="#DADADA" width="2" height="2"/>
		<rect x="20" y="25.9" fill="#FFFFFF" width="2" height="2"/>
		<rect x="22" y="25.9" fill="#DADADA" width="2" height="2"/>
		<rect x="24" y="25.9" fill="#FFFFFF" width="2" height="2"/>
		<rect x="26" y="25.9" fill="#DADADA" width="2" height="2"/>
		<rect x="28" y="25.9" fill="#FFFFFF" width="2" height="2"/>
		<rect x="30" y="25.9" fill="#DADADA" width="2" height="2"/>
		<rect x="0" y="27.9" fill="#DADADA" width="2" height="2"/>
		<rect x="2" y="27.9" fill="#FFFFFF" width="2" height="2"/>
		<rect x="4" y="27.9" fill="#DADADA" width="2" height="2"/>
		<rect x="6" y="27.9" fill="#FFFFFF" width="2" height="2"/>
		<rect x="8" y="27.9" fill="#DADADA" width="2" height="2"/>
		<rect x="10" y="27.9" fill="#FFFFFF" width="2" height="2"/>
		<rect x="12" y="27.9" fill="#DADADA" width="2" height="2"/>
		<rect x="14" y="27.9" fill="#FFFFFF" width="2" height="2"/>
		<rect x="16" y="27.9" fill="#DADADA" width="2" height="2"/>
		<rect x="18" y="27.9" fill="#FFFFFF" width="2" height="2"/>
		<rect x="20" y="27.9" fill="#DADADA" width="2" height="2"/>
		<rect x="22" y="27.9" fill="#FFFFFF" width="2" height="2"/>
		<rect x="24" y="27.9" fill="#DADADA" width="2" height="2"/>
		<rect x="26" y="27.9" fill="#FFFFFF" width="2" height="2"/>
		<rect x="28" y="27.9" fill="#DADADA" width="2" height="2"/>
		<rect x="30" y="27.9" fill="#FFFFFF" width="2" height="2"/>
		<rect x="0" y="29.9" fill="#FFFFFF" width="2" height="2"/>
		<rect x="2" y="29.9" fill="#DADADA" width="2" height="2"/>
		<rect x="4" y="29.9" fill="#FFFFFF" width="2" height="2"/>
		<rect x="6" y="29.9" fill="#DADADA" width="2" height="2"/>
		<rect x="8" y="29.9" fill="#FFFFFF" width="2" height="2"/>
		<rect x="10" y="29.9" fill="#DADADA" width="2" height="2"/>
		<rect x="12" y="29.9" fill="#FFFFFF" width="2" height="2"/>
		<rect x="14" y="29.9" fill="#DADADA" width="2" height="2"/>
		<rect x="16" y="29.9" fill="#FFFFFF" width="2" height="2"/>
		<rect x="18" y="29.9" fill="#DADADA" width="2" height="2"/>
		<rect x="20" y="29.9" fill="#FFFFFF" width="2" height="2"/>
		<rect x="22" y="29.9" fill="#DADADA" width="2" height="2"/>
		<rect x="24" y="29.9" fill="#FFFFFF" width="2" height="2"/>
		<rect x="26" y="29.9" fill="#DADADA" width="2" height="2"/>
		<rect x="28" y="29.9" fill="#FFFFFF" width="2" height="2"/>
		<rect x="30" y="29.9" fill="#DADADA" width="2" height="2"/>
	</g>
</g>
<g id="BG" display="none">
	<rect x="-233" y="-175.7" display="inline" width="314" height="521.3"/>
</g>
<g id="ICONS">
	<g>
		<path fill="#FFFFFF" d="M26,3h-1c0-0.6-0.4-1-1-1s-1,0.4-1,1h-2c0-0.6-0.4-1-1-1s-1,0.4-1,1h-2c0-0.6-0.4-1-1-1s-1,0.4-1,1h-2
			c0-0.6-0.4-1-1-1s-1,0.4-1,1H9c0-0.6-0.4-1-1-1S7,2.4,7,3H6C3.8,3,2,4.8,2,7v19c0,2.2,1.8,4,4,4h20c2.2,0,4-1.8,4-4V7
			C30,4.8,28.2,3,26,3z M4,7c0-1.1,0.9-2,2-2h1v1c0,0.6,0.4,1,1,1s1-0.4,1-1V5h2v1c0,0.6,0.4,1,1,1s1-0.4,1-1V5h2v1c0,0.6,0.4,1,1,1
			s1-0.4,1-1V5h2v1c0,0.6,0.4,1,1,1s1-0.4,1-1V5h2v1c0,0.6,0.4,1,1,1s1-0.4,1-1V5h1c1.1,0,2,0.9,2,2v2.5H4V7z M28,26
			c0,1.1-0.9,2-2,2H6c-1.1,0-2-0.9-2-2V10.5h24V26z"/>
		<path fill="#FFFFFF" d="M6,26.5h20c0.3,0,0.5-0.2,0.5-0.5V14c0-0.3-0.2-0.5-0.5-0.5H6c-0.3,0-0.5,0.2-0.5,0.5v12
			C5.5,26.3,5.7,26.5,6,26.5z M18.5,20.5h3v2h-3V20.5z M17.5,22.5h-3v-2h3V22.5z M22.5,20.5h3v2h-3V20.5z M22.5,19.5v-2h3v2H22.5z
			 M21.5,19.5h-3v-2h3V19.5z M17.5,19.5h-3v-2h3V19.5z M13.5,19.5h-3v-2h3V19.5z M9.5,19.5h-3v-2h3V19.5z M9.5,20.5v2h-3v-2H9.5z
			 M10.5,20.5h3v2h-3V20.5z M13.5,23.5v2h-3v-2H13.5z M14.5,23.5h3v2h-3V23.5z M18.5,23.5h3v2h-3V23.5z M22.5,23.5h3v2h-3V23.5z
			 M25.5,16.5h-3v-2h3V16.5z M21.5,16.5h-3v-2h3V16.5z M17.5,16.5h-3v-2h3V16.5z M13.5,16.5h-3v-2h3V16.5z M9.5,16.5h-3v-2h3V16.5z
			 M6.5,23.5h3v2h-3V23.5z"/>
	</g>
</g>
<g id="txt" display="none">
	<g display="inline">
		<g>
		</g>
	</g>
</g>
</svg>
