<?xml version="1.0" encoding="utf-8"?>
<!-- Generator: Adobe Illustrator 16.0.0, SVG Export Plug-In . SVG Version: 6.00 Build 0)  -->
<!DOCTYPE svg PUBLIC "-//W3C//DTD SVG 1.1//EN" "http://www.w3.org/Graphics/SVG/1.1/DTD/svg11.dtd">
<svg version="1.1" xmlns="http://www.w3.org/2000/svg" xmlns:xlink="http://www.w3.org/1999/xlink" x="0px" y="0px" width="32px"
	 height="32px" viewBox="0 0 32 32" enable-background="new 0 0 32 32" xml:space="preserve">
<g id="grids" display="none">
	<g display="inline">
		<rect x="0" y="0" fill="#DADADA" width="2" height="2"/>
		<rect x="2" y="0" fill="#FFFFFF" width="2" height="2"/>
		<rect x="4" y="0" fill="#DADADA" width="2" height="2"/>
		<rect x="6" y="0" fill="#FFFFFF" width="2" height="2"/>
		<rect x="8" y="0" fill="#DADADA" width="2" height="2"/>
		<rect x="10" y="0" fill="#FFFFFF" width="2" height="2"/>
		<rect x="12" y="0" fill="#DADADA" width="2" height="2"/>
		<rect x="14" y="0" fill="#FFFFFF" width="2" height="2"/>
		<rect x="16" y="0" fill="#DADADA" width="2" height="2"/>
		<rect x="18" y="0" fill="#FFFFFF" width="2" height="2"/>
		<rect x="20" y="0" fill="#DADADA" width="2" height="2"/>
		<rect x="22" y="0" fill="#FFFFFF" width="2" height="2"/>
		<rect x="24" y="0" fill="#DADADA" width="2" height="2"/>
		<rect x="26" y="0" fill="#FFFFFF" width="2" height="2"/>
		<rect x="28" y="0" fill="#DADADA" width="2" height="2"/>
		<rect x="30" y="0" fill="#FFFFFF" width="2" height="2"/>
		<rect x="0" y="2" fill="#FFFFFF" width="2" height="2"/>
		<rect x="2" y="2" fill="#DADADA" width="2" height="2"/>
		<rect x="4" y="2" fill="#FFFFFF" width="2" height="2"/>
		<rect x="6" y="2" fill="#DADADA" width="2" height="2"/>
		<rect x="8" y="2" fill="#FFFFFF" width="2" height="2"/>
		<rect x="10" y="2" fill="#DADADA" width="2" height="2"/>
		<rect x="12" y="2" fill="#FFFFFF" width="2" height="2"/>
		<rect x="14" y="2" fill="#DADADA" width="2" height="2"/>
		<rect x="16" y="2" fill="#FFFFFF" width="2" height="2"/>
		<rect x="18" y="2" fill="#DADADA" width="2" height="2"/>
		<rect x="20" y="2" fill="#FFFFFF" width="2" height="2"/>
		<rect x="22" y="2" fill="#DADADA" width="2" height="2"/>
		<rect x="24" y="2" fill="#FFFFFF" width="2" height="2"/>
		<rect x="26" y="2" fill="#DADADA" width="2" height="2"/>
		<rect x="28" y="2" fill="#FFFFFF" width="2" height="2"/>
		<rect x="30" y="2" fill="#DADADA" width="2" height="2"/>
		<rect x="0" y="4" fill="#DADADA" width="2" height="2"/>
		<rect x="2" y="4" fill="#FFFFFF" width="2" height="2"/>
		<rect x="4" y="4" fill="#DADADA" width="2" height="2"/>
		<rect x="6" y="4" fill="#FFFFFF" width="2" height="2"/>
		<rect x="8" y="4" fill="#DADADA" width="2" height="2"/>
		<rect x="10" y="4" fill="#FFFFFF" width="2" height="2"/>
		<rect x="12" y="4" fill="#DADADA" width="2" height="2"/>
		<rect x="14" y="4" fill="#FFFFFF" width="2" height="2"/>
		<rect x="16" y="4" fill="#DADADA" width="2" height="2"/>
		<rect x="18" y="4" fill="#FFFFFF" width="2" height="2"/>
		<rect x="20" y="4" fill="#DADADA" width="2" height="2"/>
		<rect x="22" y="4" fill="#FFFFFF" width="2" height="2"/>
		<rect x="24" y="4" fill="#DADADA" width="2" height="2"/>
		<rect x="26" y="4" fill="#FFFFFF" width="2" height="2"/>
		<rect x="28" y="4" fill="#DADADA" width="2" height="2"/>
		<rect x="30" y="4" fill="#FFFFFF" width="2" height="2"/>
		<rect x="0" y="6" fill="#FFFFFF" width="2" height="2"/>
		<rect x="2" y="6" fill="#DADADA" width="2" height="2"/>
		<rect x="4" y="6" fill="#FFFFFF" width="2" height="2"/>
		<rect x="6" y="6" fill="#DADADA" width="2" height="2"/>
		<rect x="8" y="6" fill="#FFFFFF" width="2" height="2"/>
		<rect x="10" y="6" fill="#DADADA" width="2" height="2"/>
		<rect x="12" y="6" fill="#FFFFFF" width="2" height="2"/>
		<rect x="14" y="6" fill="#DADADA" width="2" height="2"/>
		<rect x="16" y="6" fill="#FFFFFF" width="2" height="2"/>
		<rect x="18" y="6" fill="#DADADA" width="2" height="2"/>
		<rect x="20" y="6" fill="#FFFFFF" width="2" height="2"/>
		<rect x="22" y="6" fill="#DADADA" width="2" height="2"/>
		<rect x="24" y="6" fill="#FFFFFF" width="2" height="2"/>
		<rect x="26" y="6" fill="#DADADA" width="2" height="2"/>
		<rect x="28" y="6" fill="#FFFFFF" width="2" height="2"/>
		<rect x="30" y="6" fill="#DADADA" width="2" height="2"/>
		<rect x="0" y="8" fill="#DADADA" width="2" height="2"/>
		<rect x="2" y="8" fill="#FFFFFF" width="2" height="2"/>
		<rect x="4" y="8" fill="#DADADA" width="2" height="2"/>
		<rect x="6" y="8" fill="#FFFFFF" width="2" height="2"/>
		<rect x="8" y="8" fill="#DADADA" width="2" height="2"/>
		<rect x="10" y="8" fill="#FFFFFF" width="2" height="2"/>
		<rect x="12" y="8" fill="#DADADA" width="2" height="2"/>
		<rect x="14" y="8" fill="#FFFFFF" width="2" height="2"/>
		<rect x="16" y="8" fill="#DADADA" width="2" height="2"/>
		<rect x="18" y="8" fill="#FFFFFF" width="2" height="2"/>
		<rect x="20" y="8" fill="#DADADA" width="2" height="2"/>
		<rect x="22" y="8" fill="#FFFFFF" width="2" height="2"/>
		<rect x="24" y="8" fill="#DADADA" width="2" height="2"/>
		<rect x="26" y="8" fill="#FFFFFF" width="2" height="2"/>
		<rect x="28" y="8" fill="#DADADA" width="2" height="2"/>
		<rect x="30" y="8" fill="#FFFFFF" width="2" height="2"/>
		<rect x="0" y="10" fill="#FFFFFF" width="2" height="2"/>
		<rect x="2" y="10" fill="#DADADA" width="2" height="2"/>
		<rect x="4" y="10" fill="#FFFFFF" width="2" height="2"/>
		<rect x="6" y="10" fill="#DADADA" width="2" height="2"/>
		<rect x="8" y="10" fill="#FFFFFF" width="2" height="2"/>
		<rect x="10" y="10" fill="#DADADA" width="2" height="2"/>
		<rect x="12" y="10" fill="#FFFFFF" width="2" height="2"/>
		<rect x="14" y="10" fill="#DADADA" width="2" height="2"/>
		<rect x="16" y="10" fill="#FFFFFF" width="2" height="2"/>
		<rect x="18" y="10" fill="#DADADA" width="2" height="2"/>
		<rect x="20" y="10" fill="#FFFFFF" width="2" height="2"/>
		<rect x="22" y="10" fill="#DADADA" width="2" height="2"/>
		<rect x="24" y="10" fill="#FFFFFF" width="2" height="2"/>
		<rect x="26" y="10" fill="#DADADA" width="2" height="2"/>
		<rect x="28" y="10" fill="#FFFFFF" width="2" height="2"/>
		<rect x="30" y="10" fill="#DADADA" width="2" height="2"/>
		<rect x="0" y="12" fill="#DADADA" width="2" height="2"/>
		<rect x="2" y="12" fill="#FFFFFF" width="2" height="2"/>
		<rect x="4" y="12" fill="#DADADA" width="2" height="2"/>
		<rect x="6" y="12" fill="#FFFFFF" width="2" height="2"/>
		<rect x="8" y="12" fill="#DADADA" width="2" height="2"/>
		<rect x="10" y="12" fill="#FFFFFF" width="2" height="2"/>
		<rect x="12" y="12" fill="#DADADA" width="2" height="2"/>
		<rect x="14" y="12" fill="#FFFFFF" width="2" height="2"/>
		<rect x="16" y="12" fill="#DADADA" width="2" height="2"/>
		<rect x="18" y="12" fill="#FFFFFF" width="2" height="2"/>
		<rect x="20" y="12" fill="#DADADA" width="2" height="2"/>
		<rect x="22" y="12" fill="#FFFFFF" width="2" height="2"/>
		<rect x="24" y="12" fill="#DADADA" width="2" height="2"/>
		<rect x="26" y="12" fill="#FFFFFF" width="2" height="2"/>
		<rect x="28" y="12" fill="#DADADA" width="2" height="2"/>
		<rect x="30" y="12" fill="#FFFFFF" width="2" height="2"/>
		<rect x="0" y="14" fill="#FFFFFF" width="2" height="2"/>
		<rect x="2" y="14" fill="#DADADA" width="2" height="2"/>
		<rect x="4" y="14" fill="#FFFFFF" width="2" height="2"/>
		<rect x="6" y="14" fill="#DADADA" width="2" height="2"/>
		<rect x="8" y="14" fill="#FFFFFF" width="2" height="2"/>
		<rect x="10" y="14" fill="#DADADA" width="2" height="2"/>
		<rect x="12" y="14" fill="#FFFFFF" width="2" height="2"/>
		<rect x="14" y="14" fill="#DADADA" width="2" height="2"/>
		<rect x="16" y="14" fill="#FFFFFF" width="2" height="2"/>
		<rect x="18" y="14" fill="#DADADA" width="2" height="2"/>
		<rect x="20" y="14" fill="#FFFFFF" width="2" height="2"/>
		<rect x="22" y="14" fill="#DADADA" width="2" height="2"/>
		<rect x="24" y="14" fill="#FFFFFF" width="2" height="2"/>
		<rect x="26" y="14" fill="#DADADA" width="2" height="2"/>
		<rect x="28" y="14" fill="#FFFFFF" width="2" height="2"/>
		<rect x="30" y="14" fill="#DADADA" width="2" height="2"/>
		<rect x="0" y="16" fill="#DADADA" width="2" height="2"/>
		<rect x="2" y="16" fill="#FFFFFF" width="2" height="2"/>
		<rect x="4" y="16" fill="#DADADA" width="2" height="2"/>
		<rect x="6" y="16" fill="#FFFFFF" width="2" height="2"/>
		<rect x="8" y="16" fill="#DADADA" width="2" height="2"/>
		<rect x="10" y="16" fill="#FFFFFF" width="2" height="2"/>
		<rect x="12" y="16" fill="#DADADA" width="2" height="2"/>
		<rect x="14" y="16" fill="#FFFFFF" width="2" height="2"/>
		<rect x="16" y="16" fill="#DADADA" width="2" height="2"/>
		<rect x="18" y="16" fill="#FFFFFF" width="2" height="2"/>
		<rect x="20" y="16" fill="#DADADA" width="2" height="2"/>
		<rect x="22" y="16" fill="#FFFFFF" width="2" height="2"/>
		<rect x="24" y="16" fill="#DADADA" width="2" height="2"/>
		<rect x="26" y="16" fill="#FFFFFF" width="2" height="2"/>
		<rect x="28" y="16" fill="#DADADA" width="2" height="2"/>
		<rect x="30" y="16" fill="#FFFFFF" width="2" height="2"/>
		<rect x="0" y="18" fill="#FFFFFF" width="2" height="2"/>
		<rect x="2" y="18" fill="#DADADA" width="2" height="2"/>
		<rect x="4" y="18" fill="#FFFFFF" width="2" height="2"/>
		<rect x="6" y="18" fill="#DADADA" width="2" height="2"/>
		<rect x="8" y="18" fill="#FFFFFF" width="2" height="2"/>
		<rect x="10" y="18" fill="#DADADA" width="2" height="2"/>
		<rect x="12" y="18" fill="#FFFFFF" width="2" height="2"/>
		<rect x="14" y="18" fill="#DADADA" width="2" height="2"/>
		<rect x="16" y="18" fill="#FFFFFF" width="2" height="2"/>
		<rect x="18" y="18" fill="#DADADA" width="2" height="2"/>
		<rect x="20" y="18" fill="#FFFFFF" width="2" height="2"/>
		<rect x="22" y="18" fill="#DADADA" width="2" height="2"/>
		<rect x="24" y="18" fill="#FFFFFF" width="2" height="2"/>
		<rect x="26" y="18" fill="#DADADA" width="2" height="2"/>
		<rect x="28" y="18" fill="#FFFFFF" width="2" height="2"/>
		<rect x="30" y="18" fill="#DADADA" width="2" height="2"/>
		<rect x="0" y="20" fill="#DADADA" width="2" height="2"/>
		<rect x="2" y="20" fill="#FFFFFF" width="2" height="2"/>
		<rect x="4" y="20" fill="#DADADA" width="2" height="2"/>
		<rect x="6" y="20" fill="#FFFFFF" width="2" height="2"/>
		<rect x="8" y="20" fill="#DADADA" width="2" height="2"/>
		<rect x="10" y="20" fill="#FFFFFF" width="2" height="2"/>
		<rect x="12" y="20" fill="#DADADA" width="2" height="2"/>
		<rect x="14" y="20" fill="#FFFFFF" width="2" height="2"/>
		<rect x="16" y="20" fill="#DADADA" width="2" height="2"/>
		<rect x="18" y="20" fill="#FFFFFF" width="2" height="2"/>
		<rect x="20" y="20" fill="#DADADA" width="2" height="2"/>
		<rect x="22" y="20" fill="#FFFFFF" width="2" height="2"/>
		<rect x="24" y="20" fill="#DADADA" width="2" height="2"/>
		<rect x="26" y="20" fill="#FFFFFF" width="2" height="2"/>
		<rect x="28" y="20" fill="#DADADA" width="2" height="2"/>
		<rect x="30" y="20" fill="#FFFFFF" width="2" height="2"/>
		<rect x="0" y="22" fill="#FFFFFF" width="2" height="2"/>
		<rect x="2" y="22" fill="#DADADA" width="2" height="2"/>
		<rect x="4" y="22" fill="#FFFFFF" width="2" height="2"/>
		<rect x="6" y="22" fill="#DADADA" width="2" height="2"/>
		<rect x="8" y="22" fill="#FFFFFF" width="2" height="2"/>
		<rect x="10" y="22" fill="#DADADA" width="2" height="2"/>
		<rect x="12" y="22" fill="#FFFFFF" width="2" height="2"/>
		<rect x="14" y="22" fill="#DADADA" width="2" height="2"/>
		<rect x="16" y="22" fill="#FFFFFF" width="2" height="2"/>
		<rect x="18" y="22" fill="#DADADA" width="2" height="2"/>
		<rect x="20" y="22" fill="#FFFFFF" width="2" height="2"/>
		<rect x="22" y="22" fill="#DADADA" width="2" height="2"/>
		<rect x="24" y="22" fill="#FFFFFF" width="2" height="2"/>
		<rect x="26" y="22" fill="#DADADA" width="2" height="2"/>
		<rect x="28" y="22" fill="#FFFFFF" width="2" height="2"/>
		<rect x="30" y="22" fill="#DADADA" width="2" height="2"/>
		<rect x="0" y="24" fill="#DADADA" width="2" height="2"/>
		<rect x="2" y="24" fill="#FFFFFF" width="2" height="2"/>
		<rect x="4" y="24" fill="#DADADA" width="2" height="2"/>
		<rect x="6" y="24" fill="#FFFFFF" width="2" height="2"/>
		<rect x="8" y="24" fill="#DADADA" width="2" height="2"/>
		<rect x="10" y="24" fill="#FFFFFF" width="2" height="2"/>
		<rect x="12" y="24" fill="#DADADA" width="2" height="2"/>
		<rect x="14" y="24" fill="#FFFFFF" width="2" height="2"/>
		<rect x="16" y="24" fill="#DADADA" width="2" height="2"/>
		<rect x="18" y="24" fill="#FFFFFF" width="2" height="2"/>
		<rect x="20" y="24" fill="#DADADA" width="2" height="2"/>
		<rect x="22" y="24" fill="#FFFFFF" width="2" height="2"/>
		<rect x="24" y="24" fill="#DADADA" width="2" height="2"/>
		<rect x="26" y="24" fill="#FFFFFF" width="2" height="2"/>
		<rect x="28" y="24" fill="#DADADA" width="2" height="2"/>
		<rect x="30" y="24" fill="#FFFFFF" width="2" height="2"/>
		<rect x="0" y="26" fill="#FFFFFF" width="2" height="2"/>
		<rect x="2" y="26" fill="#DADADA" width="2" height="2"/>
		<rect x="4" y="26" fill="#FFFFFF" width="2" height="2"/>
		<rect x="6" y="26" fill="#DADADA" width="2" height="2"/>
		<rect x="8" y="26" fill="#FFFFFF" width="2" height="2"/>
		<rect x="10" y="26" fill="#DADADA" width="2" height="2"/>
		<rect x="12" y="26" fill="#FFFFFF" width="2" height="2"/>
		<rect x="14" y="26" fill="#DADADA" width="2" height="2"/>
		<rect x="16" y="26" fill="#FFFFFF" width="2" height="2"/>
		<rect x="18" y="26" fill="#DADADA" width="2" height="2"/>
		<rect x="20" y="26" fill="#FFFFFF" width="2" height="2"/>
		<rect x="22" y="26" fill="#DADADA" width="2" height="2"/>
		<rect x="24" y="26" fill="#FFFFFF" width="2" height="2"/>
		<rect x="26" y="26" fill="#DADADA" width="2" height="2"/>
		<rect x="28" y="26" fill="#FFFFFF" width="2" height="2"/>
		<rect x="30" y="26" fill="#DADADA" width="2" height="2"/>
		<rect x="0" y="28" fill="#DADADA" width="2" height="2"/>
		<rect x="2" y="28" fill="#FFFFFF" width="2" height="2"/>
		<rect x="4" y="28" fill="#DADADA" width="2" height="2"/>
		<rect x="6" y="28" fill="#FFFFFF" width="2" height="2"/>
		<rect x="8" y="28" fill="#DADADA" width="2" height="2"/>
		<rect x="10" y="28" fill="#FFFFFF" width="2" height="2"/>
		<rect x="12" y="28" fill="#DADADA" width="2" height="2"/>
		<rect x="14" y="28" fill="#FFFFFF" width="2" height="2"/>
		<rect x="16" y="28" fill="#DADADA" width="2" height="2"/>
		<rect x="18" y="28" fill="#FFFFFF" width="2" height="2"/>
		<rect x="20" y="28" fill="#DADADA" width="2" height="2"/>
		<rect x="22" y="28" fill="#FFFFFF" width="2" height="2"/>
		<rect x="24" y="28" fill="#DADADA" width="2" height="2"/>
		<rect x="26" y="28" fill="#FFFFFF" width="2" height="2"/>
		<rect x="28" y="28" fill="#DADADA" width="2" height="2"/>
		<rect x="30" y="28" fill="#FFFFFF" width="2" height="2"/>
		<rect x="0" y="30" fill="#FFFFFF" width="2" height="2"/>
		<rect x="2" y="30" fill="#DADADA" width="2" height="2"/>
		<rect x="4" y="30" fill="#FFFFFF" width="2" height="2"/>
		<rect x="6" y="30" fill="#DADADA" width="2" height="2"/>
		<rect x="8" y="30" fill="#FFFFFF" width="2" height="2"/>
		<rect x="10" y="30" fill="#DADADA" width="2" height="2"/>
		<rect x="12" y="30" fill="#FFFFFF" width="2" height="2"/>
		<rect x="14" y="30" fill="#DADADA" width="2" height="2"/>
		<rect x="16" y="30" fill="#FFFFFF" width="2" height="2"/>
		<rect x="18" y="30" fill="#DADADA" width="2" height="2"/>
		<rect x="20" y="30" fill="#FFFFFF" width="2" height="2"/>
		<rect x="22" y="30" fill="#DADADA" width="2" height="2"/>
		<rect x="24" y="30" fill="#FFFFFF" width="2" height="2"/>
		<rect x="26" y="30" fill="#DADADA" width="2" height="2"/>
		<rect x="28" y="30" fill="#FFFFFF" width="2" height="2"/>
		<rect x="30" y="30" fill="#DADADA" width="2" height="2"/>
	</g>
</g>
<g id="BG" display="none">
	<rect x="-233" y="-279.7" display="inline" width="314" height="521.3"/>
</g>
<g id="ICONS">
	<g>
		<path fill="#FFFFFF" d="M25,2H8C5.8,2,4,3.8,4,6v1C3.4,7,3,7.4,3,8s0.4,1,1,1v2c-0.6,0-1,0.4-1,1s0.4,1,1,1v2c-0.6,0-1,0.4-1,1
			s0.4,1,1,1v2c-0.6,0-1,0.4-1,1s0.4,1,1,1v2c-0.6,0-1,0.4-1,1s0.4,1,1,1v1c0,2.2,1.8,4,4,4h17c2.2,0,4-1.8,4-4V6
			C29,3.8,27.2,2,25,2z M27,26c0,1.1-0.9,2-2,2H8c-1.1,0-2-0.9-2-2v-1h1c0.6,0,1-0.4,1-1s-0.4-1-1-1H6v-2h1c0.6,0,1-0.4,1-1
			s-0.4-1-1-1H6v-2h1c0.6,0,1-0.4,1-1s-0.4-1-1-1H6v-2h1c0.6,0,1-0.4,1-1s-0.4-1-1-1H6V9h1c0.6,0,1-0.4,1-1S7.6,7,7,7H6V6
			c0-1.1,0.9-2,2-2h17c1.1,0,2,0.9,2,2V26z"/>
		<path fill="#FFFFFF" d="M24,13h-4c-0.5,0-1,0.5-1,1v4c0,0.5,0.5,1,1,1h4c0.5,0,1-0.5,1-1v-4C25,13.5,24.5,13,24,13z"/>
		<path fill="#FFFFFF" d="M24,6H11c-0.5,0-1,0.5-1,1v4c0,0.5,0.5,1,1,1h13c0.5,0,1-0.5,1-1V7C25,6.5,24.5,6,24,6z"/>
		<path fill="#FFFFFF" d="M17,13h-6c-0.5,0-1,0.5-1,1v11c0,0.5,0.5,1,1,1h6c0.5,0,1-0.5,1-1V14C18,13.5,17.5,13,17,13z"/>
		<path fill="#FFFFFF" d="M24,20h-4c-0.5,0-1,0.5-1,1v4c0,0.5,0.5,1,1,1h4c0.5,0,1-0.5,1-1v-4C25,20.5,24.5,20,24,20z"/>
	</g>
</g>
<g id="txt" display="none">
	<g display="inline">
		<g>
		</g>
	</g>
</g>
</svg>
