<?xml version="1.0" encoding="utf-8"?>
<!-- Generator: Adobe Illustrator 16.0.0, SVG Export Plug-In . SVG Version: 6.00 Build 0)  -->
<!DOCTYPE svg PUBLIC "-//W3C//DTD SVG 1.1//EN" "http://www.w3.org/Graphics/SVG/1.1/DTD/svg11.dtd">
<svg version="1.1" xmlns="http://www.w3.org/2000/svg" xmlns:xlink="http://www.w3.org/1999/xlink" x="0px" y="0px" width="32px"
	 height="32px" viewBox="0 0 32 32" enable-background="new 0 0 32 32" xml:space="preserve">
<g id="grids" display="none">
	<g display="inline">
		<rect x="0" y="-0.1" fill="#DADADA" width="2" height="2"/>
		<rect x="2" y="-0.1" fill="#FFFFFF" width="2" height="2"/>
		<rect x="4" y="-0.1" fill="#DADADA" width="2" height="2"/>
		<rect x="6" y="-0.1" fill="#FFFFFF" width="2" height="2"/>
		<rect x="8" y="-0.1" fill="#DADADA" width="2" height="2"/>
		<rect x="10" y="-0.1" fill="#FFFFFF" width="2" height="2"/>
		<rect x="12" y="-0.1" fill="#DADADA" width="2" height="2"/>
		<rect x="14" y="-0.1" fill="#FFFFFF" width="2" height="2"/>
		<rect x="16" y="-0.1" fill="#DADADA" width="2" height="2"/>
		<rect x="18" y="-0.1" fill="#FFFFFF" width="2" height="2"/>
		<rect x="20" y="-0.1" fill="#DADADA" width="2" height="2"/>
		<rect x="22" y="-0.1" fill="#FFFFFF" width="2" height="2"/>
		<rect x="24" y="-0.1" fill="#DADADA" width="2" height="2"/>
		<rect x="26" y="-0.1" fill="#FFFFFF" width="2" height="2"/>
		<rect x="28" y="-0.1" fill="#DADADA" width="2" height="2"/>
		<rect x="30" y="-0.1" fill="#FFFFFF" width="2" height="2"/>
		<rect x="0" y="1.9" fill="#FFFFFF" width="2" height="2"/>
		<rect x="2" y="1.9" fill="#DADADA" width="2" height="2"/>
		<rect x="4" y="1.9" fill="#FFFFFF" width="2" height="2"/>
		<rect x="6" y="1.9" fill="#DADADA" width="2" height="2"/>
		<rect x="8" y="1.9" fill="#FFFFFF" width="2" height="2"/>
		<rect x="10" y="1.9" fill="#DADADA" width="2" height="2"/>
		<rect x="12" y="1.9" fill="#FFFFFF" width="2" height="2"/>
		<rect x="14" y="1.9" fill="#DADADA" width="2" height="2"/>
		<rect x="16" y="1.9" fill="#FFFFFF" width="2" height="2"/>
		<rect x="18" y="1.9" fill="#DADADA" width="2" height="2"/>
		<rect x="20" y="1.9" fill="#FFFFFF" width="2" height="2"/>
		<rect x="22" y="1.9" fill="#DADADA" width="2" height="2"/>
		<rect x="24" y="1.9" fill="#FFFFFF" width="2" height="2"/>
		<rect x="26" y="1.9" fill="#DADADA" width="2" height="2"/>
		<rect x="28" y="1.9" fill="#FFFFFF" width="2" height="2"/>
		<rect x="30" y="1.9" fill="#DADADA" width="2" height="2"/>
		<rect x="0" y="3.9" fill="#DADADA" width="2" height="2"/>
		<rect x="2" y="3.9" fill="#FFFFFF" width="2" height="2"/>
		<rect x="4" y="3.9" fill="#DADADA" width="2" height="2"/>
		<rect x="6" y="3.9" fill="#FFFFFF" width="2" height="2"/>
		<rect x="8" y="3.9" fill="#DADADA" width="2" height="2"/>
		<rect x="10" y="3.9" fill="#FFFFFF" width="2" height="2"/>
		<rect x="12" y="3.9" fill="#DADADA" width="2" height="2"/>
		<rect x="14" y="3.9" fill="#FFFFFF" width="2" height="2"/>
		<rect x="16" y="3.9" fill="#DADADA" width="2" height="2"/>
		<rect x="18" y="3.9" fill="#FFFFFF" width="2" height="2"/>
		<rect x="20" y="3.9" fill="#DADADA" width="2" height="2"/>
		<rect x="22" y="3.9" fill="#FFFFFF" width="2" height="2"/>
		<rect x="24" y="3.9" fill="#DADADA" width="2" height="2"/>
		<rect x="26" y="3.9" fill="#FFFFFF" width="2" height="2"/>
		<rect x="28" y="3.9" fill="#DADADA" width="2" height="2"/>
		<rect x="30" y="3.9" fill="#FFFFFF" width="2" height="2"/>
		<rect x="0" y="5.9" fill="#FFFFFF" width="2" height="2"/>
		<rect x="2" y="5.9" fill="#DADADA" width="2" height="2"/>
		<rect x="4" y="5.9" fill="#FFFFFF" width="2" height="2"/>
		<rect x="6" y="5.9" fill="#DADADA" width="2" height="2"/>
		<rect x="8" y="5.9" fill="#FFFFFF" width="2" height="2"/>
		<rect x="10" y="5.9" fill="#DADADA" width="2" height="2"/>
		<rect x="12" y="5.9" fill="#FFFFFF" width="2" height="2"/>
		<rect x="14" y="5.9" fill="#DADADA" width="2" height="2"/>
		<rect x="16" y="5.9" fill="#FFFFFF" width="2" height="2"/>
		<rect x="18" y="5.9" fill="#DADADA" width="2" height="2"/>
		<rect x="20" y="5.9" fill="#FFFFFF" width="2" height="2"/>
		<rect x="22" y="5.9" fill="#DADADA" width="2" height="2"/>
		<rect x="24" y="5.9" fill="#FFFFFF" width="2" height="2"/>
		<rect x="26" y="5.9" fill="#DADADA" width="2" height="2"/>
		<rect x="28" y="5.9" fill="#FFFFFF" width="2" height="2"/>
		<rect x="30" y="5.9" fill="#DADADA" width="2" height="2"/>
		<rect x="0" y="7.9" fill="#DADADA" width="2" height="2"/>
		<rect x="2" y="7.9" fill="#FFFFFF" width="2" height="2"/>
		<rect x="4" y="7.9" fill="#DADADA" width="2" height="2"/>
		<rect x="6" y="7.9" fill="#FFFFFF" width="2" height="2"/>
		<rect x="8" y="7.9" fill="#DADADA" width="2" height="2"/>
		<rect x="10" y="7.9" fill="#FFFFFF" width="2" height="2"/>
		<rect x="12" y="7.9" fill="#DADADA" width="2" height="2"/>
		<rect x="14" y="7.9" fill="#FFFFFF" width="2" height="2"/>
		<rect x="16" y="7.9" fill="#DADADA" width="2" height="2"/>
		<rect x="18" y="7.9" fill="#FFFFFF" width="2" height="2"/>
		<rect x="20" y="7.9" fill="#DADADA" width="2" height="2"/>
		<rect x="22" y="7.9" fill="#FFFFFF" width="2" height="2"/>
		<rect x="24" y="7.9" fill="#DADADA" width="2" height="2"/>
		<rect x="26" y="7.9" fill="#FFFFFF" width="2" height="2"/>
		<rect x="28" y="7.9" fill="#DADADA" width="2" height="2"/>
		<rect x="30" y="7.9" fill="#FFFFFF" width="2" height="2"/>
		<rect x="0" y="9.9" fill="#FFFFFF" width="2" height="2"/>
		<rect x="2" y="9.9" fill="#DADADA" width="2" height="2"/>
		<rect x="4" y="9.9" fill="#FFFFFF" width="2" height="2"/>
		<rect x="6" y="9.9" fill="#DADADA" width="2" height="2"/>
		<rect x="8" y="9.9" fill="#FFFFFF" width="2" height="2"/>
		<rect x="10" y="9.9" fill="#DADADA" width="2" height="2"/>
		<rect x="12" y="9.9" fill="#FFFFFF" width="2" height="2"/>
		<rect x="14" y="9.9" fill="#DADADA" width="2" height="2"/>
		<rect x="16" y="9.9" fill="#FFFFFF" width="2" height="2"/>
		<rect x="18" y="9.9" fill="#DADADA" width="2" height="2"/>
		<rect x="20" y="9.9" fill="#FFFFFF" width="2" height="2"/>
		<rect x="22" y="9.9" fill="#DADADA" width="2" height="2"/>
		<rect x="24" y="9.9" fill="#FFFFFF" width="2" height="2"/>
		<rect x="26" y="9.9" fill="#DADADA" width="2" height="2"/>
		<rect x="28" y="9.9" fill="#FFFFFF" width="2" height="2"/>
		<rect x="30" y="9.9" fill="#DADADA" width="2" height="2"/>
		<rect x="0" y="11.9" fill="#DADADA" width="2" height="2"/>
		<rect x="2" y="11.9" fill="#FFFFFF" width="2" height="2"/>
		<rect x="4" y="11.9" fill="#DADADA" width="2" height="2"/>
		<rect x="6" y="11.9" fill="#FFFFFF" width="2" height="2"/>
		<rect x="8" y="11.9" fill="#DADADA" width="2" height="2"/>
		<rect x="10" y="11.9" fill="#FFFFFF" width="2" height="2"/>
		<rect x="12" y="11.9" fill="#DADADA" width="2" height="2"/>
		<rect x="14" y="11.9" fill="#FFFFFF" width="2" height="2"/>
		<rect x="16" y="11.9" fill="#DADADA" width="2" height="2"/>
		<rect x="18" y="11.9" fill="#FFFFFF" width="2" height="2"/>
		<rect x="20" y="11.9" fill="#DADADA" width="2" height="2"/>
		<rect x="22" y="11.9" fill="#FFFFFF" width="2" height="2"/>
		<rect x="24" y="11.9" fill="#DADADA" width="2" height="2"/>
		<rect x="26" y="11.9" fill="#FFFFFF" width="2" height="2"/>
		<rect x="28" y="11.9" fill="#DADADA" width="2" height="2"/>
		<rect x="30" y="11.9" fill="#FFFFFF" width="2" height="2"/>
		<rect x="0" y="13.9" fill="#FFFFFF" width="2" height="2"/>
		<rect x="2" y="13.9" fill="#DADADA" width="2" height="2"/>
		<rect x="4" y="13.9" fill="#FFFFFF" width="2" height="2"/>
		<rect x="6" y="13.9" fill="#DADADA" width="2" height="2"/>
		<rect x="8" y="13.9" fill="#FFFFFF" width="2" height="2"/>
		<rect x="10" y="13.9" fill="#DADADA" width="2" height="2"/>
		<rect x="12" y="13.9" fill="#FFFFFF" width="2" height="2"/>
		<rect x="14" y="13.9" fill="#DADADA" width="2" height="2"/>
		<rect x="16" y="13.9" fill="#FFFFFF" width="2" height="2"/>
		<rect x="18" y="13.9" fill="#DADADA" width="2" height="2"/>
		<rect x="20" y="13.9" fill="#FFFFFF" width="2" height="2"/>
		<rect x="22" y="13.9" fill="#DADADA" width="2" height="2"/>
		<rect x="24" y="13.9" fill="#FFFFFF" width="2" height="2"/>
		<rect x="26" y="13.9" fill="#DADADA" width="2" height="2"/>
		<rect x="28" y="13.9" fill="#FFFFFF" width="2" height="2"/>
		<rect x="30" y="13.9" fill="#DADADA" width="2" height="2"/>
		<rect x="0" y="15.9" fill="#DADADA" width="2" height="2"/>
		<rect x="2" y="15.9" fill="#FFFFFF" width="2" height="2"/>
		<rect x="4" y="15.9" fill="#DADADA" width="2" height="2"/>
		<rect x="6" y="15.9" fill="#FFFFFF" width="2" height="2"/>
		<rect x="8" y="15.9" fill="#DADADA" width="2" height="2"/>
		<rect x="10" y="15.9" fill="#FFFFFF" width="2" height="2"/>
		<rect x="12" y="15.9" fill="#DADADA" width="2" height="2"/>
		<rect x="14" y="15.9" fill="#FFFFFF" width="2" height="2"/>
		<rect x="16" y="15.9" fill="#DADADA" width="2" height="2"/>
		<rect x="18" y="15.9" fill="#FFFFFF" width="2" height="2"/>
		<rect x="20" y="15.9" fill="#DADADA" width="2" height="2"/>
		<rect x="22" y="15.9" fill="#FFFFFF" width="2" height="2"/>
		<rect x="24" y="15.9" fill="#DADADA" width="2" height="2"/>
		<rect x="26" y="15.9" fill="#FFFFFF" width="2" height="2"/>
		<rect x="28" y="15.9" fill="#DADADA" width="2" height="2"/>
		<rect x="30" y="15.9" fill="#FFFFFF" width="2" height="2"/>
		<rect x="0" y="17.9" fill="#FFFFFF" width="2" height="2"/>
		<rect x="2" y="17.9" fill="#DADADA" width="2" height="2"/>
		<rect x="4" y="17.9" fill="#FFFFFF" width="2" height="2"/>
		<rect x="6" y="17.9" fill="#DADADA" width="2" height="2"/>
		<rect x="8" y="17.9" fill="#FFFFFF" width="2" height="2"/>
		<rect x="10" y="17.9" fill="#DADADA" width="2" height="2"/>
		<rect x="12" y="17.9" fill="#FFFFFF" width="2" height="2"/>
		<rect x="14" y="17.9" fill="#DADADA" width="2" height="2"/>
		<rect x="16" y="17.9" fill="#FFFFFF" width="2" height="2"/>
		<rect x="18" y="17.9" fill="#DADADA" width="2" height="2"/>
		<rect x="20" y="17.9" fill="#FFFFFF" width="2" height="2"/>
		<rect x="22" y="17.9" fill="#DADADA" width="2" height="2"/>
		<rect x="24" y="17.9" fill="#FFFFFF" width="2" height="2"/>
		<rect x="26" y="17.9" fill="#DADADA" width="2" height="2"/>
		<rect x="28" y="17.9" fill="#FFFFFF" width="2" height="2"/>
		<rect x="30" y="17.9" fill="#DADADA" width="2" height="2"/>
		<rect x="0" y="19.9" fill="#DADADA" width="2" height="2"/>
		<rect x="2" y="19.9" fill="#FFFFFF" width="2" height="2"/>
		<rect x="4" y="19.9" fill="#DADADA" width="2" height="2"/>
		<rect x="6" y="19.9" fill="#FFFFFF" width="2" height="2"/>
		<rect x="8" y="19.9" fill="#DADADA" width="2" height="2"/>
		<rect x="10" y="19.9" fill="#FFFFFF" width="2" height="2"/>
		<rect x="12" y="19.9" fill="#DADADA" width="2" height="2"/>
		<rect x="14" y="19.9" fill="#FFFFFF" width="2" height="2"/>
		<rect x="16" y="19.9" fill="#DADADA" width="2" height="2"/>
		<rect x="18" y="19.9" fill="#FFFFFF" width="2" height="2"/>
		<rect x="20" y="19.9" fill="#DADADA" width="2" height="2"/>
		<rect x="22" y="19.9" fill="#FFFFFF" width="2" height="2"/>
		<rect x="24" y="19.9" fill="#DADADA" width="2" height="2"/>
		<rect x="26" y="19.9" fill="#FFFFFF" width="2" height="2"/>
		<rect x="28" y="19.9" fill="#DADADA" width="2" height="2"/>
		<rect x="30" y="19.9" fill="#FFFFFF" width="2" height="2"/>
		<rect x="0" y="21.9" fill="#FFFFFF" width="2" height="2"/>
		<rect x="2" y="21.9" fill="#DADADA" width="2" height="2"/>
		<rect x="4" y="21.9" fill="#FFFFFF" width="2" height="2"/>
		<rect x="6" y="21.9" fill="#DADADA" width="2" height="2"/>
		<rect x="8" y="21.9" fill="#FFFFFF" width="2" height="2"/>
		<rect x="10" y="21.9" fill="#DADADA" width="2" height="2"/>
		<rect x="12" y="21.9" fill="#FFFFFF" width="2" height="2"/>
		<rect x="14" y="21.9" fill="#DADADA" width="2" height="2"/>
		<rect x="16" y="21.9" fill="#FFFFFF" width="2" height="2"/>
		<rect x="18" y="21.9" fill="#DADADA" width="2" height="2"/>
		<rect x="20" y="21.9" fill="#FFFFFF" width="2" height="2"/>
		<rect x="22" y="21.9" fill="#DADADA" width="2" height="2"/>
		<rect x="24" y="21.9" fill="#FFFFFF" width="2" height="2"/>
		<rect x="26" y="21.9" fill="#DADADA" width="2" height="2"/>
		<rect x="28" y="21.9" fill="#FFFFFF" width="2" height="2"/>
		<rect x="30" y="21.9" fill="#DADADA" width="2" height="2"/>
		<rect x="0" y="23.9" fill="#DADADA" width="2" height="2"/>
		<rect x="2" y="23.9" fill="#FFFFFF" width="2" height="2"/>
		<rect x="4" y="23.9" fill="#DADADA" width="2" height="2"/>
		<rect x="6" y="23.9" fill="#FFFFFF" width="2" height="2"/>
		<rect x="8" y="23.9" fill="#DADADA" width="2" height="2"/>
		<rect x="10" y="23.9" fill="#FFFFFF" width="2" height="2"/>
		<rect x="12" y="23.9" fill="#DADADA" width="2" height="2"/>
		<rect x="14" y="23.9" fill="#FFFFFF" width="2" height="2"/>
		<rect x="16" y="23.9" fill="#DADADA" width="2" height="2"/>
		<rect x="18" y="23.9" fill="#FFFFFF" width="2" height="2"/>
		<rect x="20" y="23.9" fill="#DADADA" width="2" height="2"/>
		<rect x="22" y="23.9" fill="#FFFFFF" width="2" height="2"/>
		<rect x="24" y="23.9" fill="#DADADA" width="2" height="2"/>
		<rect x="26" y="23.9" fill="#FFFFFF" width="2" height="2"/>
		<rect x="28" y="23.9" fill="#DADADA" width="2" height="2"/>
		<rect x="30" y="23.9" fill="#FFFFFF" width="2" height="2"/>
		<rect x="0" y="25.9" fill="#FFFFFF" width="2" height="2"/>
		<rect x="2" y="25.9" fill="#DADADA" width="2" height="2"/>
		<rect x="4" y="25.9" fill="#FFFFFF" width="2" height="2"/>
		<rect x="6" y="25.9" fill="#DADADA" width="2" height="2"/>
		<rect x="8" y="25.9" fill="#FFFFFF" width="2" height="2"/>
		<rect x="10" y="25.9" fill="#DADADA" width="2" height="2"/>
		<rect x="12" y="25.9" fill="#FFFFFF" width="2" height="2"/>
		<rect x="14" y="25.9" fill="#DADADA" width="2" height="2"/>
		<rect x="16" y="25.9" fill="#FFFFFF" width="2" height="2"/>
		<rect x="18" y="25.9" fill="#DADADA" width="2" height="2"/>
		<rect x="20" y="25.9" fill="#FFFFFF" width="2" height="2"/>
		<rect x="22" y="25.9" fill="#DADADA" width="2" height="2"/>
		<rect x="24" y="25.9" fill="#FFFFFF" width="2" height="2"/>
		<rect x="26" y="25.9" fill="#DADADA" width="2" height="2"/>
		<rect x="28" y="25.9" fill="#FFFFFF" width="2" height="2"/>
		<rect x="30" y="25.9" fill="#DADADA" width="2" height="2"/>
		<rect x="0" y="27.9" fill="#DADADA" width="2" height="2"/>
		<rect x="2" y="27.9" fill="#FFFFFF" width="2" height="2"/>
		<rect x="4" y="27.9" fill="#DADADA" width="2" height="2"/>
		<rect x="6" y="27.9" fill="#FFFFFF" width="2" height="2"/>
		<rect x="8" y="27.9" fill="#DADADA" width="2" height="2"/>
		<rect x="10" y="27.9" fill="#FFFFFF" width="2" height="2"/>
		<rect x="12" y="27.9" fill="#DADADA" width="2" height="2"/>
		<rect x="14" y="27.9" fill="#FFFFFF" width="2" height="2"/>
		<rect x="16" y="27.9" fill="#DADADA" width="2" height="2"/>
		<rect x="18" y="27.9" fill="#FFFFFF" width="2" height="2"/>
		<rect x="20" y="27.9" fill="#DADADA" width="2" height="2"/>
		<rect x="22" y="27.9" fill="#FFFFFF" width="2" height="2"/>
		<rect x="24" y="27.9" fill="#DADADA" width="2" height="2"/>
		<rect x="26" y="27.9" fill="#FFFFFF" width="2" height="2"/>
		<rect x="28" y="27.9" fill="#DADADA" width="2" height="2"/>
		<rect x="30" y="27.9" fill="#FFFFFF" width="2" height="2"/>
		<rect x="0" y="29.9" fill="#FFFFFF" width="2" height="2"/>
		<rect x="2" y="29.9" fill="#DADADA" width="2" height="2"/>
		<rect x="4" y="29.9" fill="#FFFFFF" width="2" height="2"/>
		<rect x="6" y="29.9" fill="#DADADA" width="2" height="2"/>
		<rect x="8" y="29.9" fill="#FFFFFF" width="2" height="2"/>
		<rect x="10" y="29.9" fill="#DADADA" width="2" height="2"/>
		<rect x="12" y="29.9" fill="#FFFFFF" width="2" height="2"/>
		<rect x="14" y="29.9" fill="#DADADA" width="2" height="2"/>
		<rect x="16" y="29.9" fill="#FFFFFF" width="2" height="2"/>
		<rect x="18" y="29.9" fill="#DADADA" width="2" height="2"/>
		<rect x="20" y="29.9" fill="#FFFFFF" width="2" height="2"/>
		<rect x="22" y="29.9" fill="#DADADA" width="2" height="2"/>
		<rect x="24" y="29.9" fill="#FFFFFF" width="2" height="2"/>
		<rect x="26" y="29.9" fill="#DADADA" width="2" height="2"/>
		<rect x="28" y="29.9" fill="#FFFFFF" width="2" height="2"/>
		<rect x="30" y="29.9" fill="#DADADA" width="2" height="2"/>
	</g>
</g>
<g id="BG" display="none">
	<rect x="-129" y="-175.7" display="inline" width="314" height="521.3"/>
</g>
<g id="ICONS">
	<g>
		<path fill="#FFFFFF" d="M24,2H8C5.8,2,4,3.8,4,6v20c0,2.2,1.8,4,4,4h16c2.2,0,4-1.8,4-4V6C28,3.8,26.2,2,24,2z M26,26
			c0,1.1-0.9,2-2,2H8c-1.1,0-2-0.9-2-2V6c0-1.1,0.9-2,2-2h16c1.1,0,2,0.9,2,2V26z"/>
		<path fill="#FFFFFF" d="M9.7,16.2c0-3.4,2.7-6.2,6.1-6.3l-1.4,1.4c-0.4,0.4-0.4,1,0,1.4c0.2,0.2,0.5,0.3,0.7,0.3s0.5-0.1,0.7-0.3
			l2.8-2.8c0.4-0.4,0.4-1,0-1.4l-2.7-2.8c-0.4-0.4-1-0.4-1.4,0c-0.4,0.4-0.4,1,0,1.4l0.8,0.8c-4.2,0.4-7.5,4-7.5,8.3
			c0,2.6,1.2,5,3.2,6.6c0.2,0.1,0.4,0.2,0.6,0.2c0.3,0,0.6-0.1,0.8-0.4c0.3-0.4,0.3-1.1-0.2-1.4C10.6,20,9.7,18.2,9.7,16.2z"/>
		<path fill="#FFFFFF" d="M21,9.2C20.6,8.9,20,9,19.6,9.4c-0.3,0.4-0.3,1.1,0.2,1.4c1.6,1.2,2.5,3,2.5,5c0,3.4-2.6,6.2-6,6.4
			l0.8-0.8c0.4-0.4,0.4-1,0-1.4c-0.4-0.4-1-0.4-1.4,0L13,22.7c-0.4,0.4-0.4,1,0,1.4l2.8,2.8c0.2,0.2,0.5,0.3,0.7,0.3
			s0.5-0.1,0.7-0.3c0.4-0.4,0.4-1,0-1.4l-1.3-1.3c0.1,0,0.2,0.1,0.3,0.1c0,0,0,0,0,0c4.6,0,8.3-3.8,8.2-8.4
			C24.3,13.2,23.1,10.8,21,9.2z M15.1,23.4L15.1,23.4C15.1,23.4,15.1,23.4,15.1,23.4L15.1,23.4z"/>
	</g>
</g>
<g id="txt" display="none">
	<g display="inline">
		<g>
		</g>
	</g>
</g>
</svg>
