<?xml version="1.0" encoding="utf-8"?>
<!-- Generator: Adobe Illustrator 16.0.0, SVG Export Plug-In . SVG Version: 6.00 Build 0)  -->
<!DOCTYPE svg PUBLIC "-//W3C//DTD SVG 1.1//EN" "http://www.w3.org/Graphics/SVG/1.1/DTD/svg11.dtd">
<svg version="1.1" xmlns="http://www.w3.org/2000/svg" xmlns:xlink="http://www.w3.org/1999/xlink" x="0px" y="0px" width="32px"
	 height="32px" viewBox="0 0 32 32" enable-background="new 0 0 32 32" xml:space="preserve">
<g id="grids" display="none">
	<g display="inline">
		<rect x="0" y="-0.1" fill="#DADADA" width="2" height="2"/>
		<rect x="2" y="-0.1" fill="#FFFFFF" width="2" height="2"/>
		<rect x="4" y="-0.1" fill="#DADADA" width="2" height="2"/>
		<rect x="6" y="-0.1" fill="#FFFFFF" width="2" height="2"/>
		<rect x="8" y="-0.1" fill="#DADADA" width="2" height="2"/>
		<rect x="10" y="-0.1" fill="#FFFFFF" width="2" height="2"/>
		<rect x="12" y="-0.1" fill="#DADADA" width="2" height="2"/>
		<rect x="14" y="-0.1" fill="#FFFFFF" width="2" height="2"/>
		<rect x="16" y="-0.1" fill="#DADADA" width="2" height="2"/>
		<rect x="18" y="-0.1" fill="#FFFFFF" width="2" height="2"/>
		<rect x="20" y="-0.1" fill="#DADADA" width="2" height="2"/>
		<rect x="22" y="-0.1" fill="#FFFFFF" width="2" height="2"/>
		<rect x="24" y="-0.1" fill="#DADADA" width="2" height="2"/>
		<rect x="26" y="-0.1" fill="#FFFFFF" width="2" height="2"/>
		<rect x="28" y="-0.1" fill="#DADADA" width="2" height="2"/>
		<rect x="30" y="-0.1" fill="#FFFFFF" width="2" height="2"/>
		<rect x="0" y="1.9" fill="#FFFFFF" width="2" height="2"/>
		<rect x="2" y="1.9" fill="#DADADA" width="2" height="2"/>
		<rect x="4" y="1.9" fill="#FFFFFF" width="2" height="2"/>
		<rect x="6" y="1.9" fill="#DADADA" width="2" height="2"/>
		<rect x="8" y="1.9" fill="#FFFFFF" width="2" height="2"/>
		<rect x="10" y="1.9" fill="#DADADA" width="2" height="2"/>
		<rect x="12" y="1.9" fill="#FFFFFF" width="2" height="2"/>
		<rect x="14" y="1.9" fill="#DADADA" width="2" height="2"/>
		<rect x="16" y="1.9" fill="#FFFFFF" width="2" height="2"/>
		<rect x="18" y="1.9" fill="#DADADA" width="2" height="2"/>
		<rect x="20" y="1.9" fill="#FFFFFF" width="2" height="2"/>
		<rect x="22" y="1.9" fill="#DADADA" width="2" height="2"/>
		<rect x="24" y="1.9" fill="#FFFFFF" width="2" height="2"/>
		<rect x="26" y="1.9" fill="#DADADA" width="2" height="2"/>
		<rect x="28" y="1.9" fill="#FFFFFF" width="2" height="2"/>
		<rect x="30" y="1.9" fill="#DADADA" width="2" height="2"/>
		<rect x="0" y="3.9" fill="#DADADA" width="2" height="2"/>
		<rect x="2" y="3.9" fill="#FFFFFF" width="2" height="2"/>
		<rect x="4" y="3.9" fill="#DADADA" width="2" height="2"/>
		<rect x="6" y="3.9" fill="#FFFFFF" width="2" height="2"/>
		<rect x="8" y="3.9" fill="#DADADA" width="2" height="2"/>
		<rect x="10" y="3.9" fill="#FFFFFF" width="2" height="2"/>
		<rect x="12" y="3.9" fill="#DADADA" width="2" height="2"/>
		<rect x="14" y="3.9" fill="#FFFFFF" width="2" height="2"/>
		<rect x="16" y="3.9" fill="#DADADA" width="2" height="2"/>
		<rect x="18" y="3.9" fill="#FFFFFF" width="2" height="2"/>
		<rect x="20" y="3.9" fill="#DADADA" width="2" height="2"/>
		<rect x="22" y="3.9" fill="#FFFFFF" width="2" height="2"/>
		<rect x="24" y="3.9" fill="#DADADA" width="2" height="2"/>
		<rect x="26" y="3.9" fill="#FFFFFF" width="2" height="2"/>
		<rect x="28" y="3.9" fill="#DADADA" width="2" height="2"/>
		<rect x="30" y="3.9" fill="#FFFFFF" width="2" height="2"/>
		<rect x="0" y="5.9" fill="#FFFFFF" width="2" height="2"/>
		<rect x="2" y="5.9" fill="#DADADA" width="2" height="2"/>
		<rect x="4" y="5.9" fill="#FFFFFF" width="2" height="2"/>
		<rect x="6" y="5.9" fill="#DADADA" width="2" height="2"/>
		<rect x="8" y="5.9" fill="#FFFFFF" width="2" height="2"/>
		<rect x="10" y="5.9" fill="#DADADA" width="2" height="2"/>
		<rect x="12" y="5.9" fill="#FFFFFF" width="2" height="2"/>
		<rect x="14" y="5.9" fill="#DADADA" width="2" height="2"/>
		<rect x="16" y="5.9" fill="#FFFFFF" width="2" height="2"/>
		<rect x="18" y="5.9" fill="#DADADA" width="2" height="2"/>
		<rect x="20" y="5.9" fill="#FFFFFF" width="2" height="2"/>
		<rect x="22" y="5.9" fill="#DADADA" width="2" height="2"/>
		<rect x="24" y="5.9" fill="#FFFFFF" width="2" height="2"/>
		<rect x="26" y="5.9" fill="#DADADA" width="2" height="2"/>
		<rect x="28" y="5.9" fill="#FFFFFF" width="2" height="2"/>
		<rect x="30" y="5.9" fill="#DADADA" width="2" height="2"/>
		<rect x="0" y="7.9" fill="#DADADA" width="2" height="2"/>
		<rect x="2" y="7.9" fill="#FFFFFF" width="2" height="2"/>
		<rect x="4" y="7.9" fill="#DADADA" width="2" height="2"/>
		<rect x="6" y="7.9" fill="#FFFFFF" width="2" height="2"/>
		<rect x="8" y="7.9" fill="#DADADA" width="2" height="2"/>
		<rect x="10" y="7.9" fill="#FFFFFF" width="2" height="2"/>
		<rect x="12" y="7.9" fill="#DADADA" width="2" height="2"/>
		<rect x="14" y="7.9" fill="#FFFFFF" width="2" height="2"/>
		<rect x="16" y="7.9" fill="#DADADA" width="2" height="2"/>
		<rect x="18" y="7.9" fill="#FFFFFF" width="2" height="2"/>
		<rect x="20" y="7.9" fill="#DADADA" width="2" height="2"/>
		<rect x="22" y="7.9" fill="#FFFFFF" width="2" height="2"/>
		<rect x="24" y="7.9" fill="#DADADA" width="2" height="2"/>
		<rect x="26" y="7.9" fill="#FFFFFF" width="2" height="2"/>
		<rect x="28" y="7.9" fill="#DADADA" width="2" height="2"/>
		<rect x="30" y="7.9" fill="#FFFFFF" width="2" height="2"/>
		<rect x="0" y="9.9" fill="#FFFFFF" width="2" height="2"/>
		<rect x="2" y="9.9" fill="#DADADA" width="2" height="2"/>
		<rect x="4" y="9.9" fill="#FFFFFF" width="2" height="2"/>
		<rect x="6" y="9.9" fill="#DADADA" width="2" height="2"/>
		<rect x="8" y="9.9" fill="#FFFFFF" width="2" height="2"/>
		<rect x="10" y="9.9" fill="#DADADA" width="2" height="2"/>
		<rect x="12" y="9.9" fill="#FFFFFF" width="2" height="2"/>
		<rect x="14" y="9.9" fill="#DADADA" width="2" height="2"/>
		<rect x="16" y="9.9" fill="#FFFFFF" width="2" height="2"/>
		<rect x="18" y="9.9" fill="#DADADA" width="2" height="2"/>
		<rect x="20" y="9.9" fill="#FFFFFF" width="2" height="2"/>
		<rect x="22" y="9.9" fill="#DADADA" width="2" height="2"/>
		<rect x="24" y="9.9" fill="#FFFFFF" width="2" height="2"/>
		<rect x="26" y="9.9" fill="#DADADA" width="2" height="2"/>
		<rect x="28" y="9.9" fill="#FFFFFF" width="2" height="2"/>
		<rect x="30" y="9.9" fill="#DADADA" width="2" height="2"/>
		<rect x="0" y="11.9" fill="#DADADA" width="2" height="2"/>
		<rect x="2" y="11.9" fill="#FFFFFF" width="2" height="2"/>
		<rect x="4" y="11.9" fill="#DADADA" width="2" height="2"/>
		<rect x="6" y="11.9" fill="#FFFFFF" width="2" height="2"/>
		<rect x="8" y="11.9" fill="#DADADA" width="2" height="2"/>
		<rect x="10" y="11.9" fill="#FFFFFF" width="2" height="2"/>
		<rect x="12" y="11.9" fill="#DADADA" width="2" height="2"/>
		<rect x="14" y="11.9" fill="#FFFFFF" width="2" height="2"/>
		<rect x="16" y="11.9" fill="#DADADA" width="2" height="2"/>
		<rect x="18" y="11.9" fill="#FFFFFF" width="2" height="2"/>
		<rect x="20" y="11.9" fill="#DADADA" width="2" height="2"/>
		<rect x="22" y="11.9" fill="#FFFFFF" width="2" height="2"/>
		<rect x="24" y="11.9" fill="#DADADA" width="2" height="2"/>
		<rect x="26" y="11.9" fill="#FFFFFF" width="2" height="2"/>
		<rect x="28" y="11.9" fill="#DADADA" width="2" height="2"/>
		<rect x="30" y="11.9" fill="#FFFFFF" width="2" height="2"/>
		<rect x="0" y="13.9" fill="#FFFFFF" width="2" height="2"/>
		<rect x="2" y="13.9" fill="#DADADA" width="2" height="2"/>
		<rect x="4" y="13.9" fill="#FFFFFF" width="2" height="2"/>
		<rect x="6" y="13.9" fill="#DADADA" width="2" height="2"/>
		<rect x="8" y="13.9" fill="#FFFFFF" width="2" height="2"/>
		<rect x="10" y="13.9" fill="#DADADA" width="2" height="2"/>
		<rect x="12" y="13.9" fill="#FFFFFF" width="2" height="2"/>
		<rect x="14" y="13.9" fill="#DADADA" width="2" height="2"/>
		<rect x="16" y="13.9" fill="#FFFFFF" width="2" height="2"/>
		<rect x="18" y="13.9" fill="#DADADA" width="2" height="2"/>
		<rect x="20" y="13.9" fill="#FFFFFF" width="2" height="2"/>
		<rect x="22" y="13.9" fill="#DADADA" width="2" height="2"/>
		<rect x="24" y="13.9" fill="#FFFFFF" width="2" height="2"/>
		<rect x="26" y="13.9" fill="#DADADA" width="2" height="2"/>
		<rect x="28" y="13.9" fill="#FFFFFF" width="2" height="2"/>
		<rect x="30" y="13.9" fill="#DADADA" width="2" height="2"/>
		<rect x="0" y="15.9" fill="#DADADA" width="2" height="2"/>
		<rect x="2" y="15.9" fill="#FFFFFF" width="2" height="2"/>
		<rect x="4" y="15.9" fill="#DADADA" width="2" height="2"/>
		<rect x="6" y="15.9" fill="#FFFFFF" width="2" height="2"/>
		<rect x="8" y="15.9" fill="#DADADA" width="2" height="2"/>
		<rect x="10" y="15.9" fill="#FFFFFF" width="2" height="2"/>
		<rect x="12" y="15.9" fill="#DADADA" width="2" height="2"/>
		<rect x="14" y="15.9" fill="#FFFFFF" width="2" height="2"/>
		<rect x="16" y="15.9" fill="#DADADA" width="2" height="2"/>
		<rect x="18" y="15.9" fill="#FFFFFF" width="2" height="2"/>
		<rect x="20" y="15.9" fill="#DADADA" width="2" height="2"/>
		<rect x="22" y="15.9" fill="#FFFFFF" width="2" height="2"/>
		<rect x="24" y="15.9" fill="#DADADA" width="2" height="2"/>
		<rect x="26" y="15.9" fill="#FFFFFF" width="2" height="2"/>
		<rect x="28" y="15.9" fill="#DADADA" width="2" height="2"/>
		<rect x="30" y="15.9" fill="#FFFFFF" width="2" height="2"/>
		<rect x="0" y="17.9" fill="#FFFFFF" width="2" height="2"/>
		<rect x="2" y="17.9" fill="#DADADA" width="2" height="2"/>
		<rect x="4" y="17.9" fill="#FFFFFF" width="2" height="2"/>
		<rect x="6" y="17.9" fill="#DADADA" width="2" height="2"/>
		<rect x="8" y="17.9" fill="#FFFFFF" width="2" height="2"/>
		<rect x="10" y="17.9" fill="#DADADA" width="2" height="2"/>
		<rect x="12" y="17.9" fill="#FFFFFF" width="2" height="2"/>
		<rect x="14" y="17.9" fill="#DADADA" width="2" height="2"/>
		<rect x="16" y="17.9" fill="#FFFFFF" width="2" height="2"/>
		<rect x="18" y="17.9" fill="#DADADA" width="2" height="2"/>
		<rect x="20" y="17.9" fill="#FFFFFF" width="2" height="2"/>
		<rect x="22" y="17.9" fill="#DADADA" width="2" height="2"/>
		<rect x="24" y="17.9" fill="#FFFFFF" width="2" height="2"/>
		<rect x="26" y="17.9" fill="#DADADA" width="2" height="2"/>
		<rect x="28" y="17.9" fill="#FFFFFF" width="2" height="2"/>
		<rect x="30" y="17.9" fill="#DADADA" width="2" height="2"/>
		<rect x="0" y="19.9" fill="#DADADA" width="2" height="2"/>
		<rect x="2" y="19.9" fill="#FFFFFF" width="2" height="2"/>
		<rect x="4" y="19.9" fill="#DADADA" width="2" height="2"/>
		<rect x="6" y="19.9" fill="#FFFFFF" width="2" height="2"/>
		<rect x="8" y="19.9" fill="#DADADA" width="2" height="2"/>
		<rect x="10" y="19.9" fill="#FFFFFF" width="2" height="2"/>
		<rect x="12" y="19.9" fill="#DADADA" width="2" height="2"/>
		<rect x="14" y="19.9" fill="#FFFFFF" width="2" height="2"/>
		<rect x="16" y="19.9" fill="#DADADA" width="2" height="2"/>
		<rect x="18" y="19.9" fill="#FFFFFF" width="2" height="2"/>
		<rect x="20" y="19.9" fill="#DADADA" width="2" height="2"/>
		<rect x="22" y="19.9" fill="#FFFFFF" width="2" height="2"/>
		<rect x="24" y="19.9" fill="#DADADA" width="2" height="2"/>
		<rect x="26" y="19.9" fill="#FFFFFF" width="2" height="2"/>
		<rect x="28" y="19.9" fill="#DADADA" width="2" height="2"/>
		<rect x="30" y="19.9" fill="#FFFFFF" width="2" height="2"/>
		<rect x="0" y="21.9" fill="#FFFFFF" width="2" height="2"/>
		<rect x="2" y="21.9" fill="#DADADA" width="2" height="2"/>
		<rect x="4" y="21.9" fill="#FFFFFF" width="2" height="2"/>
		<rect x="6" y="21.9" fill="#DADADA" width="2" height="2"/>
		<rect x="8" y="21.9" fill="#FFFFFF" width="2" height="2"/>
		<rect x="10" y="21.9" fill="#DADADA" width="2" height="2"/>
		<rect x="12" y="21.9" fill="#FFFFFF" width="2" height="2"/>
		<rect x="14" y="21.9" fill="#DADADA" width="2" height="2"/>
		<rect x="16" y="21.9" fill="#FFFFFF" width="2" height="2"/>
		<rect x="18" y="21.9" fill="#DADADA" width="2" height="2"/>
		<rect x="20" y="21.9" fill="#FFFFFF" width="2" height="2"/>
		<rect x="22" y="21.9" fill="#DADADA" width="2" height="2"/>
		<rect x="24" y="21.9" fill="#FFFFFF" width="2" height="2"/>
		<rect x="26" y="21.9" fill="#DADADA" width="2" height="2"/>
		<rect x="28" y="21.9" fill="#FFFFFF" width="2" height="2"/>
		<rect x="30" y="21.9" fill="#DADADA" width="2" height="2"/>
		<rect x="0" y="23.9" fill="#DADADA" width="2" height="2"/>
		<rect x="2" y="23.9" fill="#FFFFFF" width="2" height="2"/>
		<rect x="4" y="23.9" fill="#DADADA" width="2" height="2"/>
		<rect x="6" y="23.9" fill="#FFFFFF" width="2" height="2"/>
		<rect x="8" y="23.9" fill="#DADADA" width="2" height="2"/>
		<rect x="10" y="23.9" fill="#FFFFFF" width="2" height="2"/>
		<rect x="12" y="23.9" fill="#DADADA" width="2" height="2"/>
		<rect x="14" y="23.9" fill="#FFFFFF" width="2" height="2"/>
		<rect x="16" y="23.9" fill="#DADADA" width="2" height="2"/>
		<rect x="18" y="23.9" fill="#FFFFFF" width="2" height="2"/>
		<rect x="20" y="23.9" fill="#DADADA" width="2" height="2"/>
		<rect x="22" y="23.9" fill="#FFFFFF" width="2" height="2"/>
		<rect x="24" y="23.9" fill="#DADADA" width="2" height="2"/>
		<rect x="26" y="23.9" fill="#FFFFFF" width="2" height="2"/>
		<rect x="28" y="23.9" fill="#DADADA" width="2" height="2"/>
		<rect x="30" y="23.9" fill="#FFFFFF" width="2" height="2"/>
		<rect x="0" y="25.9" fill="#FFFFFF" width="2" height="2"/>
		<rect x="2" y="25.9" fill="#DADADA" width="2" height="2"/>
		<rect x="4" y="25.9" fill="#FFFFFF" width="2" height="2"/>
		<rect x="6" y="25.9" fill="#DADADA" width="2" height="2"/>
		<rect x="8" y="25.9" fill="#FFFFFF" width="2" height="2"/>
		<rect x="10" y="25.9" fill="#DADADA" width="2" height="2"/>
		<rect x="12" y="25.9" fill="#FFFFFF" width="2" height="2"/>
		<rect x="14" y="25.9" fill="#DADADA" width="2" height="2"/>
		<rect x="16" y="25.9" fill="#FFFFFF" width="2" height="2"/>
		<rect x="18" y="25.9" fill="#DADADA" width="2" height="2"/>
		<rect x="20" y="25.9" fill="#FFFFFF" width="2" height="2"/>
		<rect x="22" y="25.9" fill="#DADADA" width="2" height="2"/>
		<rect x="24" y="25.9" fill="#FFFFFF" width="2" height="2"/>
		<rect x="26" y="25.9" fill="#DADADA" width="2" height="2"/>
		<rect x="28" y="25.9" fill="#FFFFFF" width="2" height="2"/>
		<rect x="30" y="25.9" fill="#DADADA" width="2" height="2"/>
		<rect x="0" y="27.9" fill="#DADADA" width="2" height="2"/>
		<rect x="2" y="27.9" fill="#FFFFFF" width="2" height="2"/>
		<rect x="4" y="27.9" fill="#DADADA" width="2" height="2"/>
		<rect x="6" y="27.9" fill="#FFFFFF" width="2" height="2"/>
		<rect x="8" y="27.9" fill="#DADADA" width="2" height="2"/>
		<rect x="10" y="27.9" fill="#FFFFFF" width="2" height="2"/>
		<rect x="12" y="27.9" fill="#DADADA" width="2" height="2"/>
		<rect x="14" y="27.9" fill="#FFFFFF" width="2" height="2"/>
		<rect x="16" y="27.9" fill="#DADADA" width="2" height="2"/>
		<rect x="18" y="27.9" fill="#FFFFFF" width="2" height="2"/>
		<rect x="20" y="27.9" fill="#DADADA" width="2" height="2"/>
		<rect x="22" y="27.9" fill="#FFFFFF" width="2" height="2"/>
		<rect x="24" y="27.9" fill="#DADADA" width="2" height="2"/>
		<rect x="26" y="27.9" fill="#FFFFFF" width="2" height="2"/>
		<rect x="28" y="27.9" fill="#DADADA" width="2" height="2"/>
		<rect x="30" y="27.9" fill="#FFFFFF" width="2" height="2"/>
		<rect x="0" y="29.9" fill="#FFFFFF" width="2" height="2"/>
		<rect x="2" y="29.9" fill="#DADADA" width="2" height="2"/>
		<rect x="4" y="29.9" fill="#FFFFFF" width="2" height="2"/>
		<rect x="6" y="29.9" fill="#DADADA" width="2" height="2"/>
		<rect x="8" y="29.9" fill="#FFFFFF" width="2" height="2"/>
		<rect x="10" y="29.9" fill="#DADADA" width="2" height="2"/>
		<rect x="12" y="29.9" fill="#FFFFFF" width="2" height="2"/>
		<rect x="14" y="29.9" fill="#DADADA" width="2" height="2"/>
		<rect x="16" y="29.9" fill="#FFFFFF" width="2" height="2"/>
		<rect x="18" y="29.9" fill="#DADADA" width="2" height="2"/>
		<rect x="20" y="29.9" fill="#FFFFFF" width="2" height="2"/>
		<rect x="22" y="29.9" fill="#DADADA" width="2" height="2"/>
		<rect x="24" y="29.9" fill="#FFFFFF" width="2" height="2"/>
		<rect x="26" y="29.9" fill="#DADADA" width="2" height="2"/>
		<rect x="28" y="29.9" fill="#FFFFFF" width="2" height="2"/>
		<rect x="30" y="29.9" fill="#DADADA" width="2" height="2"/>
	</g>
</g>
<g id="BG" display="none">
	<rect x="-25" y="-175.7" display="inline" width="314" height="521.3"/>
</g>
<g id="ICONS">
	<g>
		<path fill="#FFFFFF" d="M29.5,19.1l-8-14.3C21.2,4.4,20.5,4,20,4h-8c-0.5,0-1.2,0.4-1.5,0.9l-8,14.3c-0.3,0.5-0.3,1.3-0.1,1.8
			l3.2,7.2C5.8,28.6,6.5,29,7,29h18c0.5,0,1.2-0.4,1.4-0.9l3.2-7.2C29.8,20.4,29.8,19.6,29.5,19.1z M27.4,19.5h-6.1L13.2,6h6.6
			L27.4,19.5z M20.1,19.5h-8l4-6.7L20.1,19.5z M4.3,20.2c0,0,0-0.1,0-0.1l7.8-13.9l3.4,5.7L6.9,26.2L4.3,20.2z M24.7,27H7.6l3.9-6.5
			h16.1L24.7,27z"/>
	</g>
</g>
<g id="txt" display="none">
	<g display="inline">
		<g>
		</g>
	</g>
</g>
</svg>
