<?xml version="1.0" encoding="utf-8"?>
<!-- Generator: Adobe Illustrator 16.0.0, SVG Export Plug-In . SVG Version: 6.00 Build 0)  -->
<!DOCTYPE svg PUBLIC "-//W3C//DTD SVG 1.1//EN" "http://www.w3.org/Graphics/SVG/1.1/DTD/svg11.dtd">
<svg version="1.1" xmlns="http://www.w3.org/2000/svg" xmlns:xlink="http://www.w3.org/1999/xlink" x="0px" y="0px" width="32px"
	 height="32px" viewBox="0 0 32 32" enable-background="new 0 0 32 32" xml:space="preserve">
<g id="grids" display="none">
	<g display="inline">
		<rect x="0" y="-0.1" fill="#DADADA" width="2" height="2"/>
		<rect x="2" y="-0.1" fill="#FFFFFF" width="2" height="2"/>
		<rect x="4" y="-0.1" fill="#DADADA" width="2" height="2"/>
		<rect x="6" y="-0.1" fill="#FFFFFF" width="2" height="2"/>
		<rect x="8" y="-0.1" fill="#DADADA" width="2" height="2"/>
		<rect x="10" y="-0.1" fill="#FFFFFF" width="2" height="2"/>
		<rect x="12" y="-0.1" fill="#DADADA" width="2" height="2"/>
		<rect x="14" y="-0.1" fill="#FFFFFF" width="2" height="2"/>
		<rect x="16" y="-0.1" fill="#DADADA" width="2" height="2"/>
		<rect x="18" y="-0.1" fill="#FFFFFF" width="2" height="2"/>
		<rect x="20" y="-0.1" fill="#DADADA" width="2" height="2"/>
		<rect x="22" y="-0.1" fill="#FFFFFF" width="2" height="2"/>
		<rect x="24" y="-0.1" fill="#DADADA" width="2" height="2"/>
		<rect x="26" y="-0.1" fill="#FFFFFF" width="2" height="2"/>
		<rect x="28" y="-0.1" fill="#DADADA" width="2" height="2"/>
		<rect x="30" y="-0.1" fill="#FFFFFF" width="2" height="2"/>
		<rect x="0" y="1.9" fill="#FFFFFF" width="2" height="2"/>
		<rect x="2" y="1.9" fill="#DADADA" width="2" height="2"/>
		<rect x="4" y="1.9" fill="#FFFFFF" width="2" height="2"/>
		<rect x="6" y="1.9" fill="#DADADA" width="2" height="2"/>
		<rect x="8" y="1.9" fill="#FFFFFF" width="2" height="2"/>
		<rect x="10" y="1.9" fill="#DADADA" width="2" height="2"/>
		<rect x="12" y="1.9" fill="#FFFFFF" width="2" height="2"/>
		<rect x="14" y="1.9" fill="#DADADA" width="2" height="2"/>
		<rect x="16" y="1.9" fill="#FFFFFF" width="2" height="2"/>
		<rect x="18" y="1.9" fill="#DADADA" width="2" height="2"/>
		<rect x="20" y="1.9" fill="#FFFFFF" width="2" height="2"/>
		<rect x="22" y="1.9" fill="#DADADA" width="2" height="2"/>
		<rect x="24" y="1.9" fill="#FFFFFF" width="2" height="2"/>
		<rect x="26" y="1.9" fill="#DADADA" width="2" height="2"/>
		<rect x="28" y="1.9" fill="#FFFFFF" width="2" height="2"/>
		<rect x="30" y="1.9" fill="#DADADA" width="2" height="2"/>
		<rect x="0" y="3.9" fill="#DADADA" width="2" height="2"/>
		<rect x="2" y="3.9" fill="#FFFFFF" width="2" height="2"/>
		<rect x="4" y="3.9" fill="#DADADA" width="2" height="2"/>
		<rect x="6" y="3.9" fill="#FFFFFF" width="2" height="2"/>
		<rect x="8" y="3.9" fill="#DADADA" width="2" height="2"/>
		<rect x="10" y="3.9" fill="#FFFFFF" width="2" height="2"/>
		<rect x="12" y="3.9" fill="#DADADA" width="2" height="2"/>
		<rect x="14" y="3.9" fill="#FFFFFF" width="2" height="2"/>
		<rect x="16" y="3.9" fill="#DADADA" width="2" height="2"/>
		<rect x="18" y="3.9" fill="#FFFFFF" width="2" height="2"/>
		<rect x="20" y="3.9" fill="#DADADA" width="2" height="2"/>
		<rect x="22" y="3.9" fill="#FFFFFF" width="2" height="2"/>
		<rect x="24" y="3.9" fill="#DADADA" width="2" height="2"/>
		<rect x="26" y="3.9" fill="#FFFFFF" width="2" height="2"/>
		<rect x="28" y="3.9" fill="#DADADA" width="2" height="2"/>
		<rect x="30" y="3.9" fill="#FFFFFF" width="2" height="2"/>
		<rect x="0" y="5.9" fill="#FFFFFF" width="2" height="2"/>
		<rect x="2" y="5.9" fill="#DADADA" width="2" height="2"/>
		<rect x="4" y="5.9" fill="#FFFFFF" width="2" height="2"/>
		<rect x="6" y="5.9" fill="#DADADA" width="2" height="2"/>
		<rect x="8" y="5.9" fill="#FFFFFF" width="2" height="2"/>
		<rect x="10" y="5.9" fill="#DADADA" width="2" height="2"/>
		<rect x="12" y="5.9" fill="#FFFFFF" width="2" height="2"/>
		<rect x="14" y="5.9" fill="#DADADA" width="2" height="2"/>
		<rect x="16" y="5.9" fill="#FFFFFF" width="2" height="2"/>
		<rect x="18" y="5.9" fill="#DADADA" width="2" height="2"/>
		<rect x="20" y="5.9" fill="#FFFFFF" width="2" height="2"/>
		<rect x="22" y="5.9" fill="#DADADA" width="2" height="2"/>
		<rect x="24" y="5.9" fill="#FFFFFF" width="2" height="2"/>
		<rect x="26" y="5.9" fill="#DADADA" width="2" height="2"/>
		<rect x="28" y="5.9" fill="#FFFFFF" width="2" height="2"/>
		<rect x="30" y="5.9" fill="#DADADA" width="2" height="2"/>
		<rect x="0" y="7.9" fill="#DADADA" width="2" height="2"/>
		<rect x="2" y="7.9" fill="#FFFFFF" width="2" height="2"/>
		<rect x="4" y="7.9" fill="#DADADA" width="2" height="2"/>
		<rect x="6" y="7.9" fill="#FFFFFF" width="2" height="2"/>
		<rect x="8" y="7.9" fill="#DADADA" width="2" height="2"/>
		<rect x="10" y="7.9" fill="#FFFFFF" width="2" height="2"/>
		<rect x="12" y="7.9" fill="#DADADA" width="2" height="2"/>
		<rect x="14" y="7.9" fill="#FFFFFF" width="2" height="2"/>
		<rect x="16" y="7.9" fill="#DADADA" width="2" height="2"/>
		<rect x="18" y="7.9" fill="#FFFFFF" width="2" height="2"/>
		<rect x="20" y="7.9" fill="#DADADA" width="2" height="2"/>
		<rect x="22" y="7.9" fill="#FFFFFF" width="2" height="2"/>
		<rect x="24" y="7.9" fill="#DADADA" width="2" height="2"/>
		<rect x="26" y="7.9" fill="#FFFFFF" width="2" height="2"/>
		<rect x="28" y="7.9" fill="#DADADA" width="2" height="2"/>
		<rect x="30" y="7.9" fill="#FFFFFF" width="2" height="2"/>
		<rect x="0" y="9.9" fill="#FFFFFF" width="2" height="2"/>
		<rect x="2" y="9.9" fill="#DADADA" width="2" height="2"/>
		<rect x="4" y="9.9" fill="#FFFFFF" width="2" height="2"/>
		<rect x="6" y="9.9" fill="#DADADA" width="2" height="2"/>
		<rect x="8" y="9.9" fill="#FFFFFF" width="2" height="2"/>
		<rect x="10" y="9.9" fill="#DADADA" width="2" height="2"/>
		<rect x="12" y="9.9" fill="#FFFFFF" width="2" height="2"/>
		<rect x="14" y="9.9" fill="#DADADA" width="2" height="2"/>
		<rect x="16" y="9.9" fill="#FFFFFF" width="2" height="2"/>
		<rect x="18" y="9.9" fill="#DADADA" width="2" height="2"/>
		<rect x="20" y="9.9" fill="#FFFFFF" width="2" height="2"/>
		<rect x="22" y="9.9" fill="#DADADA" width="2" height="2"/>
		<rect x="24" y="9.9" fill="#FFFFFF" width="2" height="2"/>
		<rect x="26" y="9.9" fill="#DADADA" width="2" height="2"/>
		<rect x="28" y="9.9" fill="#FFFFFF" width="2" height="2"/>
		<rect x="30" y="9.9" fill="#DADADA" width="2" height="2"/>
		<rect x="0" y="11.9" fill="#DADADA" width="2" height="2"/>
		<rect x="2" y="11.9" fill="#FFFFFF" width="2" height="2"/>
		<rect x="4" y="11.9" fill="#DADADA" width="2" height="2"/>
		<rect x="6" y="11.9" fill="#FFFFFF" width="2" height="2"/>
		<rect x="8" y="11.9" fill="#DADADA" width="2" height="2"/>
		<rect x="10" y="11.9" fill="#FFFFFF" width="2" height="2"/>
		<rect x="12" y="11.9" fill="#DADADA" width="2" height="2"/>
		<rect x="14" y="11.9" fill="#FFFFFF" width="2" height="2"/>
		<rect x="16" y="11.9" fill="#DADADA" width="2" height="2"/>
		<rect x="18" y="11.9" fill="#FFFFFF" width="2" height="2"/>
		<rect x="20" y="11.9" fill="#DADADA" width="2" height="2"/>
		<rect x="22" y="11.9" fill="#FFFFFF" width="2" height="2"/>
		<rect x="24" y="11.9" fill="#DADADA" width="2" height="2"/>
		<rect x="26" y="11.9" fill="#FFFFFF" width="2" height="2"/>
		<rect x="28" y="11.9" fill="#DADADA" width="2" height="2"/>
		<rect x="30" y="11.9" fill="#FFFFFF" width="2" height="2"/>
		<rect x="0" y="13.9" fill="#FFFFFF" width="2" height="2"/>
		<rect x="2" y="13.9" fill="#DADADA" width="2" height="2"/>
		<rect x="4" y="13.9" fill="#FFFFFF" width="2" height="2"/>
		<rect x="6" y="13.9" fill="#DADADA" width="2" height="2"/>
		<rect x="8" y="13.9" fill="#FFFFFF" width="2" height="2"/>
		<rect x="10" y="13.9" fill="#DADADA" width="2" height="2"/>
		<rect x="12" y="13.9" fill="#FFFFFF" width="2" height="2"/>
		<rect x="14" y="13.9" fill="#DADADA" width="2" height="2"/>
		<rect x="16" y="13.9" fill="#FFFFFF" width="2" height="2"/>
		<rect x="18" y="13.9" fill="#DADADA" width="2" height="2"/>
		<rect x="20" y="13.9" fill="#FFFFFF" width="2" height="2"/>
		<rect x="22" y="13.9" fill="#DADADA" width="2" height="2"/>
		<rect x="24" y="13.9" fill="#FFFFFF" width="2" height="2"/>
		<rect x="26" y="13.9" fill="#DADADA" width="2" height="2"/>
		<rect x="28" y="13.9" fill="#FFFFFF" width="2" height="2"/>
		<rect x="30" y="13.9" fill="#DADADA" width="2" height="2"/>
		<rect x="0" y="15.9" fill="#DADADA" width="2" height="2"/>
		<rect x="2" y="15.9" fill="#FFFFFF" width="2" height="2"/>
		<rect x="4" y="15.9" fill="#DADADA" width="2" height="2"/>
		<rect x="6" y="15.9" fill="#FFFFFF" width="2" height="2"/>
		<rect x="8" y="15.9" fill="#DADADA" width="2" height="2"/>
		<rect x="10" y="15.9" fill="#FFFFFF" width="2" height="2"/>
		<rect x="12" y="15.9" fill="#DADADA" width="2" height="2"/>
		<rect x="14" y="15.9" fill="#FFFFFF" width="2" height="2"/>
		<rect x="16" y="15.9" fill="#DADADA" width="2" height="2"/>
		<rect x="18" y="15.9" fill="#FFFFFF" width="2" height="2"/>
		<rect x="20" y="15.9" fill="#DADADA" width="2" height="2"/>
		<rect x="22" y="15.9" fill="#FFFFFF" width="2" height="2"/>
		<rect x="24" y="15.9" fill="#DADADA" width="2" height="2"/>
		<rect x="26" y="15.9" fill="#FFFFFF" width="2" height="2"/>
		<rect x="28" y="15.9" fill="#DADADA" width="2" height="2"/>
		<rect x="30" y="15.9" fill="#FFFFFF" width="2" height="2"/>
		<rect x="0" y="17.9" fill="#FFFFFF" width="2" height="2"/>
		<rect x="2" y="17.9" fill="#DADADA" width="2" height="2"/>
		<rect x="4" y="17.9" fill="#FFFFFF" width="2" height="2"/>
		<rect x="6" y="17.9" fill="#DADADA" width="2" height="2"/>
		<rect x="8" y="17.9" fill="#FFFFFF" width="2" height="2"/>
		<rect x="10" y="17.9" fill="#DADADA" width="2" height="2"/>
		<rect x="12" y="17.9" fill="#FFFFFF" width="2" height="2"/>
		<rect x="14" y="17.9" fill="#DADADA" width="2" height="2"/>
		<rect x="16" y="17.9" fill="#FFFFFF" width="2" height="2"/>
		<rect x="18" y="17.9" fill="#DADADA" width="2" height="2"/>
		<rect x="20" y="17.9" fill="#FFFFFF" width="2" height="2"/>
		<rect x="22" y="17.9" fill="#DADADA" width="2" height="2"/>
		<rect x="24" y="17.9" fill="#FFFFFF" width="2" height="2"/>
		<rect x="26" y="17.9" fill="#DADADA" width="2" height="2"/>
		<rect x="28" y="17.9" fill="#FFFFFF" width="2" height="2"/>
		<rect x="30" y="17.9" fill="#DADADA" width="2" height="2"/>
		<rect x="0" y="19.9" fill="#DADADA" width="2" height="2"/>
		<rect x="2" y="19.9" fill="#FFFFFF" width="2" height="2"/>
		<rect x="4" y="19.9" fill="#DADADA" width="2" height="2"/>
		<rect x="6" y="19.9" fill="#FFFFFF" width="2" height="2"/>
		<rect x="8" y="19.9" fill="#DADADA" width="2" height="2"/>
		<rect x="10" y="19.9" fill="#FFFFFF" width="2" height="2"/>
		<rect x="12" y="19.9" fill="#DADADA" width="2" height="2"/>
		<rect x="14" y="19.9" fill="#FFFFFF" width="2" height="2"/>
		<rect x="16" y="19.9" fill="#DADADA" width="2" height="2"/>
		<rect x="18" y="19.9" fill="#FFFFFF" width="2" height="2"/>
		<rect x="20" y="19.9" fill="#DADADA" width="2" height="2"/>
		<rect x="22" y="19.9" fill="#FFFFFF" width="2" height="2"/>
		<rect x="24" y="19.9" fill="#DADADA" width="2" height="2"/>
		<rect x="26" y="19.9" fill="#FFFFFF" width="2" height="2"/>
		<rect x="28" y="19.9" fill="#DADADA" width="2" height="2"/>
		<rect x="30" y="19.9" fill="#FFFFFF" width="2" height="2"/>
		<rect x="0" y="21.9" fill="#FFFFFF" width="2" height="2"/>
		<rect x="2" y="21.9" fill="#DADADA" width="2" height="2"/>
		<rect x="4" y="21.9" fill="#FFFFFF" width="2" height="2"/>
		<rect x="6" y="21.9" fill="#DADADA" width="2" height="2"/>
		<rect x="8" y="21.9" fill="#FFFFFF" width="2" height="2"/>
		<rect x="10" y="21.9" fill="#DADADA" width="2" height="2"/>
		<rect x="12" y="21.9" fill="#FFFFFF" width="2" height="2"/>
		<rect x="14" y="21.9" fill="#DADADA" width="2" height="2"/>
		<rect x="16" y="21.9" fill="#FFFFFF" width="2" height="2"/>
		<rect x="18" y="21.9" fill="#DADADA" width="2" height="2"/>
		<rect x="20" y="21.9" fill="#FFFFFF" width="2" height="2"/>
		<rect x="22" y="21.9" fill="#DADADA" width="2" height="2"/>
		<rect x="24" y="21.9" fill="#FFFFFF" width="2" height="2"/>
		<rect x="26" y="21.9" fill="#DADADA" width="2" height="2"/>
		<rect x="28" y="21.9" fill="#FFFFFF" width="2" height="2"/>
		<rect x="30" y="21.9" fill="#DADADA" width="2" height="2"/>
		<rect x="0" y="23.9" fill="#DADADA" width="2" height="2"/>
		<rect x="2" y="23.9" fill="#FFFFFF" width="2" height="2"/>
		<rect x="4" y="23.9" fill="#DADADA" width="2" height="2"/>
		<rect x="6" y="23.9" fill="#FFFFFF" width="2" height="2"/>
		<rect x="8" y="23.9" fill="#DADADA" width="2" height="2"/>
		<rect x="10" y="23.9" fill="#FFFFFF" width="2" height="2"/>
		<rect x="12" y="23.9" fill="#DADADA" width="2" height="2"/>
		<rect x="14" y="23.9" fill="#FFFFFF" width="2" height="2"/>
		<rect x="16" y="23.9" fill="#DADADA" width="2" height="2"/>
		<rect x="18" y="23.9" fill="#FFFFFF" width="2" height="2"/>
		<rect x="20" y="23.9" fill="#DADADA" width="2" height="2"/>
		<rect x="22" y="23.9" fill="#FFFFFF" width="2" height="2"/>
		<rect x="24" y="23.9" fill="#DADADA" width="2" height="2"/>
		<rect x="26" y="23.9" fill="#FFFFFF" width="2" height="2"/>
		<rect x="28" y="23.9" fill="#DADADA" width="2" height="2"/>
		<rect x="30" y="23.9" fill="#FFFFFF" width="2" height="2"/>
		<rect x="0" y="25.9" fill="#FFFFFF" width="2" height="2"/>
		<rect x="2" y="25.9" fill="#DADADA" width="2" height="2"/>
		<rect x="4" y="25.9" fill="#FFFFFF" width="2" height="2"/>
		<rect x="6" y="25.9" fill="#DADADA" width="2" height="2"/>
		<rect x="8" y="25.9" fill="#FFFFFF" width="2" height="2"/>
		<rect x="10" y="25.9" fill="#DADADA" width="2" height="2"/>
		<rect x="12" y="25.9" fill="#FFFFFF" width="2" height="2"/>
		<rect x="14" y="25.9" fill="#DADADA" width="2" height="2"/>
		<rect x="16" y="25.9" fill="#FFFFFF" width="2" height="2"/>
		<rect x="18" y="25.9" fill="#DADADA" width="2" height="2"/>
		<rect x="20" y="25.9" fill="#FFFFFF" width="2" height="2"/>
		<rect x="22" y="25.9" fill="#DADADA" width="2" height="2"/>
		<rect x="24" y="25.9" fill="#FFFFFF" width="2" height="2"/>
		<rect x="26" y="25.9" fill="#DADADA" width="2" height="2"/>
		<rect x="28" y="25.9" fill="#FFFFFF" width="2" height="2"/>
		<rect x="30" y="25.9" fill="#DADADA" width="2" height="2"/>
		<rect x="0" y="27.9" fill="#DADADA" width="2" height="2"/>
		<rect x="2" y="27.9" fill="#FFFFFF" width="2" height="2"/>
		<rect x="4" y="27.9" fill="#DADADA" width="2" height="2"/>
		<rect x="6" y="27.9" fill="#FFFFFF" width="2" height="2"/>
		<rect x="8" y="27.9" fill="#DADADA" width="2" height="2"/>
		<rect x="10" y="27.9" fill="#FFFFFF" width="2" height="2"/>
		<rect x="12" y="27.9" fill="#DADADA" width="2" height="2"/>
		<rect x="14" y="27.9" fill="#FFFFFF" width="2" height="2"/>
		<rect x="16" y="27.9" fill="#DADADA" width="2" height="2"/>
		<rect x="18" y="27.9" fill="#FFFFFF" width="2" height="2"/>
		<rect x="20" y="27.9" fill="#DADADA" width="2" height="2"/>
		<rect x="22" y="27.9" fill="#FFFFFF" width="2" height="2"/>
		<rect x="24" y="27.9" fill="#DADADA" width="2" height="2"/>
		<rect x="26" y="27.9" fill="#FFFFFF" width="2" height="2"/>
		<rect x="28" y="27.9" fill="#DADADA" width="2" height="2"/>
		<rect x="30" y="27.9" fill="#FFFFFF" width="2" height="2"/>
		<rect x="0" y="29.9" fill="#FFFFFF" width="2" height="2"/>
		<rect x="2" y="29.9" fill="#DADADA" width="2" height="2"/>
		<rect x="4" y="29.9" fill="#FFFFFF" width="2" height="2"/>
		<rect x="6" y="29.9" fill="#DADADA" width="2" height="2"/>
		<rect x="8" y="29.9" fill="#FFFFFF" width="2" height="2"/>
		<rect x="10" y="29.9" fill="#DADADA" width="2" height="2"/>
		<rect x="12" y="29.9" fill="#FFFFFF" width="2" height="2"/>
		<rect x="14" y="29.9" fill="#DADADA" width="2" height="2"/>
		<rect x="16" y="29.9" fill="#FFFFFF" width="2" height="2"/>
		<rect x="18" y="29.9" fill="#DADADA" width="2" height="2"/>
		<rect x="20" y="29.9" fill="#FFFFFF" width="2" height="2"/>
		<rect x="22" y="29.9" fill="#DADADA" width="2" height="2"/>
		<rect x="24" y="29.9" fill="#FFFFFF" width="2" height="2"/>
		<rect x="26" y="29.9" fill="#DADADA" width="2" height="2"/>
		<rect x="28" y="29.9" fill="#FFFFFF" width="2" height="2"/>
		<rect x="30" y="29.9" fill="#DADADA" width="2" height="2"/>
	</g>
</g>
<g id="BG" display="none">
	<rect x="-77" y="-175.7" display="inline" width="314" height="521.3"/>
</g>
<g id="ICONS">
	<g>
		<path fill="#FFFFFF" d="M5,14c0,0.6,0.4,1,1,1h2h16h2c0.6,0,1-0.4,1-1s-0.4-1-1-1V5c0-1.7-1.3-3-3-3H9C7.3,2,6,3.3,6,5v8
			C5.4,13,5,13.4,5,14z M8,5c0-0.6,0.4-1,1-1h14c0.6,0,1,0.4,1,1v8H8V5z"/>
		<path fill="#FFFFFF" d="M10,26h12c0.6,0,1-0.4,1-1s-0.4-1-1-1H10c-0.6,0-1,0.4-1,1S9.4,26,10,26z"/>
		<circle fill="#FFFFFF" cx="8" cy="18" r="1"/>
		<circle fill="#FFFFFF" cx="10" cy="20" r="1"/>
		<circle fill="#FFFFFF" cx="8" cy="22" r="1"/>
		<circle fill="#FFFFFF" cx="12" cy="18" r="1"/>
		<circle fill="#FFFFFF" cx="12" cy="22" r="1"/>
		<circle fill="#FFFFFF" cx="14" cy="20" r="1"/>
		<circle fill="#FFFFFF" cx="16" cy="18" r="1"/>
		<circle fill="#FFFFFF" cx="16" cy="22" r="1"/>
		<circle fill="#FFFFFF" cx="18" cy="20" r="1"/>
		<circle fill="#FFFFFF" cx="20" cy="18" r="1"/>
		<circle fill="#FFFFFF" cx="20" cy="22" r="1"/>
		<circle fill="#FFFFFF" cx="22" cy="20" r="1"/>
		<circle fill="#FFFFFF" cx="24" cy="18" r="1"/>
		<circle fill="#FFFFFF" cx="24" cy="22" r="1"/>
		<path fill="#FFFFFF" d="M30,13c0-2.2-1.5-4-3.5-4v2c0.8,0,1.5,0.9,1.5,2v12c0,1.1-0.9,2-2,2H6c-1.1,0-2-0.9-2-2V13
			c0-1.1,0.7-2,1.5-2V9C3.5,9,2,10.8,2,13c-0.6,0-1,0.4-1,1v4c0,0.6,0.4,1,1,1v6c0,2.2,1.8,4,4,4h20c2.2,0,4-1.8,4-4v-6
			c0.6,0,1-0.4,1-1v-4C31,13.4,30.6,13,30,13z"/>
		<path fill="#FFFFFF" d="M22,4.5h-1c-0.3,0-0.5,0.2-0.5,0.5s0.2,0.5,0.5,0.5h1c0.3,0,0.5,0.2,0.5,0.5v1c0,0.3,0.2,0.5,0.5,0.5
			s0.5-0.2,0.5-0.5V6C23.5,5.2,22.8,4.5,22,4.5z"/>
		<path fill="#FFFFFF" d="M10,7.5h8c0.3,0,0.5-0.2,0.5-0.5S18.3,6.5,18,6.5h-8C9.7,6.5,9.5,6.7,9.5,7S9.7,7.5,10,7.5z"/>
		<path fill="#FFFFFF" d="M10,9.5h5c0.3,0,0.5-0.2,0.5-0.5S15.3,8.5,15,8.5h-5C9.7,8.5,9.5,8.7,9.5,9S9.7,9.5,10,9.5z"/>
		<path fill="#FFFFFF" d="M22,10.5H10c-0.3,0-0.5,0.2-0.5,0.5s0.2,0.5,0.5,0.5h12c0.3,0,0.5-0.2,0.5-0.5S22.3,10.5,22,10.5z"/>
	</g>
</g>
<g id="txt" display="none">
	<g display="inline">
		<g>
		</g>
	</g>
</g>
</svg>
