<?xml version="1.0" encoding="utf-8"?>
<!-- Generator: Adobe Illustrator 16.0.0, SVG Export Plug-In . SVG Version: 6.00 Build 0)  -->
<!DOCTYPE svg PUBLIC "-//W3C//DTD SVG 1.1//EN" "http://www.w3.org/Graphics/SVG/1.1/DTD/svg11.dtd">
<svg version="1.1" xmlns="http://www.w3.org/2000/svg" xmlns:xlink="http://www.w3.org/1999/xlink" x="0px" y="0px" width="32px"
	 height="32px" viewBox="0 0 32 32" enable-background="new 0 0 32 32" xml:space="preserve">
<g id="grids" display="none">
	<g display="inline">
		<rect x="0" y="0" fill="#DADADA" width="2" height="2"/>
		<rect x="2" y="0" fill="#FFFFFF" width="2" height="2"/>
		<rect x="4" y="0" fill="#DADADA" width="2" height="2"/>
		<rect x="6" y="0" fill="#FFFFFF" width="2" height="2"/>
		<rect x="8" y="0" fill="#DADADA" width="2" height="2"/>
		<rect x="10" y="0" fill="#FFFFFF" width="2" height="2"/>
		<rect x="12" y="0" fill="#DADADA" width="2" height="2"/>
		<rect x="14" y="0" fill="#FFFFFF" width="2" height="2"/>
		<rect x="16" y="0" fill="#DADADA" width="2" height="2"/>
		<rect x="18" y="0" fill="#FFFFFF" width="2" height="2"/>
		<rect x="20" y="0" fill="#DADADA" width="2" height="2"/>
		<rect x="22" y="0" fill="#FFFFFF" width="2" height="2"/>
		<rect x="24" y="0" fill="#DADADA" width="2" height="2"/>
		<rect x="26" y="0" fill="#FFFFFF" width="2" height="2"/>
		<rect x="28" y="0" fill="#DADADA" width="2" height="2"/>
		<rect x="30" y="0" fill="#FFFFFF" width="2" height="2"/>
		<rect x="0" y="2" fill="#FFFFFF" width="2" height="2"/>
		<rect x="2" y="2" fill="#DADADA" width="2" height="2"/>
		<rect x="4" y="2" fill="#FFFFFF" width="2" height="2"/>
		<rect x="6" y="2" fill="#DADADA" width="2" height="2"/>
		<rect x="8" y="2" fill="#FFFFFF" width="2" height="2"/>
		<rect x="10" y="2" fill="#DADADA" width="2" height="2"/>
		<rect x="12" y="2" fill="#FFFFFF" width="2" height="2"/>
		<rect x="14" y="2" fill="#DADADA" width="2" height="2"/>
		<rect x="16" y="2" fill="#FFFFFF" width="2" height="2"/>
		<rect x="18" y="2" fill="#DADADA" width="2" height="2"/>
		<rect x="20" y="2" fill="#FFFFFF" width="2" height="2"/>
		<rect x="22" y="2" fill="#DADADA" width="2" height="2"/>
		<rect x="24" y="2" fill="#FFFFFF" width="2" height="2"/>
		<rect x="26" y="2" fill="#DADADA" width="2" height="2"/>
		<rect x="28" y="2" fill="#FFFFFF" width="2" height="2"/>
		<rect x="30" y="2" fill="#DADADA" width="2" height="2"/>
		<rect x="0" y="4" fill="#DADADA" width="2" height="2"/>
		<rect x="2" y="4" fill="#FFFFFF" width="2" height="2"/>
		<rect x="4" y="4" fill="#DADADA" width="2" height="2"/>
		<rect x="6" y="4" fill="#FFFFFF" width="2" height="2"/>
		<rect x="8" y="4" fill="#DADADA" width="2" height="2"/>
		<rect x="10" y="4" fill="#FFFFFF" width="2" height="2"/>
		<rect x="12" y="4" fill="#DADADA" width="2" height="2"/>
		<rect x="14" y="4" fill="#FFFFFF" width="2" height="2"/>
		<rect x="16" y="4" fill="#DADADA" width="2" height="2"/>
		<rect x="18" y="4" fill="#FFFFFF" width="2" height="2"/>
		<rect x="20" y="4" fill="#DADADA" width="2" height="2"/>
		<rect x="22" y="4" fill="#FFFFFF" width="2" height="2"/>
		<rect x="24" y="4" fill="#DADADA" width="2" height="2"/>
		<rect x="26" y="4" fill="#FFFFFF" width="2" height="2"/>
		<rect x="28" y="4" fill="#DADADA" width="2" height="2"/>
		<rect x="30" y="4" fill="#FFFFFF" width="2" height="2"/>
		<rect x="0" y="6" fill="#FFFFFF" width="2" height="2"/>
		<rect x="2" y="6" fill="#DADADA" width="2" height="2"/>
		<rect x="4" y="6" fill="#FFFFFF" width="2" height="2"/>
		<rect x="6" y="6" fill="#DADADA" width="2" height="2"/>
		<rect x="8" y="6" fill="#FFFFFF" width="2" height="2"/>
		<rect x="10" y="6" fill="#DADADA" width="2" height="2"/>
		<rect x="12" y="6" fill="#FFFFFF" width="2" height="2"/>
		<rect x="14" y="6" fill="#DADADA" width="2" height="2"/>
		<rect x="16" y="6" fill="#FFFFFF" width="2" height="2"/>
		<rect x="18" y="6" fill="#DADADA" width="2" height="2"/>
		<rect x="20" y="6" fill="#FFFFFF" width="2" height="2"/>
		<rect x="22" y="6" fill="#DADADA" width="2" height="2"/>
		<rect x="24" y="6" fill="#FFFFFF" width="2" height="2"/>
		<rect x="26" y="6" fill="#DADADA" width="2" height="2"/>
		<rect x="28" y="6" fill="#FFFFFF" width="2" height="2"/>
		<rect x="30" y="6" fill="#DADADA" width="2" height="2"/>
		<rect x="0" y="8" fill="#DADADA" width="2" height="2"/>
		<rect x="2" y="8" fill="#FFFFFF" width="2" height="2"/>
		<rect x="4" y="8" fill="#DADADA" width="2" height="2"/>
		<rect x="6" y="8" fill="#FFFFFF" width="2" height="2"/>
		<rect x="8" y="8" fill="#DADADA" width="2" height="2"/>
		<rect x="10" y="8" fill="#FFFFFF" width="2" height="2"/>
		<rect x="12" y="8" fill="#DADADA" width="2" height="2"/>
		<rect x="14" y="8" fill="#FFFFFF" width="2" height="2"/>
		<rect x="16" y="8" fill="#DADADA" width="2" height="2"/>
		<rect x="18" y="8" fill="#FFFFFF" width="2" height="2"/>
		<rect x="20" y="8" fill="#DADADA" width="2" height="2"/>
		<rect x="22" y="8" fill="#FFFFFF" width="2" height="2"/>
		<rect x="24" y="8" fill="#DADADA" width="2" height="2"/>
		<rect x="26" y="8" fill="#FFFFFF" width="2" height="2"/>
		<rect x="28" y="8" fill="#DADADA" width="2" height="2"/>
		<rect x="30" y="8" fill="#FFFFFF" width="2" height="2"/>
		<rect x="0" y="10" fill="#FFFFFF" width="2" height="2"/>
		<rect x="2" y="10" fill="#DADADA" width="2" height="2"/>
		<rect x="4" y="10" fill="#FFFFFF" width="2" height="2"/>
		<rect x="6" y="10" fill="#DADADA" width="2" height="2"/>
		<rect x="8" y="10" fill="#FFFFFF" width="2" height="2"/>
		<rect x="10" y="10" fill="#DADADA" width="2" height="2"/>
		<rect x="12" y="10" fill="#FFFFFF" width="2" height="2"/>
		<rect x="14" y="10" fill="#DADADA" width="2" height="2"/>
		<rect x="16" y="10" fill="#FFFFFF" width="2" height="2"/>
		<rect x="18" y="10" fill="#DADADA" width="2" height="2"/>
		<rect x="20" y="10" fill="#FFFFFF" width="2" height="2"/>
		<rect x="22" y="10" fill="#DADADA" width="2" height="2"/>
		<rect x="24" y="10" fill="#FFFFFF" width="2" height="2"/>
		<rect x="26" y="10" fill="#DADADA" width="2" height="2"/>
		<rect x="28" y="10" fill="#FFFFFF" width="2" height="2"/>
		<rect x="30" y="10" fill="#DADADA" width="2" height="2"/>
		<rect x="0" y="12" fill="#DADADA" width="2" height="2"/>
		<rect x="2" y="12" fill="#FFFFFF" width="2" height="2"/>
		<rect x="4" y="12" fill="#DADADA" width="2" height="2"/>
		<rect x="6" y="12" fill="#FFFFFF" width="2" height="2"/>
		<rect x="8" y="12" fill="#DADADA" width="2" height="2"/>
		<rect x="10" y="12" fill="#FFFFFF" width="2" height="2"/>
		<rect x="12" y="12" fill="#DADADA" width="2" height="2"/>
		<rect x="14" y="12" fill="#FFFFFF" width="2" height="2"/>
		<rect x="16" y="12" fill="#DADADA" width="2" height="2"/>
		<rect x="18" y="12" fill="#FFFFFF" width="2" height="2"/>
		<rect x="20" y="12" fill="#DADADA" width="2" height="2"/>
		<rect x="22" y="12" fill="#FFFFFF" width="2" height="2"/>
		<rect x="24" y="12" fill="#DADADA" width="2" height="2"/>
		<rect x="26" y="12" fill="#FFFFFF" width="2" height="2"/>
		<rect x="28" y="12" fill="#DADADA" width="2" height="2"/>
		<rect x="30" y="12" fill="#FFFFFF" width="2" height="2"/>
		<rect x="0" y="14" fill="#FFFFFF" width="2" height="2"/>
		<rect x="2" y="14" fill="#DADADA" width="2" height="2"/>
		<rect x="4" y="14" fill="#FFFFFF" width="2" height="2"/>
		<rect x="6" y="14" fill="#DADADA" width="2" height="2"/>
		<rect x="8" y="14" fill="#FFFFFF" width="2" height="2"/>
		<rect x="10" y="14" fill="#DADADA" width="2" height="2"/>
		<rect x="12" y="14" fill="#FFFFFF" width="2" height="2"/>
		<rect x="14" y="14" fill="#DADADA" width="2" height="2"/>
		<rect x="16" y="14" fill="#FFFFFF" width="2" height="2"/>
		<rect x="18" y="14" fill="#DADADA" width="2" height="2"/>
		<rect x="20" y="14" fill="#FFFFFF" width="2" height="2"/>
		<rect x="22" y="14" fill="#DADADA" width="2" height="2"/>
		<rect x="24" y="14" fill="#FFFFFF" width="2" height="2"/>
		<rect x="26" y="14" fill="#DADADA" width="2" height="2"/>
		<rect x="28" y="14" fill="#FFFFFF" width="2" height="2"/>
		<rect x="30" y="14" fill="#DADADA" width="2" height="2"/>
		<rect x="0" y="16" fill="#DADADA" width="2" height="2"/>
		<rect x="2" y="16" fill="#FFFFFF" width="2" height="2"/>
		<rect x="4" y="16" fill="#DADADA" width="2" height="2"/>
		<rect x="6" y="16" fill="#FFFFFF" width="2" height="2"/>
		<rect x="8" y="16" fill="#DADADA" width="2" height="2"/>
		<rect x="10" y="16" fill="#FFFFFF" width="2" height="2"/>
		<rect x="12" y="16" fill="#DADADA" width="2" height="2"/>
		<rect x="14" y="16" fill="#FFFFFF" width="2" height="2"/>
		<rect x="16" y="16" fill="#DADADA" width="2" height="2"/>
		<rect x="18" y="16" fill="#FFFFFF" width="2" height="2"/>
		<rect x="20" y="16" fill="#DADADA" width="2" height="2"/>
		<rect x="22" y="16" fill="#FFFFFF" width="2" height="2"/>
		<rect x="24" y="16" fill="#DADADA" width="2" height="2"/>
		<rect x="26" y="16" fill="#FFFFFF" width="2" height="2"/>
		<rect x="28" y="16" fill="#DADADA" width="2" height="2"/>
		<rect x="30" y="16" fill="#FFFFFF" width="2" height="2"/>
		<rect x="0" y="18" fill="#FFFFFF" width="2" height="2"/>
		<rect x="2" y="18" fill="#DADADA" width="2" height="2"/>
		<rect x="4" y="18" fill="#FFFFFF" width="2" height="2"/>
		<rect x="6" y="18" fill="#DADADA" width="2" height="2"/>
		<rect x="8" y="18" fill="#FFFFFF" width="2" height="2"/>
		<rect x="10" y="18" fill="#DADADA" width="2" height="2"/>
		<rect x="12" y="18" fill="#FFFFFF" width="2" height="2"/>
		<rect x="14" y="18" fill="#DADADA" width="2" height="2"/>
		<rect x="16" y="18" fill="#FFFFFF" width="2" height="2"/>
		<rect x="18" y="18" fill="#DADADA" width="2" height="2"/>
		<rect x="20" y="18" fill="#FFFFFF" width="2" height="2"/>
		<rect x="22" y="18" fill="#DADADA" width="2" height="2"/>
		<rect x="24" y="18" fill="#FFFFFF" width="2" height="2"/>
		<rect x="26" y="18" fill="#DADADA" width="2" height="2"/>
		<rect x="28" y="18" fill="#FFFFFF" width="2" height="2"/>
		<rect x="30" y="18" fill="#DADADA" width="2" height="2"/>
		<rect x="0" y="20" fill="#DADADA" width="2" height="2"/>
		<rect x="2" y="20" fill="#FFFFFF" width="2" height="2"/>
		<rect x="4" y="20" fill="#DADADA" width="2" height="2"/>
		<rect x="6" y="20" fill="#FFFFFF" width="2" height="2"/>
		<rect x="8" y="20" fill="#DADADA" width="2" height="2"/>
		<rect x="10" y="20" fill="#FFFFFF" width="2" height="2"/>
		<rect x="12" y="20" fill="#DADADA" width="2" height="2"/>
		<rect x="14" y="20" fill="#FFFFFF" width="2" height="2"/>
		<rect x="16" y="20" fill="#DADADA" width="2" height="2"/>
		<rect x="18" y="20" fill="#FFFFFF" width="2" height="2"/>
		<rect x="20" y="20" fill="#DADADA" width="2" height="2"/>
		<rect x="22" y="20" fill="#FFFFFF" width="2" height="2"/>
		<rect x="24" y="20" fill="#DADADA" width="2" height="2"/>
		<rect x="26" y="20" fill="#FFFFFF" width="2" height="2"/>
		<rect x="28" y="20" fill="#DADADA" width="2" height="2"/>
		<rect x="30" y="20" fill="#FFFFFF" width="2" height="2"/>
		<rect x="0" y="22" fill="#FFFFFF" width="2" height="2"/>
		<rect x="2" y="22" fill="#DADADA" width="2" height="2"/>
		<rect x="4" y="22" fill="#FFFFFF" width="2" height="2"/>
		<rect x="6" y="22" fill="#DADADA" width="2" height="2"/>
		<rect x="8" y="22" fill="#FFFFFF" width="2" height="2"/>
		<rect x="10" y="22" fill="#DADADA" width="2" height="2"/>
		<rect x="12" y="22" fill="#FFFFFF" width="2" height="2"/>
		<rect x="14" y="22" fill="#DADADA" width="2" height="2"/>
		<rect x="16" y="22" fill="#FFFFFF" width="2" height="2"/>
		<rect x="18" y="22" fill="#DADADA" width="2" height="2"/>
		<rect x="20" y="22" fill="#FFFFFF" width="2" height="2"/>
		<rect x="22" y="22" fill="#DADADA" width="2" height="2"/>
		<rect x="24" y="22" fill="#FFFFFF" width="2" height="2"/>
		<rect x="26" y="22" fill="#DADADA" width="2" height="2"/>
		<rect x="28" y="22" fill="#FFFFFF" width="2" height="2"/>
		<rect x="30" y="22" fill="#DADADA" width="2" height="2"/>
		<rect x="0" y="24" fill="#DADADA" width="2" height="2"/>
		<rect x="2" y="24" fill="#FFFFFF" width="2" height="2"/>
		<rect x="4" y="24" fill="#DADADA" width="2" height="2"/>
		<rect x="6" y="24" fill="#FFFFFF" width="2" height="2"/>
		<rect x="8" y="24" fill="#DADADA" width="2" height="2"/>
		<rect x="10" y="24" fill="#FFFFFF" width="2" height="2"/>
		<rect x="12" y="24" fill="#DADADA" width="2" height="2"/>
		<rect x="14" y="24" fill="#FFFFFF" width="2" height="2"/>
		<rect x="16" y="24" fill="#DADADA" width="2" height="2"/>
		<rect x="18" y="24" fill="#FFFFFF" width="2" height="2"/>
		<rect x="20" y="24" fill="#DADADA" width="2" height="2"/>
		<rect x="22" y="24" fill="#FFFFFF" width="2" height="2"/>
		<rect x="24" y="24" fill="#DADADA" width="2" height="2"/>
		<rect x="26" y="24" fill="#FFFFFF" width="2" height="2"/>
		<rect x="28" y="24" fill="#DADADA" width="2" height="2"/>
		<rect x="30" y="24" fill="#FFFFFF" width="2" height="2"/>
		<rect x="0" y="26" fill="#FFFFFF" width="2" height="2"/>
		<rect x="2" y="26" fill="#DADADA" width="2" height="2"/>
		<rect x="4" y="26" fill="#FFFFFF" width="2" height="2"/>
		<rect x="6" y="26" fill="#DADADA" width="2" height="2"/>
		<rect x="8" y="26" fill="#FFFFFF" width="2" height="2"/>
		<rect x="10" y="26" fill="#DADADA" width="2" height="2"/>
		<rect x="12" y="26" fill="#FFFFFF" width="2" height="2"/>
		<rect x="14" y="26" fill="#DADADA" width="2" height="2"/>
		<rect x="16" y="26" fill="#FFFFFF" width="2" height="2"/>
		<rect x="18" y="26" fill="#DADADA" width="2" height="2"/>
		<rect x="20" y="26" fill="#FFFFFF" width="2" height="2"/>
		<rect x="22" y="26" fill="#DADADA" width="2" height="2"/>
		<rect x="24" y="26" fill="#FFFFFF" width="2" height="2"/>
		<rect x="26" y="26" fill="#DADADA" width="2" height="2"/>
		<rect x="28" y="26" fill="#FFFFFF" width="2" height="2"/>
		<rect x="30" y="26" fill="#DADADA" width="2" height="2"/>
		<rect x="0" y="28" fill="#DADADA" width="2" height="2"/>
		<rect x="2" y="28" fill="#FFFFFF" width="2" height="2"/>
		<rect x="4" y="28" fill="#DADADA" width="2" height="2"/>
		<rect x="6" y="28" fill="#FFFFFF" width="2" height="2"/>
		<rect x="8" y="28" fill="#DADADA" width="2" height="2"/>
		<rect x="10" y="28" fill="#FFFFFF" width="2" height="2"/>
		<rect x="12" y="28" fill="#DADADA" width="2" height="2"/>
		<rect x="14" y="28" fill="#FFFFFF" width="2" height="2"/>
		<rect x="16" y="28" fill="#DADADA" width="2" height="2"/>
		<rect x="18" y="28" fill="#FFFFFF" width="2" height="2"/>
		<rect x="20" y="28" fill="#DADADA" width="2" height="2"/>
		<rect x="22" y="28" fill="#FFFFFF" width="2" height="2"/>
		<rect x="24" y="28" fill="#DADADA" width="2" height="2"/>
		<rect x="26" y="28" fill="#FFFFFF" width="2" height="2"/>
		<rect x="28" y="28" fill="#DADADA" width="2" height="2"/>
		<rect x="30" y="28" fill="#FFFFFF" width="2" height="2"/>
		<rect x="0" y="30" fill="#FFFFFF" width="2" height="2"/>
		<rect x="2" y="30" fill="#DADADA" width="2" height="2"/>
		<rect x="4" y="30" fill="#FFFFFF" width="2" height="2"/>
		<rect x="6" y="30" fill="#DADADA" width="2" height="2"/>
		<rect x="8" y="30" fill="#FFFFFF" width="2" height="2"/>
		<rect x="10" y="30" fill="#DADADA" width="2" height="2"/>
		<rect x="12" y="30" fill="#FFFFFF" width="2" height="2"/>
		<rect x="14" y="30" fill="#DADADA" width="2" height="2"/>
		<rect x="16" y="30" fill="#FFFFFF" width="2" height="2"/>
		<rect x="18" y="30" fill="#DADADA" width="2" height="2"/>
		<rect x="20" y="30" fill="#FFFFFF" width="2" height="2"/>
		<rect x="22" y="30" fill="#DADADA" width="2" height="2"/>
		<rect x="24" y="30" fill="#FFFFFF" width="2" height="2"/>
		<rect x="26" y="30" fill="#DADADA" width="2" height="2"/>
		<rect x="28" y="30" fill="#FFFFFF" width="2" height="2"/>
		<rect x="30" y="30" fill="#DADADA" width="2" height="2"/>
	</g>
</g>
<g id="BG" display="none">
	<rect x="-181" y="-123.7" display="inline" width="314" height="521.3"/>
</g>
<g id="ICONS">
	<g>
		<g>
			<path fill="#FFFFFF" d="M8,25c-0.1,0-0.3,0-0.4-0.1C7.2,24.8,7,24.4,7,24l0-4.3c-2.5-1.5-4-4-4-6.7c0-4.4,4-8,9-8s9,3.6,9,8
				c0,4.3-3.8,7.8-8.6,8l-3.7,3.7C8.5,24.9,8.3,25,8,25z M12,7c-3.9,0-7,2.7-7,6c0,2.1,1.3,4.1,3.5,5.2C8.8,18.3,9,18.7,9,19.1
				l0,2.5l2.3-2.3c0.2-0.2,0.4-0.3,0.7-0.3c3.9,0,7-2.7,7-6S15.9,7,12,7z"/>
		</g>
		<g>
			<path fill="#FFFFFF" d="M24,27c-0.3,0-0.5-0.1-0.7-0.3L19.6,23c-1.4,0-3.2-0.2-5.3-2.3c-0.4-0.4-0.4-1,0-1.4s1-0.4,1.4,0
				C17.4,21,18.6,21,20,21c0.3,0,0.5,0.1,0.7,0.3l2.3,2.3l0-2.5c0-0.4,0.2-0.7,0.6-0.9c2.1-1.1,3.5-3.1,3.5-5.2c0-3.3-3.1-6-7-6
				l-0.5,0c-0.4,0-1.2,0-1.4,0c-0.6,0.1-1-0.3-1.1-0.9c-0.1-0.5,0.3-1,0.9-1.1c0.3,0,0.9,0,1.7,0L20,7c5,0,9,3.6,9,8
				c0,2.7-1.5,5.2-4,6.7l0,4.3c0,0.4-0.2,0.8-0.6,0.9C24.3,27,24.1,27,24,27z"/>
		</g>
		<g>
			<path fill="#FFFFFF" d="M7,12.5c-0.1,0-0.1,0-0.2,0c-0.3-0.1-0.4-0.4-0.3-0.6C7.4,9.2,9.8,8.5,11,8.5c0.3,0,0.5,0.2,0.5,0.5
				S11.3,9.5,11,9.5c-0.1,0-2.7,0-3.5,2.7C7.4,12.4,7.2,12.5,7,12.5z"/>
		</g>
		<g>
			<path fill="#FFFFFF" d="M25,14.5c-0.2,0-0.4-0.1-0.5-0.3c-0.9-2.6-3.4-2.7-3.5-2.7c-0.3,0-0.5-0.2-0.5-0.5s0.2-0.5,0.5-0.5
				c1.2,0,3.6,0.7,4.5,3.3c0.1,0.3-0.1,0.5-0.3,0.6C25.1,14.5,25.1,14.5,25,14.5z"/>
		</g>
	</g>
</g>
<g id="txt" display="none">
	<g display="inline">
		<g>
		</g>
	</g>
</g>
</svg>
