<?xml version="1.0" encoding="utf-8"?>
<!-- Generator: Adobe Illustrator 16.0.0, SVG Export Plug-In . SVG Version: 6.00 Build 0)  -->
<!DOCTYPE svg PUBLIC "-//W3C//DTD SVG 1.1//EN" "http://www.w3.org/Graphics/SVG/1.1/DTD/svg11.dtd">
<svg version="1.1" xmlns="http://www.w3.org/2000/svg" xmlns:xlink="http://www.w3.org/1999/xlink" x="0px" y="0px" width="32px"
	 height="32px" viewBox="0 0 32 32" enable-background="new 0 0 32 32" xml:space="preserve">
<g id="grids" display="none">
	<g display="inline">
		<rect x="0" y="0" fill="#DADADA" width="2" height="2"/>
		<rect x="2" y="0" fill="#FFFFFF" width="2" height="2"/>
		<rect x="4" y="0" fill="#DADADA" width="2" height="2"/>
		<rect x="6" y="0" fill="#FFFFFF" width="2" height="2"/>
		<rect x="8" y="0" fill="#DADADA" width="2" height="2"/>
		<rect x="10" y="0" fill="#FFFFFF" width="2" height="2"/>
		<rect x="12" y="0" fill="#DADADA" width="2" height="2"/>
		<rect x="14" y="0" fill="#FFFFFF" width="2" height="2"/>
		<rect x="16" y="0" fill="#DADADA" width="2" height="2"/>
		<rect x="18" y="0" fill="#FFFFFF" width="2" height="2"/>
		<rect x="20" y="0" fill="#DADADA" width="2" height="2"/>
		<rect x="22" y="0" fill="#FFFFFF" width="2" height="2"/>
		<rect x="24" y="0" fill="#DADADA" width="2" height="2"/>
		<rect x="26" y="0" fill="#FFFFFF" width="2" height="2"/>
		<rect x="28" y="0" fill="#DADADA" width="2" height="2"/>
		<rect x="30" y="0" fill="#FFFFFF" width="2" height="2"/>
		<rect x="0" y="2" fill="#FFFFFF" width="2" height="2"/>
		<rect x="2" y="2" fill="#DADADA" width="2" height="2"/>
		<rect x="4" y="2" fill="#FFFFFF" width="2" height="2"/>
		<rect x="6" y="2" fill="#DADADA" width="2" height="2"/>
		<rect x="8" y="2" fill="#FFFFFF" width="2" height="2"/>
		<rect x="10" y="2" fill="#DADADA" width="2" height="2"/>
		<rect x="12" y="2" fill="#FFFFFF" width="2" height="2"/>
		<rect x="14" y="2" fill="#DADADA" width="2" height="2"/>
		<rect x="16" y="2" fill="#FFFFFF" width="2" height="2"/>
		<rect x="18" y="2" fill="#DADADA" width="2" height="2"/>
		<rect x="20" y="2" fill="#FFFFFF" width="2" height="2"/>
		<rect x="22" y="2" fill="#DADADA" width="2" height="2"/>
		<rect x="24" y="2" fill="#FFFFFF" width="2" height="2"/>
		<rect x="26" y="2" fill="#DADADA" width="2" height="2"/>
		<rect x="28" y="2" fill="#FFFFFF" width="2" height="2"/>
		<rect x="30" y="2" fill="#DADADA" width="2" height="2"/>
		<rect x="0" y="4" fill="#DADADA" width="2" height="2"/>
		<rect x="2" y="4" fill="#FFFFFF" width="2" height="2"/>
		<rect x="4" y="4" fill="#DADADA" width="2" height="2"/>
		<rect x="6" y="4" fill="#FFFFFF" width="2" height="2"/>
		<rect x="8" y="4" fill="#DADADA" width="2" height="2"/>
		<rect x="10" y="4" fill="#FFFFFF" width="2" height="2"/>
		<rect x="12" y="4" fill="#DADADA" width="2" height="2"/>
		<rect x="14" y="4" fill="#FFFFFF" width="2" height="2"/>
		<rect x="16" y="4" fill="#DADADA" width="2" height="2"/>
		<rect x="18" y="4" fill="#FFFFFF" width="2" height="2"/>
		<rect x="20" y="4" fill="#DADADA" width="2" height="2"/>
		<rect x="22" y="4" fill="#FFFFFF" width="2" height="2"/>
		<rect x="24" y="4" fill="#DADADA" width="2" height="2"/>
		<rect x="26" y="4" fill="#FFFFFF" width="2" height="2"/>
		<rect x="28" y="4" fill="#DADADA" width="2" height="2"/>
		<rect x="30" y="4" fill="#FFFFFF" width="2" height="2"/>
		<rect x="0" y="6" fill="#FFFFFF" width="2" height="2"/>
		<rect x="2" y="6" fill="#DADADA" width="2" height="2"/>
		<rect x="4" y="6" fill="#FFFFFF" width="2" height="2"/>
		<rect x="6" y="6" fill="#DADADA" width="2" height="2"/>
		<rect x="8" y="6" fill="#FFFFFF" width="2" height="2"/>
		<rect x="10" y="6" fill="#DADADA" width="2" height="2"/>
		<rect x="12" y="6" fill="#FFFFFF" width="2" height="2"/>
		<rect x="14" y="6" fill="#DADADA" width="2" height="2"/>
		<rect x="16" y="6" fill="#FFFFFF" width="2" height="2"/>
		<rect x="18" y="6" fill="#DADADA" width="2" height="2"/>
		<rect x="20" y="6" fill="#FFFFFF" width="2" height="2"/>
		<rect x="22" y="6" fill="#DADADA" width="2" height="2"/>
		<rect x="24" y="6" fill="#FFFFFF" width="2" height="2"/>
		<rect x="26" y="6" fill="#DADADA" width="2" height="2"/>
		<rect x="28" y="6" fill="#FFFFFF" width="2" height="2"/>
		<rect x="30" y="6" fill="#DADADA" width="2" height="2"/>
		<rect x="0" y="8" fill="#DADADA" width="2" height="2"/>
		<rect x="2" y="8" fill="#FFFFFF" width="2" height="2"/>
		<rect x="4" y="8" fill="#DADADA" width="2" height="2"/>
		<rect x="6" y="8" fill="#FFFFFF" width="2" height="2"/>
		<rect x="8" y="8" fill="#DADADA" width="2" height="2"/>
		<rect x="10" y="8" fill="#FFFFFF" width="2" height="2"/>
		<rect x="12" y="8" fill="#DADADA" width="2" height="2"/>
		<rect x="14" y="8" fill="#FFFFFF" width="2" height="2"/>
		<rect x="16" y="8" fill="#DADADA" width="2" height="2"/>
		<rect x="18" y="8" fill="#FFFFFF" width="2" height="2"/>
		<rect x="20" y="8" fill="#DADADA" width="2" height="2"/>
		<rect x="22" y="8" fill="#FFFFFF" width="2" height="2"/>
		<rect x="24" y="8" fill="#DADADA" width="2" height="2"/>
		<rect x="26" y="8" fill="#FFFFFF" width="2" height="2"/>
		<rect x="28" y="8" fill="#DADADA" width="2" height="2"/>
		<rect x="30" y="8" fill="#FFFFFF" width="2" height="2"/>
		<rect x="0" y="10" fill="#FFFFFF" width="2" height="2"/>
		<rect x="2" y="10" fill="#DADADA" width="2" height="2"/>
		<rect x="4" y="10" fill="#FFFFFF" width="2" height="2"/>
		<rect x="6" y="10" fill="#DADADA" width="2" height="2"/>
		<rect x="8" y="10" fill="#FFFFFF" width="2" height="2"/>
		<rect x="10" y="10" fill="#DADADA" width="2" height="2"/>
		<rect x="12" y="10" fill="#FFFFFF" width="2" height="2"/>
		<rect x="14" y="10" fill="#DADADA" width="2" height="2"/>
		<rect x="16" y="10" fill="#FFFFFF" width="2" height="2"/>
		<rect x="18" y="10" fill="#DADADA" width="2" height="2"/>
		<rect x="20" y="10" fill="#FFFFFF" width="2" height="2"/>
		<rect x="22" y="10" fill="#DADADA" width="2" height="2"/>
		<rect x="24" y="10" fill="#FFFFFF" width="2" height="2"/>
		<rect x="26" y="10" fill="#DADADA" width="2" height="2"/>
		<rect x="28" y="10" fill="#FFFFFF" width="2" height="2"/>
		<rect x="30" y="10" fill="#DADADA" width="2" height="2"/>
		<rect x="0" y="12" fill="#DADADA" width="2" height="2"/>
		<rect x="2" y="12" fill="#FFFFFF" width="2" height="2"/>
		<rect x="4" y="12" fill="#DADADA" width="2" height="2"/>
		<rect x="6" y="12" fill="#FFFFFF" width="2" height="2"/>
		<rect x="8" y="12" fill="#DADADA" width="2" height="2"/>
		<rect x="10" y="12" fill="#FFFFFF" width="2" height="2"/>
		<rect x="12" y="12" fill="#DADADA" width="2" height="2"/>
		<rect x="14" y="12" fill="#FFFFFF" width="2" height="2"/>
		<rect x="16" y="12" fill="#DADADA" width="2" height="2"/>
		<rect x="18" y="12" fill="#FFFFFF" width="2" height="2"/>
		<rect x="20" y="12" fill="#DADADA" width="2" height="2"/>
		<rect x="22" y="12" fill="#FFFFFF" width="2" height="2"/>
		<rect x="24" y="12" fill="#DADADA" width="2" height="2"/>
		<rect x="26" y="12" fill="#FFFFFF" width="2" height="2"/>
		<rect x="28" y="12" fill="#DADADA" width="2" height="2"/>
		<rect x="30" y="12" fill="#FFFFFF" width="2" height="2"/>
		<rect x="0" y="14" fill="#FFFFFF" width="2" height="2"/>
		<rect x="2" y="14" fill="#DADADA" width="2" height="2"/>
		<rect x="4" y="14" fill="#FFFFFF" width="2" height="2"/>
		<rect x="6" y="14" fill="#DADADA" width="2" height="2"/>
		<rect x="8" y="14" fill="#FFFFFF" width="2" height="2"/>
		<rect x="10" y="14" fill="#DADADA" width="2" height="2"/>
		<rect x="12" y="14" fill="#FFFFFF" width="2" height="2"/>
		<rect x="14" y="14" fill="#DADADA" width="2" height="2"/>
		<rect x="16" y="14" fill="#FFFFFF" width="2" height="2"/>
		<rect x="18" y="14" fill="#DADADA" width="2" height="2"/>
		<rect x="20" y="14" fill="#FFFFFF" width="2" height="2"/>
		<rect x="22" y="14" fill="#DADADA" width="2" height="2"/>
		<rect x="24" y="14" fill="#FFFFFF" width="2" height="2"/>
		<rect x="26" y="14" fill="#DADADA" width="2" height="2"/>
		<rect x="28" y="14" fill="#FFFFFF" width="2" height="2"/>
		<rect x="30" y="14" fill="#DADADA" width="2" height="2"/>
		<rect x="0" y="16" fill="#DADADA" width="2" height="2"/>
		<rect x="2" y="16" fill="#FFFFFF" width="2" height="2"/>
		<rect x="4" y="16" fill="#DADADA" width="2" height="2"/>
		<rect x="6" y="16" fill="#FFFFFF" width="2" height="2"/>
		<rect x="8" y="16" fill="#DADADA" width="2" height="2"/>
		<rect x="10" y="16" fill="#FFFFFF" width="2" height="2"/>
		<rect x="12" y="16" fill="#DADADA" width="2" height="2"/>
		<rect x="14" y="16" fill="#FFFFFF" width="2" height="2"/>
		<rect x="16" y="16" fill="#DADADA" width="2" height="2"/>
		<rect x="18" y="16" fill="#FFFFFF" width="2" height="2"/>
		<rect x="20" y="16" fill="#DADADA" width="2" height="2"/>
		<rect x="22" y="16" fill="#FFFFFF" width="2" height="2"/>
		<rect x="24" y="16" fill="#DADADA" width="2" height="2"/>
		<rect x="26" y="16" fill="#FFFFFF" width="2" height="2"/>
		<rect x="28" y="16" fill="#DADADA" width="2" height="2"/>
		<rect x="30" y="16" fill="#FFFFFF" width="2" height="2"/>
		<rect x="0" y="18" fill="#FFFFFF" width="2" height="2"/>
		<rect x="2" y="18" fill="#DADADA" width="2" height="2"/>
		<rect x="4" y="18" fill="#FFFFFF" width="2" height="2"/>
		<rect x="6" y="18" fill="#DADADA" width="2" height="2"/>
		<rect x="8" y="18" fill="#FFFFFF" width="2" height="2"/>
		<rect x="10" y="18" fill="#DADADA" width="2" height="2"/>
		<rect x="12" y="18" fill="#FFFFFF" width="2" height="2"/>
		<rect x="14" y="18" fill="#DADADA" width="2" height="2"/>
		<rect x="16" y="18" fill="#FFFFFF" width="2" height="2"/>
		<rect x="18" y="18" fill="#DADADA" width="2" height="2"/>
		<rect x="20" y="18" fill="#FFFFFF" width="2" height="2"/>
		<rect x="22" y="18" fill="#DADADA" width="2" height="2"/>
		<rect x="24" y="18" fill="#FFFFFF" width="2" height="2"/>
		<rect x="26" y="18" fill="#DADADA" width="2" height="2"/>
		<rect x="28" y="18" fill="#FFFFFF" width="2" height="2"/>
		<rect x="30" y="18" fill="#DADADA" width="2" height="2"/>
		<rect x="0" y="20" fill="#DADADA" width="2" height="2"/>
		<rect x="2" y="20" fill="#FFFFFF" width="2" height="2"/>
		<rect x="4" y="20" fill="#DADADA" width="2" height="2"/>
		<rect x="6" y="20" fill="#FFFFFF" width="2" height="2"/>
		<rect x="8" y="20" fill="#DADADA" width="2" height="2"/>
		<rect x="10" y="20" fill="#FFFFFF" width="2" height="2"/>
		<rect x="12" y="20" fill="#DADADA" width="2" height="2"/>
		<rect x="14" y="20" fill="#FFFFFF" width="2" height="2"/>
		<rect x="16" y="20" fill="#DADADA" width="2" height="2"/>
		<rect x="18" y="20" fill="#FFFFFF" width="2" height="2"/>
		<rect x="20" y="20" fill="#DADADA" width="2" height="2"/>
		<rect x="22" y="20" fill="#FFFFFF" width="2" height="2"/>
		<rect x="24" y="20" fill="#DADADA" width="2" height="2"/>
		<rect x="26" y="20" fill="#FFFFFF" width="2" height="2"/>
		<rect x="28" y="20" fill="#DADADA" width="2" height="2"/>
		<rect x="30" y="20" fill="#FFFFFF" width="2" height="2"/>
		<rect x="0" y="22" fill="#FFFFFF" width="2" height="2"/>
		<rect x="2" y="22" fill="#DADADA" width="2" height="2"/>
		<rect x="4" y="22" fill="#FFFFFF" width="2" height="2"/>
		<rect x="6" y="22" fill="#DADADA" width="2" height="2"/>
		<rect x="8" y="22" fill="#FFFFFF" width="2" height="2"/>
		<rect x="10" y="22" fill="#DADADA" width="2" height="2"/>
		<rect x="12" y="22" fill="#FFFFFF" width="2" height="2"/>
		<rect x="14" y="22" fill="#DADADA" width="2" height="2"/>
		<rect x="16" y="22" fill="#FFFFFF" width="2" height="2"/>
		<rect x="18" y="22" fill="#DADADA" width="2" height="2"/>
		<rect x="20" y="22" fill="#FFFFFF" width="2" height="2"/>
		<rect x="22" y="22" fill="#DADADA" width="2" height="2"/>
		<rect x="24" y="22" fill="#FFFFFF" width="2" height="2"/>
		<rect x="26" y="22" fill="#DADADA" width="2" height="2"/>
		<rect x="28" y="22" fill="#FFFFFF" width="2" height="2"/>
		<rect x="30" y="22" fill="#DADADA" width="2" height="2"/>
		<rect x="0" y="24" fill="#DADADA" width="2" height="2"/>
		<rect x="2" y="24" fill="#FFFFFF" width="2" height="2"/>
		<rect x="4" y="24" fill="#DADADA" width="2" height="2"/>
		<rect x="6" y="24" fill="#FFFFFF" width="2" height="2"/>
		<rect x="8" y="24" fill="#DADADA" width="2" height="2"/>
		<rect x="10" y="24" fill="#FFFFFF" width="2" height="2"/>
		<rect x="12" y="24" fill="#DADADA" width="2" height="2"/>
		<rect x="14" y="24" fill="#FFFFFF" width="2" height="2"/>
		<rect x="16" y="24" fill="#DADADA" width="2" height="2"/>
		<rect x="18" y="24" fill="#FFFFFF" width="2" height="2"/>
		<rect x="20" y="24" fill="#DADADA" width="2" height="2"/>
		<rect x="22" y="24" fill="#FFFFFF" width="2" height="2"/>
		<rect x="24" y="24" fill="#DADADA" width="2" height="2"/>
		<rect x="26" y="24" fill="#FFFFFF" width="2" height="2"/>
		<rect x="28" y="24" fill="#DADADA" width="2" height="2"/>
		<rect x="30" y="24" fill="#FFFFFF" width="2" height="2"/>
		<rect x="0" y="26" fill="#FFFFFF" width="2" height="2"/>
		<rect x="2" y="26" fill="#DADADA" width="2" height="2"/>
		<rect x="4" y="26" fill="#FFFFFF" width="2" height="2"/>
		<rect x="6" y="26" fill="#DADADA" width="2" height="2"/>
		<rect x="8" y="26" fill="#FFFFFF" width="2" height="2"/>
		<rect x="10" y="26" fill="#DADADA" width="2" height="2"/>
		<rect x="12" y="26" fill="#FFFFFF" width="2" height="2"/>
		<rect x="14" y="26" fill="#DADADA" width="2" height="2"/>
		<rect x="16" y="26" fill="#FFFFFF" width="2" height="2"/>
		<rect x="18" y="26" fill="#DADADA" width="2" height="2"/>
		<rect x="20" y="26" fill="#FFFFFF" width="2" height="2"/>
		<rect x="22" y="26" fill="#DADADA" width="2" height="2"/>
		<rect x="24" y="26" fill="#FFFFFF" width="2" height="2"/>
		<rect x="26" y="26" fill="#DADADA" width="2" height="2"/>
		<rect x="28" y="26" fill="#FFFFFF" width="2" height="2"/>
		<rect x="30" y="26" fill="#DADADA" width="2" height="2"/>
		<rect x="0" y="28" fill="#DADADA" width="2" height="2"/>
		<rect x="2" y="28" fill="#FFFFFF" width="2" height="2"/>
		<rect x="4" y="28" fill="#DADADA" width="2" height="2"/>
		<rect x="6" y="28" fill="#FFFFFF" width="2" height="2"/>
		<rect x="8" y="28" fill="#DADADA" width="2" height="2"/>
		<rect x="10" y="28" fill="#FFFFFF" width="2" height="2"/>
		<rect x="12" y="28" fill="#DADADA" width="2" height="2"/>
		<rect x="14" y="28" fill="#FFFFFF" width="2" height="2"/>
		<rect x="16" y="28" fill="#DADADA" width="2" height="2"/>
		<rect x="18" y="28" fill="#FFFFFF" width="2" height="2"/>
		<rect x="20" y="28" fill="#DADADA" width="2" height="2"/>
		<rect x="22" y="28" fill="#FFFFFF" width="2" height="2"/>
		<rect x="24" y="28" fill="#DADADA" width="2" height="2"/>
		<rect x="26" y="28" fill="#FFFFFF" width="2" height="2"/>
		<rect x="28" y="28" fill="#DADADA" width="2" height="2"/>
		<rect x="30" y="28" fill="#FFFFFF" width="2" height="2"/>
		<rect x="0" y="30" fill="#FFFFFF" width="2" height="2"/>
		<rect x="2" y="30" fill="#DADADA" width="2" height="2"/>
		<rect x="4" y="30" fill="#FFFFFF" width="2" height="2"/>
		<rect x="6" y="30" fill="#DADADA" width="2" height="2"/>
		<rect x="8" y="30" fill="#FFFFFF" width="2" height="2"/>
		<rect x="10" y="30" fill="#DADADA" width="2" height="2"/>
		<rect x="12" y="30" fill="#FFFFFF" width="2" height="2"/>
		<rect x="14" y="30" fill="#DADADA" width="2" height="2"/>
		<rect x="16" y="30" fill="#FFFFFF" width="2" height="2"/>
		<rect x="18" y="30" fill="#DADADA" width="2" height="2"/>
		<rect x="20" y="30" fill="#FFFFFF" width="2" height="2"/>
		<rect x="22" y="30" fill="#DADADA" width="2" height="2"/>
		<rect x="24" y="30" fill="#FFFFFF" width="2" height="2"/>
		<rect x="26" y="30" fill="#DADADA" width="2" height="2"/>
		<rect x="28" y="30" fill="#FFFFFF" width="2" height="2"/>
		<rect x="30" y="30" fill="#DADADA" width="2" height="2"/>
	</g>
</g>
<g id="Layer_1">
	<g>
		<path fill="#FFFFFF" d="M16,6c5.5,0,10,4.5,10,10s-4.5,10-10,10S6,21.5,6,16S10.5,6,16,6 M16,4C9.4,4,4,9.4,4,16s5.4,12,12,12
			s12-5.4,12-12S22.6,4,16,4L16,4z"/>
	</g>
	<g>
		<path fill="#FFFFFF" d="M16,23c-0.6,0-1-0.4-1-1V10c0-0.6,0.4-1,1-1s1,0.4,1,1v12C17,22.6,16.6,23,16,23z"/>
	</g>
	<g>
		<path fill="#FFFFFF" d="M22,17H10c-0.6,0-1-0.4-1-1s0.4-1,1-1h12c0.6,0,1,0.4,1,1S22.6,17,22,17z"/>
	</g>
</g>
</svg>
