<?xml version="1.0" encoding="utf-8"?>
<!-- Generator: Adobe Illustrator 16.0.0, SVG Export Plug-In . SVG Version: 6.00 Build 0)  -->
<!DOCTYPE svg PUBLIC "-//W3C//DTD SVG 1.1//EN" "http://www.w3.org/Graphics/SVG/1.1/DTD/svg11.dtd">
<svg version="1.1" id="Layer_1" xmlns="http://www.w3.org/2000/svg" xmlns:xlink="http://www.w3.org/1999/xlink" x="0px" y="0px"
	 width="22px" height="23px" viewBox="0 0 22 23" enable-background="new 0 0 22 23" xml:space="preserve">
<g>
	<path fill="#FFFFFF" d="M21.561,20.439l-5.5-5.5c-0.06-0.059-0.133-0.084-0.197-0.131C17.194,13.238,18,11.213,18,9
		c0-4.963-4.037-9-9-9C4.036,0,0,4.037,0,9s4.036,9,9,9c1.716,0,3.315-0.492,4.682-1.328c0.069,0.137,0.144,0.273,0.258,0.389
		l5.5,5.5C19.732,22.854,20.116,23,20.5,23s0.767-0.146,1.061-0.439C22.146,21.975,22.146,21.025,21.561,20.439z M2,9
		c0-3.865,3.134-7,7-7c3.865,0,7,3.135,7,7s-3.135,7-7,7C5.134,16,2,12.865,2,9z"/>
	<g>
		<path fill="#FFFFFF" d="M14,8.5c-0.277,0-0.5-0.225-0.5-0.5c0-2.594-2.552-3.49-2.66-3.527c-0.26-0.088-0.403-0.371-0.313-0.633
			c0.088-0.262,0.372-0.4,0.632-0.314C12.314,3.91,14.5,5.342,14.5,8C14.5,8.275,14.276,8.5,14,8.5z"/>
	</g>
</g>
</svg>
