<?xml version="1.0" encoding="utf-8"?>
<!-- Generator: Adobe Illustrator 16.0.0, SVG Export Plug-In . SVG Version: 6.00 Build 0)  -->
<!DOCTYPE svg PUBLIC "-//W3C//DTD SVG 1.1//EN" "http://www.w3.org/Graphics/SVG/1.1/DTD/svg11.dtd">
<svg version="1.1" id="Layer_1" xmlns="http://www.w3.org/2000/svg" xmlns:xlink="http://www.w3.org/1999/xlink" x="0px" y="0px"
	 width="24px" height="24px" viewBox="0 0 24 24" enable-background="new 0 0 24 24" xml:space="preserve">
<g>
	<path fill="#FFFFFF" d="M20.6,23.1c-0.7,0-1.3-0.2-1.8-0.7L1.6,5.2c-1-1-1-2.6,0-3.6c1-1,2.6-1,3.6,0l17.2,17.2c1,1,1,2.6,0,3.6
		C21.9,22.9,21.2,23.1,20.6,23.1z"/>
</g>
<g>
	<path fill="#FFFFFF" d="M3.4,23.1c-0.7,0-1.3-0.2-1.8-0.7c-1-1-1-2.6,0-3.6L18.8,1.6c1-1,2.6-1,3.6,0c1,1,1,2.6,0,3.6L5.2,22.4
		C4.7,22.9,4.1,23.1,3.4,23.1z"/>
</g>
</svg>
