<?xml version="1.0" encoding="utf-8"?>
<!-- Generator: Adobe Illustrator 16.0.0, SVG Export Plug-In . SVG Version: 6.00 Build 0)  -->
<!DOCTYPE svg PUBLIC "-//W3C//DTD SVG 1.1//EN" "http://www.w3.org/Graphics/SVG/1.1/DTD/svg11.dtd">
<svg version="1.1" id="Layer_1" xmlns="http://www.w3.org/2000/svg" xmlns:xlink="http://www.w3.org/1999/xlink" x="0px" y="0px"
	 width="32px" height="32px" viewBox="0 0 32 32" enable-background="new 0 0 32 32" xml:space="preserve">
<g>
	<path fill="#0063AE" d="M16,2c3.6,0,7.2,1.4,9.9,4.1c5.5,5.5,5.5,14.3,0,19.8C23.2,28.6,19.6,30,16,30c-3.6,0-7.2-1.4-9.9-4.1
		c-5.5-5.5-5.5-14.3,0-19.8C8.8,3.4,12.4,2,16,2 M16,0C11.7,0,7.7,1.7,4.7,4.7c-6.2,6.2-6.2,16.399,0,22.6c3,3,7,4.7,11.3,4.7
		s8.3-1.7,11.3-4.7c6.2-6.2,6.2-16.4,0-22.6C24.3,1.7,20.3,0,16,0L16,0z"/>
</g>
<g>
	<path fill="#0063AE" d="M10.1,22.9c-0.3,0-0.5-0.101-0.7-0.301C9,22.2,9,21.6,9.4,21.2L21.2,9.4C21.6,9,22.2,9,22.6,9.4
		c0.4,0.4,0.4,1,0,1.4L10.8,22.6C10.6,22.8,10.3,22.9,10.1,22.9z"/>
</g>
<g>
	<path fill="#0063AE" d="M21.9,22.9c-0.301,0-0.5-0.101-0.7-0.301L9.4,10.8c-0.4-0.4-0.4-1,0-1.4s1-0.4,1.4,0l11.9,11.9
		c0.399,0.4,0.399,1,0,1.4C22.5,22.8,22.2,22.9,21.9,22.9z"/>
</g>
</svg>
