<?xml version="1.0" encoding="utf-8"?>
<!-- Generator: Adobe Illustrator 16.0.0, SVG Export Plug-In . SVG Version: 6.00 Build 0)  -->
<!DOCTYPE svg PUBLIC "-//W3C//DTD SVG 1.1//EN" "http://www.w3.org/Graphics/SVG/1.1/DTD/svg11.dtd">
<svg version="1.1" id="Layer_1" xmlns="http://www.w3.org/2000/svg" xmlns:xlink="http://www.w3.org/1999/xlink" x="0px" y="0px"
	 width="30px" height="30px" viewBox="0 0 30 30" enable-background="new 0 0 30 30" xml:space="preserve">
<g id="ICONS">
	<g>
		<g>
			<path fill="#FFFFFF" d="M3.188,29.766c-0.844,0-1.406-0.281-1.969-0.844c-1.125-1.125-1.125-2.812,0-3.938L25.125,1.078
				c1.125-1.125,2.812-1.125,3.938,0s1.125,2.812,0,3.938L5.156,28.922C4.594,29.484,3.75,29.766,3.188,29.766z"/>
		</g>
		<g>
			<path fill="#FFFFFF" d="M26.812,29.766c-0.844,0-1.406-0.281-1.969-0.844L0.938,5.016c-1.125-1.125-1.125-2.812,0-3.938
				s2.812-1.125,3.938,0l23.906,23.906c1.125,1.125,1.125,2.812,0,3.938C28.5,29.484,27.656,29.766,26.812,29.766z"/>
		</g>
	</g>
</g>
</svg>
