<?xml version="1.0" encoding="utf-8"?>
<!-- Generator: Adobe Illustrator 16.0.0, SVG Export Plug-In . SVG Version: 6.00 Build 0)  -->
<!DOCTYPE svg PUBLIC "-//W3C//DTD SVG 1.1//EN" "http://www.w3.org/Graphics/SVG/1.1/DTD/svg11.dtd">
<svg version="1.1" xmlns="http://www.w3.org/2000/svg" xmlns:xlink="http://www.w3.org/1999/xlink" x="0px" y="0px" width="32px"
	 height="32px" viewBox="0 0 32 32" enable-background="new 0 0 32 32" xml:space="preserve">
<g id="grids" display="none">
	<g display="inline">
		<rect x="0" y="0" fill="#DADADA" width="2" height="2"/>
		<rect x="2" y="0" fill="#FFFFFF" width="2" height="2"/>
		<rect x="4" y="0" fill="#DADADA" width="2" height="2"/>
		<rect x="6" y="0" fill="#FFFFFF" width="2" height="2"/>
		<rect x="8" y="0" fill="#DADADA" width="2" height="2"/>
		<rect x="10" y="0" fill="#FFFFFF" width="2" height="2"/>
		<rect x="12" y="0" fill="#DADADA" width="2" height="2"/>
		<rect x="14" y="0" fill="#FFFFFF" width="2" height="2"/>
		<rect x="16" y="0" fill="#DADADA" width="2" height="2"/>
		<rect x="18" y="0" fill="#FFFFFF" width="2" height="2"/>
		<rect x="20" y="0" fill="#DADADA" width="2" height="2"/>
		<rect x="22" y="0" fill="#FFFFFF" width="2" height="2"/>
		<rect x="24" y="0" fill="#DADADA" width="2" height="2"/>
		<rect x="26" y="0" fill="#FFFFFF" width="2" height="2"/>
		<rect x="28" y="0" fill="#DADADA" width="2" height="2"/>
		<rect x="30" y="0" fill="#FFFFFF" width="2" height="2"/>
		<rect x="0" y="2" fill="#FFFFFF" width="2" height="2"/>
		<rect x="2" y="2" fill="#DADADA" width="2" height="2"/>
		<rect x="4" y="2" fill="#FFFFFF" width="2" height="2"/>
		<rect x="6" y="2" fill="#DADADA" width="2" height="2"/>
		<rect x="8" y="2" fill="#FFFFFF" width="2" height="2"/>
		<rect x="10" y="2" fill="#DADADA" width="2" height="2"/>
		<rect x="12" y="2" fill="#FFFFFF" width="2" height="2"/>
		<rect x="14" y="2" fill="#DADADA" width="2" height="2"/>
		<rect x="16" y="2" fill="#FFFFFF" width="2" height="2"/>
		<rect x="18" y="2" fill="#DADADA" width="2" height="2"/>
		<rect x="20" y="2" fill="#FFFFFF" width="2" height="2"/>
		<rect x="22" y="2" fill="#DADADA" width="2" height="2"/>
		<rect x="24" y="2" fill="#FFFFFF" width="2" height="2"/>
		<rect x="26" y="2" fill="#DADADA" width="2" height="2"/>
		<rect x="28" y="2" fill="#FFFFFF" width="2" height="2"/>
		<rect x="30" y="2" fill="#DADADA" width="2" height="2"/>
		<rect x="0" y="4" fill="#DADADA" width="2" height="2"/>
		<rect x="2" y="4" fill="#FFFFFF" width="2" height="2"/>
		<rect x="4" y="4" fill="#DADADA" width="2" height="2"/>
		<rect x="6" y="4" fill="#FFFFFF" width="2" height="2"/>
		<rect x="8" y="4" fill="#DADADA" width="2" height="2"/>
		<rect x="10" y="4" fill="#FFFFFF" width="2" height="2"/>
		<rect x="12" y="4" fill="#DADADA" width="2" height="2"/>
		<rect x="14" y="4" fill="#FFFFFF" width="2" height="2"/>
		<rect x="16" y="4" fill="#DADADA" width="2" height="2"/>
		<rect x="18" y="4" fill="#FFFFFF" width="2" height="2"/>
		<rect x="20" y="4" fill="#DADADA" width="2" height="2"/>
		<rect x="22" y="4" fill="#FFFFFF" width="2" height="2"/>
		<rect x="24" y="4" fill="#DADADA" width="2" height="2"/>
		<rect x="26" y="4" fill="#FFFFFF" width="2" height="2"/>
		<rect x="28" y="4" fill="#DADADA" width="2" height="2"/>
		<rect x="30" y="4" fill="#FFFFFF" width="2" height="2"/>
		<rect x="0" y="6" fill="#FFFFFF" width="2" height="2"/>
		<rect x="2" y="6" fill="#DADADA" width="2" height="2"/>
		<rect x="4" y="6" fill="#FFFFFF" width="2" height="2"/>
		<rect x="6" y="6" fill="#DADADA" width="2" height="2"/>
		<rect x="8" y="6" fill="#FFFFFF" width="2" height="2"/>
		<rect x="10" y="6" fill="#DADADA" width="2" height="2"/>
		<rect x="12" y="6" fill="#FFFFFF" width="2" height="2"/>
		<rect x="14" y="6" fill="#DADADA" width="2" height="2"/>
		<rect x="16" y="6" fill="#FFFFFF" width="2" height="2"/>
		<rect x="18" y="6" fill="#DADADA" width="2" height="2"/>
		<rect x="20" y="6" fill="#FFFFFF" width="2" height="2"/>
		<rect x="22" y="6" fill="#DADADA" width="2" height="2"/>
		<rect x="24" y="6" fill="#FFFFFF" width="2" height="2"/>
		<rect x="26" y="6" fill="#DADADA" width="2" height="2"/>
		<rect x="28" y="6" fill="#FFFFFF" width="2" height="2"/>
		<rect x="30" y="6" fill="#DADADA" width="2" height="2"/>
		<rect x="0" y="8" fill="#DADADA" width="2" height="2"/>
		<rect x="2" y="8" fill="#FFFFFF" width="2" height="2"/>
		<rect x="4" y="8" fill="#DADADA" width="2" height="2"/>
		<rect x="6" y="8" fill="#FFFFFF" width="2" height="2"/>
		<rect x="8" y="8" fill="#DADADA" width="2" height="2"/>
		<rect x="10" y="8" fill="#FFFFFF" width="2" height="2"/>
		<rect x="12" y="8" fill="#DADADA" width="2" height="2"/>
		<rect x="14" y="8" fill="#FFFFFF" width="2" height="2"/>
		<rect x="16" y="8" fill="#DADADA" width="2" height="2"/>
		<rect x="18" y="8" fill="#FFFFFF" width="2" height="2"/>
		<rect x="20" y="8" fill="#DADADA" width="2" height="2"/>
		<rect x="22" y="8" fill="#FFFFFF" width="2" height="2"/>
		<rect x="24" y="8" fill="#DADADA" width="2" height="2"/>
		<rect x="26" y="8" fill="#FFFFFF" width="2" height="2"/>
		<rect x="28" y="8" fill="#DADADA" width="2" height="2"/>
		<rect x="30" y="8" fill="#FFFFFF" width="2" height="2"/>
		<rect x="0" y="10" fill="#FFFFFF" width="2" height="2"/>
		<rect x="2" y="10" fill="#DADADA" width="2" height="2"/>
		<rect x="4" y="10" fill="#FFFFFF" width="2" height="2"/>
		<rect x="6" y="10" fill="#DADADA" width="2" height="2"/>
		<rect x="8" y="10" fill="#FFFFFF" width="2" height="2"/>
		<rect x="10" y="10" fill="#DADADA" width="2" height="2"/>
		<rect x="12" y="10" fill="#FFFFFF" width="2" height="2"/>
		<rect x="14" y="10" fill="#DADADA" width="2" height="2"/>
		<rect x="16" y="10" fill="#FFFFFF" width="2" height="2"/>
		<rect x="18" y="10" fill="#DADADA" width="2" height="2"/>
		<rect x="20" y="10" fill="#FFFFFF" width="2" height="2"/>
		<rect x="22" y="10" fill="#DADADA" width="2" height="2"/>
		<rect x="24" y="10" fill="#FFFFFF" width="2" height="2"/>
		<rect x="26" y="10" fill="#DADADA" width="2" height="2"/>
		<rect x="28" y="10" fill="#FFFFFF" width="2" height="2"/>
		<rect x="30" y="10" fill="#DADADA" width="2" height="2"/>
		<rect x="0" y="12" fill="#DADADA" width="2" height="2"/>
		<rect x="2" y="12" fill="#FFFFFF" width="2" height="2"/>
		<rect x="4" y="12" fill="#DADADA" width="2" height="2"/>
		<rect x="6" y="12" fill="#FFFFFF" width="2" height="2"/>
		<rect x="8" y="12" fill="#DADADA" width="2" height="2"/>
		<rect x="10" y="12" fill="#FFFFFF" width="2" height="2"/>
		<rect x="12" y="12" fill="#DADADA" width="2" height="2"/>
		<rect x="14" y="12" fill="#FFFFFF" width="2" height="2"/>
		<rect x="16" y="12" fill="#DADADA" width="2" height="2"/>
		<rect x="18" y="12" fill="#FFFFFF" width="2" height="2"/>
		<rect x="20" y="12" fill="#DADADA" width="2" height="2"/>
		<rect x="22" y="12" fill="#FFFFFF" width="2" height="2"/>
		<rect x="24" y="12" fill="#DADADA" width="2" height="2"/>
		<rect x="26" y="12" fill="#FFFFFF" width="2" height="2"/>
		<rect x="28" y="12" fill="#DADADA" width="2" height="2"/>
		<rect x="30" y="12" fill="#FFFFFF" width="2" height="2"/>
		<rect x="0" y="14" fill="#FFFFFF" width="2" height="2"/>
		<rect x="2" y="14" fill="#DADADA" width="2" height="2"/>
		<rect x="4" y="14" fill="#FFFFFF" width="2" height="2"/>
		<rect x="6" y="14" fill="#DADADA" width="2" height="2"/>
		<rect x="8" y="14" fill="#FFFFFF" width="2" height="2"/>
		<rect x="10" y="14" fill="#DADADA" width="2" height="2"/>
		<rect x="12" y="14" fill="#FFFFFF" width="2" height="2"/>
		<rect x="14" y="14" fill="#DADADA" width="2" height="2"/>
		<rect x="16" y="14" fill="#FFFFFF" width="2" height="2"/>
		<rect x="18" y="14" fill="#DADADA" width="2" height="2"/>
		<rect x="20" y="14" fill="#FFFFFF" width="2" height="2"/>
		<rect x="22" y="14" fill="#DADADA" width="2" height="2"/>
		<rect x="24" y="14" fill="#FFFFFF" width="2" height="2"/>
		<rect x="26" y="14" fill="#DADADA" width="2" height="2"/>
		<rect x="28" y="14" fill="#FFFFFF" width="2" height="2"/>
		<rect x="30" y="14" fill="#DADADA" width="2" height="2"/>
		<rect x="0" y="16" fill="#DADADA" width="2" height="2"/>
		<rect x="2" y="16" fill="#FFFFFF" width="2" height="2"/>
		<rect x="4" y="16" fill="#DADADA" width="2" height="2"/>
		<rect x="6" y="16" fill="#FFFFFF" width="2" height="2"/>
		<rect x="8" y="16" fill="#DADADA" width="2" height="2"/>
		<rect x="10" y="16" fill="#FFFFFF" width="2" height="2"/>
		<rect x="12" y="16" fill="#DADADA" width="2" height="2"/>
		<rect x="14" y="16" fill="#FFFFFF" width="2" height="2"/>
		<rect x="16" y="16" fill="#DADADA" width="2" height="2"/>
		<rect x="18" y="16" fill="#FFFFFF" width="2" height="2"/>
		<rect x="20" y="16" fill="#DADADA" width="2" height="2"/>
		<rect x="22" y="16" fill="#FFFFFF" width="2" height="2"/>
		<rect x="24" y="16" fill="#DADADA" width="2" height="2"/>
		<rect x="26" y="16" fill="#FFFFFF" width="2" height="2"/>
		<rect x="28" y="16" fill="#DADADA" width="2" height="2"/>
		<rect x="30" y="16" fill="#FFFFFF" width="2" height="2"/>
		<rect x="0" y="18" fill="#FFFFFF" width="2" height="2"/>
		<rect x="2" y="18" fill="#DADADA" width="2" height="2"/>
		<rect x="4" y="18" fill="#FFFFFF" width="2" height="2"/>
		<rect x="6" y="18" fill="#DADADA" width="2" height="2"/>
		<rect x="8" y="18" fill="#FFFFFF" width="2" height="2"/>
		<rect x="10" y="18" fill="#DADADA" width="2" height="2"/>
		<rect x="12" y="18" fill="#FFFFFF" width="2" height="2"/>
		<rect x="14" y="18" fill="#DADADA" width="2" height="2"/>
		<rect x="16" y="18" fill="#FFFFFF" width="2" height="2"/>
		<rect x="18" y="18" fill="#DADADA" width="2" height="2"/>
		<rect x="20" y="18" fill="#FFFFFF" width="2" height="2"/>
		<rect x="22" y="18" fill="#DADADA" width="2" height="2"/>
		<rect x="24" y="18" fill="#FFFFFF" width="2" height="2"/>
		<rect x="26" y="18" fill="#DADADA" width="2" height="2"/>
		<rect x="28" y="18" fill="#FFFFFF" width="2" height="2"/>
		<rect x="30" y="18" fill="#DADADA" width="2" height="2"/>
		<rect x="0" y="20" fill="#DADADA" width="2" height="2"/>
		<rect x="2" y="20" fill="#FFFFFF" width="2" height="2"/>
		<rect x="4" y="20" fill="#DADADA" width="2" height="2"/>
		<rect x="6" y="20" fill="#FFFFFF" width="2" height="2"/>
		<rect x="8" y="20" fill="#DADADA" width="2" height="2"/>
		<rect x="10" y="20" fill="#FFFFFF" width="2" height="2"/>
		<rect x="12" y="20" fill="#DADADA" width="2" height="2"/>
		<rect x="14" y="20" fill="#FFFFFF" width="2" height="2"/>
		<rect x="16" y="20" fill="#DADADA" width="2" height="2"/>
		<rect x="18" y="20" fill="#FFFFFF" width="2" height="2"/>
		<rect x="20" y="20" fill="#DADADA" width="2" height="2"/>
		<rect x="22" y="20" fill="#FFFFFF" width="2" height="2"/>
		<rect x="24" y="20" fill="#DADADA" width="2" height="2"/>
		<rect x="26" y="20" fill="#FFFFFF" width="2" height="2"/>
		<rect x="28" y="20" fill="#DADADA" width="2" height="2"/>
		<rect x="30" y="20" fill="#FFFFFF" width="2" height="2"/>
		<rect x="0" y="22" fill="#FFFFFF" width="2" height="2"/>
		<rect x="2" y="22" fill="#DADADA" width="2" height="2"/>
		<rect x="4" y="22" fill="#FFFFFF" width="2" height="2"/>
		<rect x="6" y="22" fill="#DADADA" width="2" height="2"/>
		<rect x="8" y="22" fill="#FFFFFF" width="2" height="2"/>
		<rect x="10" y="22" fill="#DADADA" width="2" height="2"/>
		<rect x="12" y="22" fill="#FFFFFF" width="2" height="2"/>
		<rect x="14" y="22" fill="#DADADA" width="2" height="2"/>
		<rect x="16" y="22" fill="#FFFFFF" width="2" height="2"/>
		<rect x="18" y="22" fill="#DADADA" width="2" height="2"/>
		<rect x="20" y="22" fill="#FFFFFF" width="2" height="2"/>
		<rect x="22" y="22" fill="#DADADA" width="2" height="2"/>
		<rect x="24" y="22" fill="#FFFFFF" width="2" height="2"/>
		<rect x="26" y="22" fill="#DADADA" width="2" height="2"/>
		<rect x="28" y="22" fill="#FFFFFF" width="2" height="2"/>
		<rect x="30" y="22" fill="#DADADA" width="2" height="2"/>
		<rect x="0" y="24" fill="#DADADA" width="2" height="2"/>
		<rect x="2" y="24" fill="#FFFFFF" width="2" height="2"/>
		<rect x="4" y="24" fill="#DADADA" width="2" height="2"/>
		<rect x="6" y="24" fill="#FFFFFF" width="2" height="2"/>
		<rect x="8" y="24" fill="#DADADA" width="2" height="2"/>
		<rect x="10" y="24" fill="#FFFFFF" width="2" height="2"/>
		<rect x="12" y="24" fill="#DADADA" width="2" height="2"/>
		<rect x="14" y="24" fill="#FFFFFF" width="2" height="2"/>
		<rect x="16" y="24" fill="#DADADA" width="2" height="2"/>
		<rect x="18" y="24" fill="#FFFFFF" width="2" height="2"/>
		<rect x="20" y="24" fill="#DADADA" width="2" height="2"/>
		<rect x="22" y="24" fill="#FFFFFF" width="2" height="2"/>
		<rect x="24" y="24" fill="#DADADA" width="2" height="2"/>
		<rect x="26" y="24" fill="#FFFFFF" width="2" height="2"/>
		<rect x="28" y="24" fill="#DADADA" width="2" height="2"/>
		<rect x="30" y="24" fill="#FFFFFF" width="2" height="2"/>
		<rect x="0" y="26" fill="#FFFFFF" width="2" height="2"/>
		<rect x="2" y="26" fill="#DADADA" width="2" height="2"/>
		<rect x="4" y="26" fill="#FFFFFF" width="2" height="2"/>
		<rect x="6" y="26" fill="#DADADA" width="2" height="2"/>
		<rect x="8" y="26" fill="#FFFFFF" width="2" height="2"/>
		<rect x="10" y="26" fill="#DADADA" width="2" height="2"/>
		<rect x="12" y="26" fill="#FFFFFF" width="2" height="2"/>
		<rect x="14" y="26" fill="#DADADA" width="2" height="2"/>
		<rect x="16" y="26" fill="#FFFFFF" width="2" height="2"/>
		<rect x="18" y="26" fill="#DADADA" width="2" height="2"/>
		<rect x="20" y="26" fill="#FFFFFF" width="2" height="2"/>
		<rect x="22" y="26" fill="#DADADA" width="2" height="2"/>
		<rect x="24" y="26" fill="#FFFFFF" width="2" height="2"/>
		<rect x="26" y="26" fill="#DADADA" width="2" height="2"/>
		<rect x="28" y="26" fill="#FFFFFF" width="2" height="2"/>
		<rect x="30" y="26" fill="#DADADA" width="2" height="2"/>
		<rect x="0" y="28" fill="#DADADA" width="2" height="2"/>
		<rect x="2" y="28" fill="#FFFFFF" width="2" height="2"/>
		<rect x="4" y="28" fill="#DADADA" width="2" height="2"/>
		<rect x="6" y="28" fill="#FFFFFF" width="2" height="2"/>
		<rect x="8" y="28" fill="#DADADA" width="2" height="2"/>
		<rect x="10" y="28" fill="#FFFFFF" width="2" height="2"/>
		<rect x="12" y="28" fill="#DADADA" width="2" height="2"/>
		<rect x="14" y="28" fill="#FFFFFF" width="2" height="2"/>
		<rect x="16" y="28" fill="#DADADA" width="2" height="2"/>
		<rect x="18" y="28" fill="#FFFFFF" width="2" height="2"/>
		<rect x="20" y="28" fill="#DADADA" width="2" height="2"/>
		<rect x="22" y="28" fill="#FFFFFF" width="2" height="2"/>
		<rect x="24" y="28" fill="#DADADA" width="2" height="2"/>
		<rect x="26" y="28" fill="#FFFFFF" width="2" height="2"/>
		<rect x="28" y="28" fill="#DADADA" width="2" height="2"/>
		<rect x="30" y="28" fill="#FFFFFF" width="2" height="2"/>
		<rect x="0" y="30" fill="#FFFFFF" width="2" height="2"/>
		<rect x="2" y="30" fill="#DADADA" width="2" height="2"/>
		<rect x="4" y="30" fill="#FFFFFF" width="2" height="2"/>
		<rect x="6" y="30" fill="#DADADA" width="2" height="2"/>
		<rect x="8" y="30" fill="#FFFFFF" width="2" height="2"/>
		<rect x="10" y="30" fill="#DADADA" width="2" height="2"/>
		<rect x="12" y="30" fill="#FFFFFF" width="2" height="2"/>
		<rect x="14" y="30" fill="#DADADA" width="2" height="2"/>
		<rect x="16" y="30" fill="#FFFFFF" width="2" height="2"/>
		<rect x="18" y="30" fill="#DADADA" width="2" height="2"/>
		<rect x="20" y="30" fill="#FFFFFF" width="2" height="2"/>
		<rect x="22" y="30" fill="#DADADA" width="2" height="2"/>
		<rect x="24" y="30" fill="#FFFFFF" width="2" height="2"/>
		<rect x="26" y="30" fill="#DADADA" width="2" height="2"/>
		<rect x="28" y="30" fill="#FFFFFF" width="2" height="2"/>
		<rect x="30" y="30" fill="#DADADA" width="2" height="2"/>
	</g>
</g>
<g id="BG" display="none">
	<rect x="-129" y="-123.7" display="inline" width="314" height="521.3"/>
</g>
<g id="ICONS">
	<g>
		<g>
			<path fill="#FFFFFF" d="M16,14c0.2,0,2.4,0.8,2.4,0.8c0.5,0.2,0.9,0.8,0.9,1.4v2.4c0,0.6-0.4,1.4-0.9,1.7l-0.7,0.4L17.5,23
				c0,0.6-0.5,1.1-1.1,1.1h-1c-0.5,0-1-0.5-1.1-1.1L14,20.7l-0.5-0.3c-0.5-0.3-0.9-1.1-0.9-1.7v-2.4c0-0.6,0.4-1.3,0.9-1.4
				C13.6,14.8,15.8,14,16,14 M16,12c-0.3,0-0.6,0-3.1,0.9c-1.3,0.4-2.3,1.8-2.3,3.3v2.4c0,1.2,0.6,2.5,1.5,3.2l0.2,1.5
				c0.2,1.6,1.5,2.9,3.1,2.9h1c1.6,0,2.9-1.3,3.1-2.9l0.2-1.4c1-0.7,1.7-2.1,1.7-3.3v-2.4c0-1.5-1-2.9-2.3-3.3
				C16.6,12,16.3,12,16,12L16,12z"/>
		</g>
		<g>
			<path fill="#FFFFFF" d="M16,8c1.1,0,2,0.9,2,2s-0.9,2-2,2s-2-0.9-2-2S14.9,8,16,8 M16,6c-2.2,0-4,1.8-4,4s1.8,4,4,4
				c2.2,0,4-1.8,4-4S18.2,6,16,6L16,6z"/>
		</g>
		<g>
			<path fill="#FFFFFF" d="M16,4c6.6,0,12,5.4,12,12s-5.4,12-12,12S4,22.6,4,16S9.4,4,16,4 M16,2C8.3,2,2,8.3,2,16s6.3,14,14,14
				s14-6.3,14-14S23.7,2,16,2L16,2z"/>
		</g>
		<g>
			<path fill="#FFFFFF" d="M23.1,23.5c-0.1,0-0.3,0-0.4-0.1c-0.2-0.2-0.2-0.5,0-0.7c1.8-1.8,2.8-4.1,2.8-6.6c0-2.6-1-5-2.8-6.8
				c-0.2-0.2-0.2-0.5,0-0.7s0.5-0.2,0.7,0c2,2,3.1,4.7,3.1,7.5c0,2.8-1.1,5.4-3.1,7.3C23.3,23.5,23.2,23.5,23.1,23.5z"/>
		</g>
		<g>
			<path fill="#FFFFFF" d="M8.9,23.7c-0.1,0-0.3,0-0.4-0.1c-2-2-3.1-4.7-3.1-7.5c0-2.8,1.1-5.4,3.1-7.3c0.2-0.2,0.5-0.2,0.7,0
				s0.2,0.5,0,0.7c-1.8,1.8-2.8,4.1-2.8,6.6c0,2.6,1,5,2.8,6.8c0.2,0.2,0.2,0.5,0,0.7C9.2,23.6,9.1,23.7,8.9,23.7z"/>
		</g>
	</g>
</g>
<g id="txt" display="none">
	<g display="inline">
		<g>
		</g>
	</g>
</g>
</svg>
