<?xml version="1.0" encoding="utf-8"?>
<!-- Generator: Adobe Illustrator 16.0.0, SVG Export Plug-In . SVG Version: 6.00 Build 0)  -->
<!DOCTYPE svg PUBLIC "-//W3C//DTD SVG 1.1//EN" "http://www.w3.org/Graphics/SVG/1.1/DTD/svg11.dtd">
<svg version="1.1" xmlns="http://www.w3.org/2000/svg" xmlns:xlink="http://www.w3.org/1999/xlink" x="0px" y="0px" width="32px"
	 height="32px" viewBox="0 0 32 32" enable-background="new 0 0 32 32" xml:space="preserve">
<g id="grids" display="none">
	<g display="inline">
		<rect x="0" y="-0.1" fill="#DADADA" width="2" height="2"/>
		<rect x="2" y="-0.1" fill="#FFFFFF" width="2" height="2"/>
		<rect x="4" y="-0.1" fill="#DADADA" width="2" height="2"/>
		<rect x="6" y="-0.1" fill="#FFFFFF" width="2" height="2"/>
		<rect x="8" y="-0.1" fill="#DADADA" width="2" height="2"/>
		<rect x="10" y="-0.1" fill="#FFFFFF" width="2" height="2"/>
		<rect x="12" y="-0.1" fill="#DADADA" width="2" height="2"/>
		<rect x="14" y="-0.1" fill="#FFFFFF" width="2" height="2"/>
		<rect x="16" y="-0.1" fill="#DADADA" width="2" height="2"/>
		<rect x="18" y="-0.1" fill="#FFFFFF" width="2" height="2"/>
		<rect x="20" y="-0.1" fill="#DADADA" width="2" height="2"/>
		<rect x="22" y="-0.1" fill="#FFFFFF" width="2" height="2"/>
		<rect x="24" y="-0.1" fill="#DADADA" width="2" height="2"/>
		<rect x="26" y="-0.1" fill="#FFFFFF" width="2" height="2"/>
		<rect x="28" y="-0.1" fill="#DADADA" width="2" height="2"/>
		<rect x="30" y="-0.1" fill="#FFFFFF" width="2" height="2"/>
		<rect x="0" y="1.9" fill="#FFFFFF" width="2" height="2"/>
		<rect x="2" y="1.9" fill="#DADADA" width="2" height="2"/>
		<rect x="4" y="1.9" fill="#FFFFFF" width="2" height="2"/>
		<rect x="6" y="1.9" fill="#DADADA" width="2" height="2"/>
		<rect x="8" y="1.9" fill="#FFFFFF" width="2" height="2"/>
		<rect x="10" y="1.9" fill="#DADADA" width="2" height="2"/>
		<rect x="12" y="1.9" fill="#FFFFFF" width="2" height="2"/>
		<rect x="14" y="1.9" fill="#DADADA" width="2" height="2"/>
		<rect x="16" y="1.9" fill="#FFFFFF" width="2" height="2"/>
		<rect x="18" y="1.9" fill="#DADADA" width="2" height="2"/>
		<rect x="20" y="1.9" fill="#FFFFFF" width="2" height="2"/>
		<rect x="22" y="1.9" fill="#DADADA" width="2" height="2"/>
		<rect x="24" y="1.9" fill="#FFFFFF" width="2" height="2"/>
		<rect x="26" y="1.9" fill="#DADADA" width="2" height="2"/>
		<rect x="28" y="1.9" fill="#FFFFFF" width="2" height="2"/>
		<rect x="30" y="1.9" fill="#DADADA" width="2" height="2"/>
		<rect x="0" y="3.9" fill="#DADADA" width="2" height="2"/>
		<rect x="2" y="3.9" fill="#FFFFFF" width="2" height="2"/>
		<rect x="4" y="3.9" fill="#DADADA" width="2" height="2"/>
		<rect x="6" y="3.9" fill="#FFFFFF" width="2" height="2"/>
		<rect x="8" y="3.9" fill="#DADADA" width="2" height="2"/>
		<rect x="10" y="3.9" fill="#FFFFFF" width="2" height="2"/>
		<rect x="12" y="3.9" fill="#DADADA" width="2" height="2"/>
		<rect x="14" y="3.9" fill="#FFFFFF" width="2" height="2"/>
		<rect x="16" y="3.9" fill="#DADADA" width="2" height="2"/>
		<rect x="18" y="3.9" fill="#FFFFFF" width="2" height="2"/>
		<rect x="20" y="3.9" fill="#DADADA" width="2" height="2"/>
		<rect x="22" y="3.9" fill="#FFFFFF" width="2" height="2"/>
		<rect x="24" y="3.9" fill="#DADADA" width="2" height="2"/>
		<rect x="26" y="3.9" fill="#FFFFFF" width="2" height="2"/>
		<rect x="28" y="3.9" fill="#DADADA" width="2" height="2"/>
		<rect x="30" y="3.9" fill="#FFFFFF" width="2" height="2"/>
		<rect x="0" y="5.9" fill="#FFFFFF" width="2" height="2"/>
		<rect x="2" y="5.9" fill="#DADADA" width="2" height="2"/>
		<rect x="4" y="5.9" fill="#FFFFFF" width="2" height="2"/>
		<rect x="6" y="5.9" fill="#DADADA" width="2" height="2"/>
		<rect x="8" y="5.9" fill="#FFFFFF" width="2" height="2"/>
		<rect x="10" y="5.9" fill="#DADADA" width="2" height="2"/>
		<rect x="12" y="5.9" fill="#FFFFFF" width="2" height="2"/>
		<rect x="14" y="5.9" fill="#DADADA" width="2" height="2"/>
		<rect x="16" y="5.9" fill="#FFFFFF" width="2" height="2"/>
		<rect x="18" y="5.9" fill="#DADADA" width="2" height="2"/>
		<rect x="20" y="5.9" fill="#FFFFFF" width="2" height="2"/>
		<rect x="22" y="5.9" fill="#DADADA" width="2" height="2"/>
		<rect x="24" y="5.9" fill="#FFFFFF" width="2" height="2"/>
		<rect x="26" y="5.9" fill="#DADADA" width="2" height="2"/>
		<rect x="28" y="5.9" fill="#FFFFFF" width="2" height="2"/>
		<rect x="30" y="5.9" fill="#DADADA" width="2" height="2"/>
		<rect x="0" y="7.9" fill="#DADADA" width="2" height="2"/>
		<rect x="2" y="7.9" fill="#FFFFFF" width="2" height="2"/>
		<rect x="4" y="7.9" fill="#DADADA" width="2" height="2"/>
		<rect x="6" y="7.9" fill="#FFFFFF" width="2" height="2"/>
		<rect x="8" y="7.9" fill="#DADADA" width="2" height="2"/>
		<rect x="10" y="7.9" fill="#FFFFFF" width="2" height="2"/>
		<rect x="12" y="7.9" fill="#DADADA" width="2" height="2"/>
		<rect x="14" y="7.9" fill="#FFFFFF" width="2" height="2"/>
		<rect x="16" y="7.9" fill="#DADADA" width="2" height="2"/>
		<rect x="18" y="7.9" fill="#FFFFFF" width="2" height="2"/>
		<rect x="20" y="7.9" fill="#DADADA" width="2" height="2"/>
		<rect x="22" y="7.9" fill="#FFFFFF" width="2" height="2"/>
		<rect x="24" y="7.9" fill="#DADADA" width="2" height="2"/>
		<rect x="26" y="7.9" fill="#FFFFFF" width="2" height="2"/>
		<rect x="28" y="7.9" fill="#DADADA" width="2" height="2"/>
		<rect x="30" y="7.9" fill="#FFFFFF" width="2" height="2"/>
		<rect x="0" y="9.9" fill="#FFFFFF" width="2" height="2"/>
		<rect x="2" y="9.9" fill="#DADADA" width="2" height="2"/>
		<rect x="4" y="9.9" fill="#FFFFFF" width="2" height="2"/>
		<rect x="6" y="9.9" fill="#DADADA" width="2" height="2"/>
		<rect x="8" y="9.9" fill="#FFFFFF" width="2" height="2"/>
		<rect x="10" y="9.9" fill="#DADADA" width="2" height="2"/>
		<rect x="12" y="9.9" fill="#FFFFFF" width="2" height="2"/>
		<rect x="14" y="9.9" fill="#DADADA" width="2" height="2"/>
		<rect x="16" y="9.9" fill="#FFFFFF" width="2" height="2"/>
		<rect x="18" y="9.9" fill="#DADADA" width="2" height="2"/>
		<rect x="20" y="9.9" fill="#FFFFFF" width="2" height="2"/>
		<rect x="22" y="9.9" fill="#DADADA" width="2" height="2"/>
		<rect x="24" y="9.9" fill="#FFFFFF" width="2" height="2"/>
		<rect x="26" y="9.9" fill="#DADADA" width="2" height="2"/>
		<rect x="28" y="9.9" fill="#FFFFFF" width="2" height="2"/>
		<rect x="30" y="9.9" fill="#DADADA" width="2" height="2"/>
		<rect x="0" y="11.9" fill="#DADADA" width="2" height="2"/>
		<rect x="2" y="11.9" fill="#FFFFFF" width="2" height="2"/>
		<rect x="4" y="11.9" fill="#DADADA" width="2" height="2"/>
		<rect x="6" y="11.9" fill="#FFFFFF" width="2" height="2"/>
		<rect x="8" y="11.9" fill="#DADADA" width="2" height="2"/>
		<rect x="10" y="11.9" fill="#FFFFFF" width="2" height="2"/>
		<rect x="12" y="11.9" fill="#DADADA" width="2" height="2"/>
		<rect x="14" y="11.9" fill="#FFFFFF" width="2" height="2"/>
		<rect x="16" y="11.9" fill="#DADADA" width="2" height="2"/>
		<rect x="18" y="11.9" fill="#FFFFFF" width="2" height="2"/>
		<rect x="20" y="11.9" fill="#DADADA" width="2" height="2"/>
		<rect x="22" y="11.9" fill="#FFFFFF" width="2" height="2"/>
		<rect x="24" y="11.9" fill="#DADADA" width="2" height="2"/>
		<rect x="26" y="11.9" fill="#FFFFFF" width="2" height="2"/>
		<rect x="28" y="11.9" fill="#DADADA" width="2" height="2"/>
		<rect x="30" y="11.9" fill="#FFFFFF" width="2" height="2"/>
		<rect x="0" y="13.9" fill="#FFFFFF" width="2" height="2"/>
		<rect x="2" y="13.9" fill="#DADADA" width="2" height="2"/>
		<rect x="4" y="13.9" fill="#FFFFFF" width="2" height="2"/>
		<rect x="6" y="13.9" fill="#DADADA" width="2" height="2"/>
		<rect x="8" y="13.9" fill="#FFFFFF" width="2" height="2"/>
		<rect x="10" y="13.9" fill="#DADADA" width="2" height="2"/>
		<rect x="12" y="13.9" fill="#FFFFFF" width="2" height="2"/>
		<rect x="14" y="13.9" fill="#DADADA" width="2" height="2"/>
		<rect x="16" y="13.9" fill="#FFFFFF" width="2" height="2"/>
		<rect x="18" y="13.9" fill="#DADADA" width="2" height="2"/>
		<rect x="20" y="13.9" fill="#FFFFFF" width="2" height="2"/>
		<rect x="22" y="13.9" fill="#DADADA" width="2" height="2"/>
		<rect x="24" y="13.9" fill="#FFFFFF" width="2" height="2"/>
		<rect x="26" y="13.9" fill="#DADADA" width="2" height="2"/>
		<rect x="28" y="13.9" fill="#FFFFFF" width="2" height="2"/>
		<rect x="30" y="13.9" fill="#DADADA" width="2" height="2"/>
		<rect x="0" y="15.9" fill="#DADADA" width="2" height="2"/>
		<rect x="2" y="15.9" fill="#FFFFFF" width="2" height="2"/>
		<rect x="4" y="15.9" fill="#DADADA" width="2" height="2"/>
		<rect x="6" y="15.9" fill="#FFFFFF" width="2" height="2"/>
		<rect x="8" y="15.9" fill="#DADADA" width="2" height="2"/>
		<rect x="10" y="15.9" fill="#FFFFFF" width="2" height="2"/>
		<rect x="12" y="15.9" fill="#DADADA" width="2" height="2"/>
		<rect x="14" y="15.9" fill="#FFFFFF" width="2" height="2"/>
		<rect x="16" y="15.9" fill="#DADADA" width="2" height="2"/>
		<rect x="18" y="15.9" fill="#FFFFFF" width="2" height="2"/>
		<rect x="20" y="15.9" fill="#DADADA" width="2" height="2"/>
		<rect x="22" y="15.9" fill="#FFFFFF" width="2" height="2"/>
		<rect x="24" y="15.9" fill="#DADADA" width="2" height="2"/>
		<rect x="26" y="15.9" fill="#FFFFFF" width="2" height="2"/>
		<rect x="28" y="15.9" fill="#DADADA" width="2" height="2"/>
		<rect x="30" y="15.9" fill="#FFFFFF" width="2" height="2"/>
		<rect x="0" y="17.9" fill="#FFFFFF" width="2" height="2"/>
		<rect x="2" y="17.9" fill="#DADADA" width="2" height="2"/>
		<rect x="4" y="17.9" fill="#FFFFFF" width="2" height="2"/>
		<rect x="6" y="17.9" fill="#DADADA" width="2" height="2"/>
		<rect x="8" y="17.9" fill="#FFFFFF" width="2" height="2"/>
		<rect x="10" y="17.9" fill="#DADADA" width="2" height="2"/>
		<rect x="12" y="17.9" fill="#FFFFFF" width="2" height="2"/>
		<rect x="14" y="17.9" fill="#DADADA" width="2" height="2"/>
		<rect x="16" y="17.9" fill="#FFFFFF" width="2" height="2"/>
		<rect x="18" y="17.9" fill="#DADADA" width="2" height="2"/>
		<rect x="20" y="17.9" fill="#FFFFFF" width="2" height="2"/>
		<rect x="22" y="17.9" fill="#DADADA" width="2" height="2"/>
		<rect x="24" y="17.9" fill="#FFFFFF" width="2" height="2"/>
		<rect x="26" y="17.9" fill="#DADADA" width="2" height="2"/>
		<rect x="28" y="17.9" fill="#FFFFFF" width="2" height="2"/>
		<rect x="30" y="17.9" fill="#DADADA" width="2" height="2"/>
		<rect x="0" y="19.9" fill="#DADADA" width="2" height="2"/>
		<rect x="2" y="19.9" fill="#FFFFFF" width="2" height="2"/>
		<rect x="4" y="19.9" fill="#DADADA" width="2" height="2"/>
		<rect x="6" y="19.9" fill="#FFFFFF" width="2" height="2"/>
		<rect x="8" y="19.9" fill="#DADADA" width="2" height="2"/>
		<rect x="10" y="19.9" fill="#FFFFFF" width="2" height="2"/>
		<rect x="12" y="19.9" fill="#DADADA" width="2" height="2"/>
		<rect x="14" y="19.9" fill="#FFFFFF" width="2" height="2"/>
		<rect x="16" y="19.9" fill="#DADADA" width="2" height="2"/>
		<rect x="18" y="19.9" fill="#FFFFFF" width="2" height="2"/>
		<rect x="20" y="19.9" fill="#DADADA" width="2" height="2"/>
		<rect x="22" y="19.9" fill="#FFFFFF" width="2" height="2"/>
		<rect x="24" y="19.9" fill="#DADADA" width="2" height="2"/>
		<rect x="26" y="19.9" fill="#FFFFFF" width="2" height="2"/>
		<rect x="28" y="19.9" fill="#DADADA" width="2" height="2"/>
		<rect x="30" y="19.9" fill="#FFFFFF" width="2" height="2"/>
		<rect x="0" y="21.9" fill="#FFFFFF" width="2" height="2"/>
		<rect x="2" y="21.9" fill="#DADADA" width="2" height="2"/>
		<rect x="4" y="21.9" fill="#FFFFFF" width="2" height="2"/>
		<rect x="6" y="21.9" fill="#DADADA" width="2" height="2"/>
		<rect x="8" y="21.9" fill="#FFFFFF" width="2" height="2"/>
		<rect x="10" y="21.9" fill="#DADADA" width="2" height="2"/>
		<rect x="12" y="21.9" fill="#FFFFFF" width="2" height="2"/>
		<rect x="14" y="21.9" fill="#DADADA" width="2" height="2"/>
		<rect x="16" y="21.9" fill="#FFFFFF" width="2" height="2"/>
		<rect x="18" y="21.9" fill="#DADADA" width="2" height="2"/>
		<rect x="20" y="21.9" fill="#FFFFFF" width="2" height="2"/>
		<rect x="22" y="21.9" fill="#DADADA" width="2" height="2"/>
		<rect x="24" y="21.9" fill="#FFFFFF" width="2" height="2"/>
		<rect x="26" y="21.9" fill="#DADADA" width="2" height="2"/>
		<rect x="28" y="21.9" fill="#FFFFFF" width="2" height="2"/>
		<rect x="30" y="21.9" fill="#DADADA" width="2" height="2"/>
		<rect x="0" y="23.9" fill="#DADADA" width="2" height="2"/>
		<rect x="2" y="23.9" fill="#FFFFFF" width="2" height="2"/>
		<rect x="4" y="23.9" fill="#DADADA" width="2" height="2"/>
		<rect x="6" y="23.9" fill="#FFFFFF" width="2" height="2"/>
		<rect x="8" y="23.9" fill="#DADADA" width="2" height="2"/>
		<rect x="10" y="23.9" fill="#FFFFFF" width="2" height="2"/>
		<rect x="12" y="23.9" fill="#DADADA" width="2" height="2"/>
		<rect x="14" y="23.9" fill="#FFFFFF" width="2" height="2"/>
		<rect x="16" y="23.9" fill="#DADADA" width="2" height="2"/>
		<rect x="18" y="23.9" fill="#FFFFFF" width="2" height="2"/>
		<rect x="20" y="23.9" fill="#DADADA" width="2" height="2"/>
		<rect x="22" y="23.9" fill="#FFFFFF" width="2" height="2"/>
		<rect x="24" y="23.9" fill="#DADADA" width="2" height="2"/>
		<rect x="26" y="23.9" fill="#FFFFFF" width="2" height="2"/>
		<rect x="28" y="23.9" fill="#DADADA" width="2" height="2"/>
		<rect x="30" y="23.9" fill="#FFFFFF" width="2" height="2"/>
		<rect x="0" y="25.9" fill="#FFFFFF" width="2" height="2"/>
		<rect x="2" y="25.9" fill="#DADADA" width="2" height="2"/>
		<rect x="4" y="25.9" fill="#FFFFFF" width="2" height="2"/>
		<rect x="6" y="25.9" fill="#DADADA" width="2" height="2"/>
		<rect x="8" y="25.9" fill="#FFFFFF" width="2" height="2"/>
		<rect x="10" y="25.9" fill="#DADADA" width="2" height="2"/>
		<rect x="12" y="25.9" fill="#FFFFFF" width="2" height="2"/>
		<rect x="14" y="25.9" fill="#DADADA" width="2" height="2"/>
		<rect x="16" y="25.9" fill="#FFFFFF" width="2" height="2"/>
		<rect x="18" y="25.9" fill="#DADADA" width="2" height="2"/>
		<rect x="20" y="25.9" fill="#FFFFFF" width="2" height="2"/>
		<rect x="22" y="25.9" fill="#DADADA" width="2" height="2"/>
		<rect x="24" y="25.9" fill="#FFFFFF" width="2" height="2"/>
		<rect x="26" y="25.9" fill="#DADADA" width="2" height="2"/>
		<rect x="28" y="25.9" fill="#FFFFFF" width="2" height="2"/>
		<rect x="30" y="25.9" fill="#DADADA" width="2" height="2"/>
		<rect x="0" y="27.9" fill="#DADADA" width="2" height="2"/>
		<rect x="2" y="27.9" fill="#FFFFFF" width="2" height="2"/>
		<rect x="4" y="27.9" fill="#DADADA" width="2" height="2"/>
		<rect x="6" y="27.9" fill="#FFFFFF" width="2" height="2"/>
		<rect x="8" y="27.9" fill="#DADADA" width="2" height="2"/>
		<rect x="10" y="27.9" fill="#FFFFFF" width="2" height="2"/>
		<rect x="12" y="27.9" fill="#DADADA" width="2" height="2"/>
		<rect x="14" y="27.9" fill="#FFFFFF" width="2" height="2"/>
		<rect x="16" y="27.9" fill="#DADADA" width="2" height="2"/>
		<rect x="18" y="27.9" fill="#FFFFFF" width="2" height="2"/>
		<rect x="20" y="27.9" fill="#DADADA" width="2" height="2"/>
		<rect x="22" y="27.9" fill="#FFFFFF" width="2" height="2"/>
		<rect x="24" y="27.9" fill="#DADADA" width="2" height="2"/>
		<rect x="26" y="27.9" fill="#FFFFFF" width="2" height="2"/>
		<rect x="28" y="27.9" fill="#DADADA" width="2" height="2"/>
		<rect x="30" y="27.9" fill="#FFFFFF" width="2" height="2"/>
		<rect x="0" y="29.9" fill="#FFFFFF" width="2" height="2"/>
		<rect x="2" y="29.9" fill="#DADADA" width="2" height="2"/>
		<rect x="4" y="29.9" fill="#FFFFFF" width="2" height="2"/>
		<rect x="6" y="29.9" fill="#DADADA" width="2" height="2"/>
		<rect x="8" y="29.9" fill="#FFFFFF" width="2" height="2"/>
		<rect x="10" y="29.9" fill="#DADADA" width="2" height="2"/>
		<rect x="12" y="29.9" fill="#FFFFFF" width="2" height="2"/>
		<rect x="14" y="29.9" fill="#DADADA" width="2" height="2"/>
		<rect x="16" y="29.9" fill="#FFFFFF" width="2" height="2"/>
		<rect x="18" y="29.9" fill="#DADADA" width="2" height="2"/>
		<rect x="20" y="29.9" fill="#FFFFFF" width="2" height="2"/>
		<rect x="22" y="29.9" fill="#DADADA" width="2" height="2"/>
		<rect x="24" y="29.9" fill="#FFFFFF" width="2" height="2"/>
		<rect x="26" y="29.9" fill="#DADADA" width="2" height="2"/>
		<rect x="28" y="29.9" fill="#FFFFFF" width="2" height="2"/>
		<rect x="30" y="29.9" fill="#DADADA" width="2" height="2"/>
	</g>
</g>
<g id="BG" display="none">
	<rect x="-181" y="-175.7" display="inline" width="314" height="521.3"/>
</g>
<g id="ICONS">
	<g>
		<path fill="#FFFFFF" d="M19.3,14.3L17,16.6V11c0-0.6-0.4-1-1-1s-1,0.4-1,1v5.6l-2.3-2.3c-0.4-0.4-1-0.4-1.4,0s-0.4,1,0,1.4l4,4
			c0.1,0.1,0.2,0.2,0.3,0.2C15.7,20,15.9,20,16,20s0.3,0,0.4-0.1c0.1-0.1,0.2-0.1,0.3-0.2l4-4c0.4-0.4,0.4-1,0-1.4
			S19.7,13.9,19.3,14.3z"/>
		<path fill="#FFFFFF" d="M29.5,15.3l-3.3-9C25.7,4.9,24.4,4,23,4H9C7.6,4,6.3,4.9,5.8,6.3l-3.3,9C2.2,16,2,17.1,2,17.9V25
			c0,1.7,1.3,3,3,3h22c1.7,0,3-1.3,3-3v-7.1C30,17.1,29.8,16,29.5,15.3z M28,25c0,0.5-0.5,1-1,1H5c-0.5,0-1-0.5-1-1v-7.1
			c0-0.5,0.2-1.4,0.3-1.9l3.3-9C7.8,6.4,8.5,6,9,6h14c0.5,0,1.2,0.4,1.3,0.9l3.3,9c0.2,0.5,0.3,1.4,0.3,1.9V25z"/>
		<path fill="#FFFFFF" d="M26.2,18l-3.4-9.3c-0.3-0.7-1.1-1.3-1.8-1.3H11c-0.8,0-1.6,0.6-1.8,1.3L5.8,18C5.4,18.1,5,18.5,5,19
			c0,0.6,0.4,1,1,1h3.4l1.7,3.4c0.2,0.3,0.5,0.6,0.9,0.6h8c0.4,0,0.7-0.2,0.9-0.6l1.7-3.4H26c0.6,0,1-0.4,1-1
			C27,18.5,26.6,18.1,26.2,18z M22,18c-0.4,0-0.7,0.2-0.9,0.6L19.4,22h-6.8l-1.7-3.4C10.7,18.2,10.4,18,10,18H6.9l3.2-8.9
			c0.1-0.3,0.5-0.6,0.9-0.6h10c0.3,0,0.8,0.3,0.9,0.6l3.2,8.9H22z"/>
	</g>
</g>
<g id="txt" display="none">
	<g display="inline">
		<g>
			<text transform="matrix(1 0 0 1 3 36.3989)"><tspan x="0" y="0" font-family="'MyriadPro-Regular'" font-size="5.8629">entrega de</tspan><tspan x="0" y="6" font-family="'MyriadPro-Regular'" font-size="5.8629">trabajos</tspan></text>
		</g>
	</g>
</g>
</svg>
